<svg width="206" height="50" viewBox="0 0 206 50" fill="none" xmlns="http://www.w3.org/2000/svg">
<path d="M21.9457 11.9877C22.6007 11.2983 23.6058 9.99428 24.1793 9.08999C25.0335 7.74298 25.363 7.44645 26.0026 7.44924C27.8526 7.45824 31.5652 8.8936 33.2449 10.2511L33.9599 10.8289L33.2422 10.9779C32.8475 11.0598 31.4137 11.1985 30.056 11.2863C27.9684 11.4212 25.9117 11.843 21.4725 13.0468C20.8303 13.2208 20.88 13.1095 21.9457 11.9877Z" fill="#05AF4E"/>
<path d="M25.4915 18.0925C21.3146 17.662 20.9445 17.5906 21.2608 17.2755C21.584 16.9536 26.1999 15.7246 28.7871 15.2715C31.5556 14.7867 38.3239 14.5856 39.6296 14.9493C41.2963 15.4136 40.3106 16.777 37.414 18.0138C35.7595 18.7202 31.8342 18.746 25.4915 18.0925Z" fill="#05AF4E"/>
<path d="M11.8449 25.7059C12.5257 22.3278 14.0399 20.2694 16.4734 19.4138C18.4981 18.7019 25.603 18.9467 32.3815 19.962C35.6181 20.4468 39.2675 20.9331 40.4911 21.0427C41.7147 21.1523 42.7159 21.3529 42.7159 21.4885C42.7159 21.624 41.8864 21.7349 40.8725 21.7349C38.2442 21.7349 28.7622 22.5271 25.2048 23.0438C21.2658 23.616 17.1348 24.6319 14.8427 25.5921C13.8317 26.0157 12.6996 26.4325 12.327 26.5184C11.6917 26.6647 11.6618 26.6143 11.8449 25.7059Z" fill="#05AF4E"/>
<path d="M11.8321 29.3252C12.9595 28.407 16.8822 26.4854 19.1768 25.7272C24.4494 23.985 31.2879 23.242 37.3405 23.7538C42.9681 24.2296 47.9162 25.6213 47.9537 26.7388C47.989 27.7895 43.2815 28.0467 32.669 27.5737C26.0439 27.2784 17.8751 28.1157 12.9945 29.5903C11.0631 30.1739 10.8496 30.1252 11.8321 29.3252Z" fill="#05AF4E"/>
<path d="M38.1225 32.4121C32.8729 31.8207 30.1502 31.6765 23.5816 31.6422C19.1366 31.619 15.6487 31.5028 15.8308 31.3841C16.5679 30.9038 20.084 29.9637 23.195 29.4152C27.4166 28.6708 36.0644 28.3829 39.697 28.8657C43.8755 29.4211 47.5957 30.9771 47.5957 32.1694C47.5957 33.2101 45.6486 33.2599 38.1225 32.4121Z" fill="#05AF4E"/>
<path d="M4.10117 30.1594C1.79162 26.7723 -0.0533855 23.8676 0.00117984 23.7046C0.0556548 23.5416 1.32441 22.4159 2.82044 21.2031L5.5405 18.9979L5.69939 15.2551C5.92654 9.9037 6.59402 9.15364 11.1291 9.15364H13.4349V10.4404V11.7271H11.1958C9.83698 11.7271 8.82119 11.8619 8.61215 12.0702C8.27276 12.4083 8.10119 16.588 8.4268 16.588C8.51428 16.588 10.8072 14.7936 13.5222 12.6004C29.822 -0.566406 29.0502 0.00361953 30.5774 0.00361953C32.4261 0.00361953 32.886 0.497244 46.6926 17.3029C48.9726 20.078 49.1262 20.2068 38.9191 10.7874C30.1788 2.72158 29.6169 2.3311 27.9926 3.19457C27.5961 3.40531 22.5926 8.5317 16.8739 14.5864C11.1551 20.6412 6.02386 26.0669 5.47107 26.6436L4.46598 27.692L7.3716 31.1295C8.9697 33.0201 10.2772 34.6454 10.2772 34.7412C10.2772 34.963 8.76456 36.2967 8.49942 36.3087C8.39002 36.3132 6.41073 33.5465 4.10117 30.1594Z" fill="#E9566F"/>
<path d="M23.2523 44.2668C22.3446 43.3627 23.481 40.8068 25.6208 38.9397L26.712 37.9875L25.3123 38.1824C20.7543 38.8169 15.1311 40.3094 11.1697 41.9358C8.59858 42.9915 7.2438 43.0865 6.71743 42.248C6.46789 41.8506 6.56712 41.4293 7.18902 40.2454C9.41537 36.0074 14.0358 33.3201 20.3514 32.5901C24.7881 32.0772 29.2824 32.514 41.2801 34.6239C44.8325 35.2487 48.8652 35.84 50.2417 35.938C51.6181 36.036 52.6891 36.2051 52.6216 36.3139C52.554 36.4226 49.4257 36.5956 45.6695 36.6982C37.3938 36.9243 32.8235 37.1892 32.3689 37.469C31.7688 37.8384 31.5331 40.0652 31.9626 41.3072C32.4424 42.6943 32.237 42.997 30.4212 43.5788C27.4187 44.541 23.8694 44.8815 23.2523 44.2668Z" fill="#05AF4E"/>
<path d="M14.7881 45.8735L12.5532 42.5877L13.5122 42.1886C14.0396 41.9691 14.8124 41.7042 15.2295 41.5999C16.0492 41.3951 16.1762 41.5079 19.0789 45.0198L20.4407 46.6674L19.0189 47.9153C18.2369 48.6016 17.4679 49.1622 17.3101 49.1612C17.1521 49.16 16.0173 47.6807 14.7881 45.8735Z" fill="#E9566F"/>
<path d="M69.2783 33.8271C69.2783 34.0143 69.2946 34.1934 69.3271 34.3643C69.3678 34.527 69.4411 34.6694 69.5469 34.7915C69.6608 34.9136 69.8114 35.0112 69.9985 35.0845C70.1938 35.1577 70.4461 35.1943 70.7554 35.1943C71.203 35.1943 71.6139 35.0682 71.9883 34.8159C72.3626 34.5555 72.6841 34.2259 72.9526 33.8271C73.2212 33.4202 73.4287 32.9686 73.5752 32.4722C73.7217 31.9676 73.7949 31.4671 73.7949 30.9707C73.7949 30.2301 73.6932 29.5791 73.4897 29.0176C73.2944 28.4479 73.0177 27.9678 72.6597 27.5771C72.3016 27.1865 71.8784 26.8854 71.3901 26.6738C70.9019 26.4541 70.3729 26.328 69.8032 26.2954L70.0474 25.6729C70.4054 25.6891 70.7472 25.6403 71.0728 25.5264C71.3983 25.4124 71.6831 25.2131 71.9272 24.9282C72.1795 24.6434 72.3789 24.2609 72.5254 23.7808C72.6719 23.2925 72.7451 22.6821 72.7451 21.9497C72.7451 21.4533 72.6841 21.0057 72.562 20.6069C72.4399 20.2082 72.2772 19.8745 72.0737 19.606C71.8784 19.3293 71.6465 19.1177 71.3779 18.9712C71.1175 18.8247 70.849 18.7515 70.5723 18.7515C70.4014 18.7515 70.2345 18.7718 70.0718 18.8125C69.9172 18.8532 69.7788 18.9224 69.6567 19.02C69.5428 19.1177 69.4492 19.2479 69.376 19.4106C69.3109 19.5653 69.2783 19.7606 69.2783 19.9966V33.8271ZM69.5225 17.7505C71.8825 17.7505 73.6159 18.1208 74.7227 18.8613C75.8376 19.5938 76.395 20.6639 76.395 22.0718C76.395 22.4217 76.3543 22.7432 76.2729 23.0361C76.1997 23.3291 76.1021 23.5977 75.98 23.8418C75.8579 24.0778 75.7196 24.2894 75.5649 24.4766C75.4103 24.6637 75.2516 24.8265 75.0889 24.9648C74.7064 25.2985 74.2751 25.5589 73.7949 25.7461V25.9292C74.5518 26.0187 75.2313 26.2466 75.8335 26.6128C76.0858 26.7674 76.334 26.9627 76.5781 27.1987C76.8223 27.4266 77.0379 27.7074 77.2251 28.041C77.4204 28.3665 77.575 28.749 77.689 29.1885C77.811 29.6198 77.8721 30.1162 77.8721 30.6777C77.8721 31.5322 77.7174 32.3013 77.4082 32.9849C77.099 33.6685 76.6392 34.2503 76.0288 34.7305C75.4185 35.2025 74.6576 35.5646 73.7461 35.8169C72.8346 36.0692 71.7767 36.1953 70.5723 36.1953C69.4574 36.1953 68.55 36.1261 67.8501 35.9878C67.1502 35.8494 66.605 35.6501 66.2144 35.3896C65.8237 35.1211 65.5552 34.7996 65.4087 34.4253C65.2703 34.0509 65.2012 33.6278 65.2012 33.1558V19.8013C65.2012 19.3537 64.8919 19.1299 64.2734 19.1299C63.8258 19.1299 63.3701 19.1991 62.9062 19.3374C62.4505 19.4676 62.0355 19.6507 61.6611 19.8867C61.2949 20.1146 60.9938 20.3913 60.7578 20.7168C60.5218 21.0342 60.4038 21.38 60.4038 21.7544C60.4038 22.0148 60.4364 22.2223 60.5015 22.377C60.5747 22.5316 60.6561 22.6496 60.7456 22.731C60.8351 22.8042 60.9246 22.853 61.0142 22.8774C61.1118 22.8937 61.181 22.9019 61.2217 22.9019C61.4251 22.9019 61.592 22.8693 61.7222 22.8042C61.8524 22.731 61.9704 22.6577 62.0762 22.5845C62.182 22.5031 62.2796 22.4299 62.3691 22.3647C62.4668 22.2915 62.5767 22.2549 62.6987 22.2549C62.7964 22.2549 62.8981 22.2793 63.0039 22.3281C63.1178 22.3688 63.2196 22.438 63.3091 22.5356C63.4067 22.6333 63.4881 22.7635 63.5532 22.9263C63.6183 23.0809 63.6509 23.2721 63.6509 23.5C63.6509 23.8255 63.5858 24.1063 63.4556 24.3423C63.3335 24.5783 63.1707 24.7777 62.9673 24.9404C62.772 25.0951 62.5441 25.2131 62.2837 25.2944C62.0314 25.3677 61.7791 25.4043 61.5269 25.4043C61.1362 25.4043 60.7822 25.3392 60.4648 25.209C60.1556 25.0706 59.8911 24.8835 59.6714 24.6475C59.4517 24.4115 59.2848 24.1348 59.1709 23.8174C59.057 23.5 59 23.1623 59 22.8042C59 22.1287 59.1261 21.5347 59.3784 21.022C59.6307 20.5011 59.9847 20.0535 60.4404 19.6792C60.9043 19.3049 61.4577 18.9956 62.1006 18.7515C62.7435 18.4992 63.4556 18.2998 64.2368 18.1533C65.0181 18.0068 65.8522 17.9051 66.7393 17.8481C67.6344 17.783 68.5622 17.7505 69.5225 17.7505ZM83.3042 30.397C83.3042 30.6574 83.3408 30.9422 83.4141 31.2515C83.4954 31.5526 83.6094 31.8577 83.7559 32.167C83.9023 32.4762 84.0814 32.7733 84.293 33.0581C84.5127 33.3348 84.7609 33.583 85.0376 33.8027C85.3224 34.0225 85.6357 34.1974 85.9775 34.3276C86.3193 34.4578 86.6937 34.5229 87.1006 34.5229C87.3854 34.5229 87.6499 34.4904 87.894 34.4253C88.1382 34.3602 88.366 34.2707 88.5776 34.1567C88.7892 34.0428 88.9927 33.9126 89.188 33.7661C89.3833 33.6115 89.5786 33.4487 89.7739 33.2778L90.0791 33.5708C89.8919 33.8231 89.6519 34.0998 89.3589 34.4009C89.0659 34.702 88.7119 34.9868 88.2969 35.2554C87.8818 35.5158 87.3976 35.7355 86.8442 35.9146C86.2909 36.0854 85.6602 36.1709 84.9521 36.1709C84.2441 36.1709 83.5524 36.0448 82.877 35.7925C82.2096 35.5321 81.6156 35.1455 81.0947 34.6328C80.5739 34.1201 80.1548 33.4813 79.8374 32.7163C79.5282 31.9513 79.3735 31.0562 79.3735 30.0308C79.3735 29.2902 79.4671 28.6107 79.6543 27.9922C79.8415 27.3737 80.0938 26.8162 80.4111 26.3198C80.7367 25.8234 81.111 25.388 81.5342 25.0137C81.9655 24.6393 82.4172 24.3301 82.8892 24.0859C83.3612 23.8337 83.8413 23.6465 84.3296 23.5244C84.826 23.3942 85.3021 23.3291 85.7578 23.3291C86.36 23.3291 86.8849 23.3942 87.3325 23.5244C87.7801 23.6546 88.1504 23.8296 88.4434 24.0493C88.7445 24.269 88.9683 24.5254 89.1147 24.8184C89.2612 25.1032 89.3345 25.4043 89.3345 25.7217C89.3345 26.1042 89.2246 26.45 89.0049 26.7593C88.7852 27.0604 88.4922 27.3249 88.126 27.5527L83.3042 30.397ZM85.7578 27.9189C85.8636 27.8538 85.9491 27.7928 86.0142 27.7358C86.0874 27.6707 86.1444 27.5975 86.1851 27.5161C86.2257 27.4266 86.2542 27.3208 86.2705 27.1987C86.2949 27.0685 86.3071 26.9098 86.3071 26.7227C86.3071 26.5192 86.2827 26.2954 86.2339 26.0513C86.1932 25.799 86.12 25.563 86.0142 25.3433C85.9084 25.1235 85.7741 24.9404 85.6113 24.7939C85.4486 24.6475 85.2533 24.5742 85.0254 24.5742C84.7324 24.5742 84.4801 24.6637 84.2686 24.8428C84.0651 25.0137 83.8942 25.2375 83.7559 25.5142C83.6257 25.7909 83.5199 26.1082 83.4385 26.4663C83.3652 26.8162 83.3083 27.1702 83.2676 27.5283C83.2269 27.8864 83.2025 28.2323 83.1943 28.5659C83.1862 28.8914 83.1821 29.1681 83.1821 29.396L85.7578 27.9189ZM95.6211 34.9014C95.6211 35.0072 95.6007 35.1374 95.5601 35.292C95.5275 35.4385 95.4421 35.5809 95.3037 35.7192C95.1735 35.8494 94.9823 35.9593 94.73 36.0488C94.4777 36.1465 94.1359 36.1953 93.7046 36.1953C93.2733 36.1953 92.9355 36.1424 92.6914 36.0366C92.4473 35.939 92.2642 35.821 92.1421 35.6826C92.02 35.5443 91.9427 35.4019 91.9102 35.2554C91.8857 35.1089 91.8735 34.9909 91.8735 34.9014V25.4775C91.8735 25.2415 91.8166 25.0381 91.7026 24.8672C91.5968 24.6882 91.4137 24.5986 91.1533 24.5986C91.015 24.5986 90.897 24.623 90.7993 24.6719C90.7017 24.7207 90.5959 24.7899 90.4819 24.8794L90.2256 24.5742C90.4128 24.4196 90.6203 24.269 90.8481 24.1226C91.0841 23.9679 91.3364 23.8337 91.605 23.7197C91.8735 23.6058 92.1624 23.5122 92.4717 23.439C92.7809 23.3657 93.1064 23.3291 93.4482 23.3291C93.9772 23.3291 94.3882 23.4023 94.6812 23.5488C94.9741 23.6872 95.1898 23.8621 95.3281 24.0737C95.4665 24.2772 95.5479 24.4969 95.5723 24.7329C95.6048 24.9689 95.6211 25.1764 95.6211 25.3555V34.9014ZM91.4951 20.5459C91.4951 20.318 91.5439 20.1024 91.6416 19.8989C91.7474 19.6873 91.8898 19.5042 92.0688 19.3496C92.256 19.195 92.4676 19.0729 92.7036 18.9834C92.9478 18.8939 93.2122 18.8491 93.4971 18.8491C93.7738 18.8491 94.0301 18.8939 94.2661 18.9834C94.5103 19.0729 94.7218 19.195 94.9009 19.3496C95.0799 19.5042 95.2183 19.6873 95.3159 19.8989C95.4217 20.1024 95.4746 20.318 95.4746 20.5459C95.4746 20.7819 95.4217 21.0016 95.3159 21.2051C95.2183 21.4085 95.0799 21.5876 94.9009 21.7422C94.7218 21.8887 94.5103 22.0067 94.2661 22.0962C94.0301 22.1857 93.7738 22.2305 93.4971 22.2305C93.2122 22.2305 92.9478 22.1857 92.7036 22.0962C92.4676 22.0067 92.256 21.8887 92.0688 21.7422C91.8898 21.5876 91.7474 21.4085 91.6416 21.2051C91.5439 21.0016 91.4951 20.7819 91.4951 20.5459ZM102.604 25.9048C102.913 25.4328 103.242 25.0055 103.592 24.623C103.739 24.4603 103.897 24.3016 104.068 24.147C104.239 23.9924 104.414 23.854 104.593 23.7319C104.78 23.6099 104.972 23.5122 105.167 23.439C105.362 23.3657 105.558 23.3291 105.753 23.3291C106.168 23.3291 106.493 23.4552 106.729 23.7075C106.965 23.9517 107.083 24.2975 107.083 24.7451C107.083 25.0218 107.059 25.2904 107.01 25.5508C106.97 25.8031 106.884 26.1123 106.754 26.4785H106.412C106.363 26.2262 106.249 26.0187 106.07 25.856C105.891 25.6851 105.631 25.5996 105.289 25.5996C105.037 25.5996 104.789 25.6484 104.544 25.7461C104.3 25.8356 104.06 25.9495 103.824 26.0879C103.596 26.2262 103.377 26.3768 103.165 26.5396C102.962 26.7023 102.774 26.8569 102.604 27.0034V34.9258C102.604 35.0316 102.587 35.1577 102.555 35.3042C102.522 35.4507 102.441 35.589 102.311 35.7192C102.188 35.8494 102.001 35.9593 101.749 36.0488C101.505 36.1465 101.167 36.1953 100.736 36.1953C100.305 36.1953 99.9627 36.1424 99.7104 36.0366C99.4663 35.939 99.2791 35.821 99.1489 35.6826C99.0187 35.5443 98.9373 35.4019 98.9048 35.2554C98.8722 35.1089 98.856 34.9909 98.856 34.9014V25.4775C98.856 25.2415 98.799 25.0381 98.6851 24.8672C98.5793 24.6882 98.3962 24.5986 98.1357 24.5986C97.9974 24.5986 97.8794 24.623 97.7817 24.6719C97.6841 24.7207 97.5783 24.7899 97.4644 24.8794L97.208 24.5742C97.3952 24.4196 97.6027 24.269 97.8306 24.1226C98.0666 23.9679 98.3188 23.8337 98.5874 23.7197C98.856 23.6058 99.1449 23.5122 99.4541 23.439C99.7633 23.3657 100.089 23.3291 100.431 23.3291C100.781 23.3291 101.078 23.3779 101.322 23.4756C101.574 23.5651 101.778 23.6872 101.932 23.8418C102.095 23.9883 102.221 24.1551 102.311 24.3423C102.4 24.5295 102.465 24.7207 102.506 24.916C102.555 25.1032 102.583 25.2863 102.591 25.4653C102.599 25.6362 102.604 25.7827 102.604 25.9048ZM119.315 33.876C119.315 33.9492 119.319 34.0306 119.327 34.1201C119.335 34.2015 119.356 34.2829 119.388 34.3643C119.421 34.4375 119.47 34.4985 119.535 34.5474C119.6 34.5962 119.693 34.6206 119.815 34.6206C119.97 34.6206 120.108 34.5677 120.23 34.4619C120.353 34.348 120.466 34.234 120.572 34.1201L120.865 34.3765C120.743 34.5474 120.589 34.7386 120.401 34.9502C120.222 35.1536 120.003 35.349 119.742 35.5361C119.482 35.7233 119.185 35.8779 118.851 36C118.517 36.1302 118.139 36.1953 117.716 36.1953C117.358 36.1953 117.044 36.1465 116.776 36.0488C116.515 35.9593 116.292 35.8372 116.104 35.6826C115.925 35.5199 115.791 35.3327 115.702 35.1211C115.612 34.9014 115.567 34.6694 115.567 34.4253V33.876C115.16 34.3154 114.733 34.702 114.286 35.0356C114.09 35.1821 113.883 35.3245 113.663 35.4629C113.443 35.6012 113.215 35.7274 112.979 35.8413C112.743 35.9471 112.499 36.0326 112.247 36.0977C111.995 36.1628 111.743 36.1953 111.49 36.1953C111.002 36.1953 110.583 36.1099 110.233 35.939C109.891 35.7599 109.614 35.528 109.403 35.2432C109.191 34.9583 109.037 34.6369 108.939 34.2788C108.841 33.9207 108.792 33.5627 108.792 33.2046V25.6484C108.792 25.5752 108.788 25.4979 108.78 25.4165C108.772 25.327 108.752 25.2456 108.719 25.1724C108.687 25.091 108.638 25.0259 108.573 24.9771C108.508 24.9282 108.414 24.9038 108.292 24.9038C108.146 24.9038 108.007 24.9608 107.877 25.0747C107.755 25.1805 107.645 25.2904 107.547 25.4043L107.242 25.1479C107.364 24.9771 107.515 24.7899 107.694 24.5864C107.881 24.3748 108.105 24.1755 108.365 23.9883C108.626 23.8011 108.923 23.6465 109.256 23.5244C109.598 23.3942 109.977 23.3291 110.392 23.3291C110.75 23.3291 111.063 23.3779 111.332 23.4756C111.6 23.5651 111.824 23.6912 112.003 23.854C112.182 24.0086 112.316 24.1958 112.406 24.4155C112.495 24.6271 112.54 24.855 112.54 25.0991V33.2534C112.54 33.3674 112.556 33.4854 112.589 33.6074C112.63 33.7214 112.682 33.8271 112.748 33.9248C112.821 34.0225 112.91 34.1038 113.016 34.1689C113.122 34.2259 113.248 34.2544 113.395 34.2544C113.631 34.2544 113.867 34.1934 114.103 34.0713C114.339 33.9492 114.554 33.8068 114.75 33.644C114.945 33.4731 115.112 33.3063 115.25 33.1436C115.396 32.9808 115.502 32.8587 115.567 32.7773V25.6484C115.567 25.5752 115.563 25.4979 115.555 25.4165C115.547 25.327 115.527 25.2456 115.494 25.1724C115.462 25.091 115.413 25.0259 115.348 24.9771C115.283 24.9282 115.189 24.9038 115.067 24.9038C114.92 24.9038 114.782 24.9608 114.652 25.0747C114.53 25.1805 114.42 25.2904 114.322 25.4043L114.017 25.1479C114.139 24.9771 114.29 24.7899 114.469 24.5864C114.656 24.3748 114.88 24.1755 115.14 23.9883C115.401 23.8011 115.698 23.6465 116.031 23.5244C116.373 23.3942 116.751 23.3291 117.167 23.3291C117.525 23.3291 117.838 23.3779 118.106 23.4756C118.375 23.5651 118.599 23.6912 118.778 23.854C118.957 24.0086 119.091 24.1958 119.181 24.4155C119.27 24.6271 119.315 24.855 119.315 25.0991V33.876ZM126.493 24.3789V33.3999C126.493 33.8312 126.574 34.1323 126.737 34.3032C126.9 34.466 127.123 34.5474 127.408 34.5474C127.628 34.5474 127.823 34.4863 127.994 34.3643C128.165 34.2422 128.312 34.1038 128.434 33.9492C128.58 33.7783 128.706 33.5789 128.812 33.3511L129.19 33.522C129.068 33.7824 128.922 34.0672 128.751 34.3765C128.588 34.6857 128.368 34.9746 128.092 35.2432C127.815 35.5036 127.465 35.7233 127.042 35.9023C126.627 36.0814 126.102 36.1709 125.467 36.1709C125.109 36.1709 124.763 36.118 124.43 36.0122C124.104 35.9064 123.811 35.7396 123.551 35.5117C123.299 35.2839 123.095 34.999 122.94 34.6572C122.786 34.3154 122.708 33.9045 122.708 33.4243V24.3789H121.341V23.5C121.569 23.5 121.887 23.443 122.293 23.3291C122.7 23.207 123.115 23.0076 123.539 22.731C123.97 22.4543 124.369 22.084 124.735 21.6201C125.101 21.1562 125.361 20.5825 125.516 19.8989H126.493V23.5H128.482C129.133 23.5 129.459 23.3901 129.459 23.1704C129.459 23.089 129.418 23.0361 129.337 23.0117C129.256 22.9792 129.162 22.9425 129.056 22.9019C128.958 22.853 128.869 22.7879 128.788 22.7065C128.706 22.6252 128.666 22.4909 128.666 22.3037C128.666 22.0758 128.735 21.8968 128.873 21.7666C129.02 21.6364 129.207 21.5713 129.435 21.5713C129.581 21.5713 129.707 21.6038 129.813 21.6689C129.927 21.7259 130.021 21.8073 130.094 21.9131C130.167 22.0107 130.22 22.1247 130.252 22.2549C130.293 22.3851 130.313 22.5153 130.313 22.6455C130.313 23.1745 130.159 23.5977 129.85 23.915C129.549 24.2243 129.06 24.3789 128.385 24.3789H126.493ZM139.054 26.6494H141.275V19.7036C141.275 19.5246 141.255 19.3822 141.214 19.2764C141.174 19.1706 141.117 19.0892 141.043 19.0322C140.97 18.9671 140.881 18.9264 140.775 18.9102C140.677 18.8857 140.567 18.8735 140.445 18.8735C140.266 18.8735 140.042 18.902 139.774 18.959C139.514 19.016 139.237 19.1014 138.944 19.2153C138.651 19.3293 138.354 19.4717 138.053 19.6426C137.76 19.8053 137.495 19.9925 137.259 20.2041C137.031 20.4157 136.844 20.6517 136.698 20.9121C136.551 21.1725 136.478 21.4533 136.478 21.7544C136.478 22.0148 136.511 22.2223 136.576 22.377C136.649 22.5316 136.73 22.6496 136.82 22.731C136.909 22.8042 136.999 22.853 137.088 22.8774C137.186 22.8937 137.255 22.9019 137.296 22.9019C137.499 22.9019 137.666 22.8693 137.796 22.8042C137.927 22.731 138.045 22.6577 138.15 22.5845C138.256 22.5031 138.354 22.4299 138.443 22.3647C138.541 22.2915 138.651 22.2549 138.773 22.2549C138.871 22.2549 138.972 22.2793 139.078 22.3281C139.192 22.3688 139.294 22.438 139.383 22.5356C139.481 22.6333 139.562 22.7635 139.627 22.9263C139.693 23.0809 139.725 23.2721 139.725 23.5C139.725 23.8255 139.66 24.1063 139.53 24.3423C139.408 24.5783 139.245 24.7777 139.042 24.9404C138.846 25.0951 138.618 25.2131 138.358 25.2944C138.106 25.3677 137.853 25.4043 137.601 25.4043C137.21 25.4043 136.856 25.3392 136.539 25.209C136.23 25.0706 135.965 24.8835 135.746 24.6475C135.526 24.4115 135.359 24.1348 135.245 23.8174C135.131 23.5 135.074 23.1623 135.074 22.8042C135.074 22.2427 135.176 21.73 135.379 21.2661C135.583 20.7941 135.86 20.3709 136.209 19.9966C136.568 19.6222 136.983 19.2967 137.455 19.02C137.935 18.7352 138.451 18.4992 139.005 18.312C139.558 18.1248 140.136 17.9865 140.738 17.897C141.34 17.7993 141.943 17.7505 142.545 17.7505C143.212 17.7505 143.729 17.8156 144.095 17.9458C144.47 18.0679 144.742 18.2184 144.913 18.3975C145.092 18.5765 145.198 18.7637 145.23 18.959C145.263 19.1543 145.279 19.3171 145.279 19.4473V26.6494H149.771V20.7778C149.771 19.4351 149.946 18.2917 150.296 17.3477C150.646 16.4036 151.098 15.6346 151.651 15.0405C152.205 14.4383 152.823 14.0029 153.507 13.7344C154.19 13.4577 154.87 13.3193 155.545 13.3193C156.009 13.3193 156.449 13.356 156.864 13.4292C157.287 13.4943 157.653 13.596 157.962 13.7344C158.28 13.8727 158.532 14.0477 158.719 14.2593C158.906 14.4627 159 14.7028 159 14.9795C159 15.1016 158.98 15.2196 158.939 15.3335C158.906 15.4393 158.858 15.5369 158.792 15.6265C158.727 15.716 158.65 15.7892 158.561 15.8462C158.479 15.895 158.394 15.9194 158.304 15.9194C158.158 15.9194 158.028 15.8747 157.914 15.7852C157.8 15.6956 157.69 15.5858 157.584 15.4556C157.486 15.3172 157.389 15.1707 157.291 15.0161C157.193 14.8534 157.083 14.7069 156.961 14.5767C156.839 14.4383 156.701 14.3244 156.546 14.2349C156.392 14.1453 156.209 14.1006 155.997 14.1006C155.501 14.1006 155.106 14.2389 154.813 14.5156C154.52 14.7842 154.296 15.1829 154.142 15.7119C153.987 16.2327 153.885 16.8838 153.836 17.665C153.796 18.4463 153.775 19.3415 153.775 20.3506V26.6494H156.229V27.7236H153.775V35.1455C153.775 35.3815 153.824 35.5728 153.922 35.7192C154.028 35.8576 154.186 35.9268 154.398 35.9268C154.626 35.9268 154.837 35.8861 155.033 35.8047C155.228 35.7233 155.399 35.646 155.545 35.5728L155.753 36.0244C155.574 36.1465 155.362 36.2726 155.118 36.4028C154.882 36.5412 154.618 36.6673 154.325 36.7812C154.04 36.9033 153.731 37.001 153.397 37.0742C153.071 37.1556 152.73 37.1963 152.372 37.1963C151.818 37.1963 151.371 37.123 151.029 36.9766C150.687 36.8301 150.423 36.6348 150.235 36.3906C150.048 36.1546 149.922 35.8861 149.857 35.585C149.8 35.2839 149.771 34.9787 149.771 34.6694V27.7236H145.279V33.8027C145.279 34.9095 145.076 35.8739 144.669 36.6958C144.27 37.5177 143.721 38.2013 143.021 38.7466C142.321 39.3 141.495 39.7109 140.543 39.9795C139.599 40.2562 138.586 40.3945 137.503 40.3945C137.088 40.3945 136.69 40.3579 136.307 40.2847C135.925 40.2196 135.587 40.126 135.294 40.0039C135.001 39.8818 134.769 39.7354 134.598 39.5645C134.419 39.4017 134.33 39.2227 134.33 39.0273C134.33 38.8809 134.35 38.7303 134.391 38.5757C134.431 38.4292 134.492 38.2949 134.574 38.1729C134.655 38.0508 134.757 37.9491 134.879 37.8677C134.993 37.7863 135.123 37.7456 135.27 37.7456C135.359 37.7456 135.436 37.7904 135.501 37.8799C135.575 37.9694 135.648 38.0793 135.721 38.2095C135.794 38.3478 135.876 38.4943 135.965 38.6489C136.063 38.8035 136.185 38.946 136.332 39.0762C136.486 39.2145 136.669 39.3285 136.881 39.418C137.092 39.5075 137.357 39.5522 137.674 39.5522C138.301 39.5522 138.838 39.4383 139.286 39.2104C139.741 38.9826 140.116 38.6611 140.409 38.2461C140.702 37.8311 140.917 37.3346 141.056 36.7568C141.202 36.1872 141.275 35.5605 141.275 34.877V27.7236H139.054V26.6494ZM157.499 29.75C157.499 28.6839 157.653 27.7521 157.962 26.9546C158.272 26.1489 158.683 25.4775 159.195 24.9404C159.716 24.4033 160.318 24.0005 161.002 23.7319C161.686 23.4634 162.402 23.3291 163.15 23.3291C163.899 23.3291 164.615 23.4552 165.299 23.7075C165.982 23.9517 166.581 24.3301 167.093 24.8428C167.614 25.3555 168.029 26.0065 168.338 26.7959C168.648 27.5771 168.802 28.5049 168.802 29.5791C168.802 30.6452 168.648 31.5892 168.338 32.4111C168.029 33.2331 167.614 33.9248 167.093 34.4863C166.581 35.0479 165.982 35.4751 165.299 35.7681C164.615 36.0529 163.899 36.1953 163.15 36.1953C162.402 36.1953 161.686 36.061 161.002 35.7925C160.318 35.5158 159.716 35.1089 159.195 34.5718C158.683 34.0347 158.272 33.3633 157.962 32.5576C157.653 31.752 157.499 30.8161 157.499 29.75ZM165.006 29.6279C165.006 28.9769 164.981 28.3503 164.933 27.748C164.892 27.1377 164.806 26.5965 164.676 26.1245C164.546 25.6525 164.359 25.2782 164.115 25.0015C163.871 24.7166 163.549 24.5742 163.15 24.5742C162.752 24.5742 162.43 24.7248 162.186 25.0259C161.942 25.3188 161.755 25.7095 161.625 26.1978C161.494 26.6779 161.409 27.2272 161.368 27.8457C161.327 28.4642 161.307 29.099 161.307 29.75C161.307 30.401 161.327 31.0399 161.368 31.6665C161.409 32.285 161.494 32.8384 161.625 33.3267C161.755 33.8149 161.942 34.2096 162.186 34.5107C162.43 34.8037 162.752 34.9502 163.15 34.9502C163.549 34.9502 163.871 34.7956 164.115 34.4863C164.359 34.1771 164.546 33.7702 164.676 33.2656C164.806 32.7611 164.892 32.1914 164.933 31.5566C164.981 30.9219 165.006 30.279 165.006 29.6279ZM181.766 33.876C181.766 33.9492 181.77 34.0306 181.778 34.1201C181.786 34.2015 181.807 34.2829 181.839 34.3643C181.872 34.4375 181.921 34.4985 181.986 34.5474C182.051 34.5962 182.145 34.6206 182.267 34.6206C182.421 34.6206 182.56 34.5677 182.682 34.4619C182.804 34.348 182.918 34.234 183.023 34.1201L183.316 34.3765C183.194 34.5474 183.04 34.7386 182.853 34.9502C182.674 35.1536 182.454 35.349 182.193 35.5361C181.933 35.7233 181.636 35.8779 181.302 36C180.969 36.1302 180.59 36.1953 180.167 36.1953C179.809 36.1953 179.496 36.1465 179.227 36.0488C178.967 35.9593 178.743 35.8372 178.556 35.6826C178.377 35.5199 178.242 35.3327 178.153 35.1211C178.063 34.9014 178.019 34.6694 178.019 34.4253V33.876C177.612 34.3154 177.184 34.702 176.737 35.0356C176.542 35.1821 176.334 35.3245 176.114 35.4629C175.895 35.6012 175.667 35.7274 175.431 35.8413C175.195 35.9471 174.951 36.0326 174.698 36.0977C174.446 36.1628 174.194 36.1953 173.941 36.1953C173.453 36.1953 173.034 36.1099 172.684 35.939C172.342 35.7599 172.066 35.528 171.854 35.2432C171.642 34.9583 171.488 34.6369 171.39 34.2788C171.292 33.9207 171.244 33.5627 171.244 33.2046V25.6484C171.244 25.5752 171.24 25.4979 171.231 25.4165C171.223 25.327 171.203 25.2456 171.17 25.1724C171.138 25.091 171.089 25.0259 171.024 24.9771C170.959 24.9282 170.865 24.9038 170.743 24.9038C170.597 24.9038 170.458 24.9608 170.328 25.0747C170.206 25.1805 170.096 25.2904 169.999 25.4043L169.693 25.1479C169.815 24.9771 169.966 24.7899 170.145 24.5864C170.332 24.3748 170.556 24.1755 170.816 23.9883C171.077 23.8011 171.374 23.6465 171.708 23.5244C172.049 23.3942 172.428 23.3291 172.843 23.3291C173.201 23.3291 173.514 23.3779 173.783 23.4756C174.051 23.5651 174.275 23.6912 174.454 23.854C174.633 24.0086 174.767 24.1958 174.857 24.4155C174.946 24.6271 174.991 24.855 174.991 25.0991V33.2534C174.991 33.3674 175.007 33.4854 175.04 33.6074C175.081 33.7214 175.134 33.8271 175.199 33.9248C175.272 34.0225 175.361 34.1038 175.467 34.1689C175.573 34.2259 175.699 34.2544 175.846 34.2544C176.082 34.2544 176.318 34.1934 176.554 34.0713C176.79 33.9492 177.005 33.8068 177.201 33.644C177.396 33.4731 177.563 33.3063 177.701 33.1436C177.848 32.9808 177.953 32.8587 178.019 32.7773V25.6484C178.019 25.5752 178.014 25.4979 178.006 25.4165C177.998 25.327 177.978 25.2456 177.945 25.1724C177.913 25.091 177.864 25.0259 177.799 24.9771C177.734 24.9282 177.64 24.9038 177.518 24.9038C177.372 24.9038 177.233 24.9608 177.103 25.0747C176.981 25.1805 176.871 25.2904 176.773 25.4043L176.468 25.1479C176.59 24.9771 176.741 24.7899 176.92 24.5864C177.107 24.3748 177.331 24.1755 177.591 23.9883C177.852 23.8011 178.149 23.6465 178.482 23.5244C178.824 23.3942 179.203 23.3291 179.618 23.3291C179.976 23.3291 180.289 23.3779 180.558 23.4756C180.826 23.5651 181.05 23.6912 181.229 23.854C181.408 24.0086 181.542 24.1958 181.632 24.4155C181.721 24.6271 181.766 24.855 181.766 25.0991V33.876ZM188.907 24.3057C188.72 24.3057 188.541 24.3301 188.37 24.3789C188.207 24.4277 188.061 24.5091 187.931 24.623C187.8 24.7288 187.699 24.8672 187.625 25.0381C187.552 25.2008 187.516 25.3962 187.516 25.624C187.516 25.9414 187.63 26.2588 187.857 26.5762C188.093 26.8854 188.382 27.2109 188.724 27.5527C189.074 27.8864 189.448 28.2363 189.847 28.6025C190.254 28.9606 190.628 29.3431 190.97 29.75C191.32 30.1488 191.609 30.576 191.837 31.0317C192.073 31.4875 192.191 31.9757 192.191 32.4966C192.191 33.0825 192.089 33.6034 191.886 34.0591C191.69 34.5148 191.406 34.9014 191.031 35.2188C190.665 35.5361 190.217 35.7803 189.688 35.9512C189.168 36.1139 188.586 36.1953 187.943 36.1953C187.381 36.1953 186.873 36.118 186.417 35.9634C185.961 35.8006 185.554 35.6053 185.196 35.3774C184.846 35.1414 184.545 34.8932 184.293 34.6328C184.041 34.3724 183.845 34.1364 183.707 33.9248L184.134 33.6196C184.24 33.7417 184.374 33.876 184.537 34.0225C184.7 34.1608 184.879 34.291 185.074 34.4131C185.278 34.5352 185.493 34.6369 185.721 34.7183C185.949 34.7915 186.181 34.8281 186.417 34.8281C187.003 34.8281 187.483 34.6898 187.857 34.4131C188.232 34.1283 188.419 33.7091 188.419 33.1558C188.419 32.8465 188.317 32.5291 188.114 32.2036C187.91 31.87 187.654 31.5282 187.345 31.1782C187.035 30.8283 186.702 30.4661 186.344 30.0918C185.986 29.7174 185.652 29.3309 185.343 28.9321C185.034 28.5334 184.777 28.1224 184.574 27.6992C184.37 27.276 184.269 26.8366 184.269 26.3809C184.269 25.8682 184.37 25.4206 184.574 25.0381C184.785 24.6556 185.062 24.3382 185.404 24.0859C185.754 23.8337 186.148 23.6465 186.588 23.5244C187.035 23.3942 187.495 23.3291 187.967 23.3291C188.513 23.3291 189.009 23.3779 189.457 23.4756C189.904 23.5732 190.287 23.7238 190.604 23.9272C190.93 24.1226 191.178 24.3708 191.349 24.6719C191.528 24.973 191.617 25.3229 191.617 25.7217C191.617 26.0309 191.515 26.2995 191.312 26.5273C191.109 26.7552 190.824 26.8691 190.458 26.8691C190.108 26.8691 189.839 26.7959 189.652 26.6494C189.473 26.4948 189.383 26.2873 189.383 26.0269C189.383 25.856 189.424 25.7217 189.505 25.624C189.595 25.5264 189.693 25.4491 189.798 25.3921C189.904 25.327 189.998 25.2741 190.079 25.2334C190.169 25.1846 190.213 25.1235 190.213 25.0503C190.213 24.8224 190.091 24.6434 189.847 24.5132C189.603 24.3748 189.29 24.3057 188.907 24.3057ZM197.611 30.397C197.611 30.6574 197.647 30.9422 197.721 31.2515C197.802 31.5526 197.916 31.8577 198.062 32.167C198.209 32.4762 198.388 32.7733 198.6 33.0581C198.819 33.3348 199.068 33.583 199.344 33.8027C199.629 34.0225 199.942 34.1974 200.284 34.3276C200.626 34.4578 201 34.5229 201.407 34.5229C201.692 34.5229 201.957 34.4904 202.201 34.4253C202.445 34.3602 202.673 34.2707 202.884 34.1567C203.096 34.0428 203.299 33.9126 203.495 33.7661C203.69 33.6115 203.885 33.4487 204.081 33.2778L204.386 33.5708C204.199 33.8231 203.958 34.0998 203.666 34.4009C203.373 34.702 203.019 34.9868 202.604 35.2554C202.188 35.5158 201.704 35.7355 201.151 35.9146C200.597 36.0854 199.967 36.1709 199.259 36.1709C198.551 36.1709 197.859 36.0448 197.184 35.7925C196.516 35.5321 195.922 35.1455 195.401 34.6328C194.881 34.1201 194.461 33.4813 194.144 32.7163C193.835 31.9513 193.68 31.0562 193.68 30.0308C193.68 29.2902 193.774 28.6107 193.961 27.9922C194.148 27.3737 194.4 26.8162 194.718 26.3198C195.043 25.8234 195.418 25.388 195.841 25.0137C196.272 24.6393 196.724 24.3301 197.196 24.0859C197.668 23.8337 198.148 23.6465 198.636 23.5244C199.133 23.3942 199.609 23.3291 200.064 23.3291C200.667 23.3291 201.192 23.3942 201.639 23.5244C202.087 23.6546 202.457 23.8296 202.75 24.0493C203.051 24.269 203.275 24.5254 203.421 24.8184C203.568 25.1032 203.641 25.4043 203.641 25.7217C203.641 26.1042 203.531 26.45 203.312 26.7593C203.092 27.0604 202.799 27.3249 202.433 27.5527L197.611 30.397ZM200.064 27.9189C200.17 27.8538 200.256 27.7928 200.321 27.7358C200.394 27.6707 200.451 27.5975 200.492 27.5161C200.532 27.4266 200.561 27.3208 200.577 27.1987C200.602 27.0685 200.614 26.9098 200.614 26.7227C200.614 26.5192 200.589 26.2954 200.541 26.0513C200.5 25.799 200.427 25.563 200.321 25.3433C200.215 25.1235 200.081 24.9404 199.918 24.7939C199.755 24.6475 199.56 24.5742 199.332 24.5742C199.039 24.5742 198.787 24.6637 198.575 24.8428C198.372 25.0137 198.201 25.2375 198.062 25.5142C197.932 25.7909 197.826 26.1082 197.745 26.4663C197.672 26.8162 197.615 27.1702 197.574 27.5283C197.534 27.8864 197.509 28.2323 197.501 28.5659C197.493 28.8914 197.489 29.1681 197.489 29.396L200.064 27.9189Z" fill="#E9566F"/>
</svg>
