<svg width="1632" height="1067" viewBox="0 0 1632 1067" fill="none" xmlns="http://www.w3.org/2000/svg">
<path fill-rule="evenodd" clip-rule="evenodd" d="M1159 173.016C1199.92 193.594 1239.92 215.761 1279 239.516C1305.45 259.29 1330.12 281.29 1353 305.516C1371.52 321.28 1389.85 337.28 1408 353.516C1421.49 364.755 1435.49 375.255 1450 385.016C1465.39 396.213 1482.06 405.046 1500 411.516C1508.65 413.104 1516.32 411.104 1523 405.516C1533.56 395.526 1543.06 384.693 1551.5 373.016C1554.13 370.306 1556.96 367.972 1560 366.016C1581.67 365.849 1603.34 366.016 1625 366.516C1626.75 367.835 1628.75 368.335 1631 368.016C1631.81 568.35 1631.81 768.684 1631 969.016C1608 969.183 1585 969.016 1562 968.516C1556.18 967.271 1550.84 964.938 1546 961.516C1535.53 950.894 1525.53 939.894 1516 928.516C1512.83 926.764 1509.83 924.764 1507 922.516C1498.26 920.522 1489.59 920.855 1481 923.516C1475.62 931.92 1469.29 939.586 1462 946.516C1456.92 949.053 1451.58 951.053 1446 952.516C1420.51 956.559 1395.17 961.226 1370 966.516C1329.94 969.166 1289.94 970.666 1250 971.016C1232 970.535 1214 971.368 1196 973.516C1195.18 982.271 1194.68 991.105 1194.5 1000.02C1189.38 1006.34 1182.88 1010.84 1175 1013.52C1157.16 1021.57 1138.82 1028.24 1120 1033.52C1068.79 1045.31 1017.13 1054.31 965 1060.52C916.957 1065.3 868.79 1067.14 820.5 1066.02C754.604 1067.93 689.104 1063.76 624 1053.52C593.064 1047.19 562.064 1041.19 531 1035.52C501.849 1028.94 474.183 1018.44 448 1004.02C447.002 994.706 446.668 985.373 447 976.016C447.17 974.694 446.837 973.527 446 972.516C401.394 971.063 356.894 969.896 312.5 969.016C271.911 964.963 231.411 959.796 191 953.516C183.038 952.609 175.371 950.609 168 947.516C162.974 942.299 158.808 936.466 155.5 930.016C149.641 921.613 141.641 918.613 131.5 921.016C125.893 920.896 120.393 921.396 115 922.516C103.054 934.462 91.054 946.462 79 958.516C75.3441 961.679 71.3441 964.345 67 966.516C62.0465 967.511 57.0465 968.178 52 968.516C34.6699 969.016 17.3365 969.183 0 969.016C0 768.683 0 568.349 0 368.016C24.9515 365.259 49.9515 364.759 75 366.516C88 380.183 101 393.849 114 407.516C120.136 412.116 126.803 413.116 134 410.516C142.2 408.081 149.867 404.581 157 400.016C169.112 392.788 181.112 385.288 193 377.516C203.388 369.462 214.054 361.795 225 354.516C258.565 325.954 290.565 295.621 321 263.516C341.869 246.139 364.202 230.973 388 218.016C426.056 196.654 465.056 177.487 505 160.516C537.464 148.69 570.13 138.357 603 129.516C610.748 128.589 618.415 127.256 626 125.516C626.556 125.133 626.889 124.633 627 124.016C716.039 105.888 806.039 100.721 897 108.516C943.803 113.344 990.14 120.677 1036 130.516C1077.67 142.572 1118.67 156.739 1159 173.016ZM692 136.016C694.027 135.854 696.027 136.02 698 136.516C698.951 137.233 699.117 138.067 698.5 139.016C694.059 142.452 689.893 146.286 686 150.516C681.492 153.269 677.159 156.269 673 159.516C668.032 165.817 662.366 171.483 656 176.516C657.216 179.446 658.549 182.279 660 185.016C658.666 188.86 656.332 192.027 653 194.516C641.146 199.563 628.812 202.897 616 204.516C613.054 205.322 610.388 206.655 608 208.516C616.554 207.102 625.22 206.769 634 207.516C640.184 210.599 640.517 214.266 635 218.516C621.078 226.58 606.078 231.08 590 232.016C591.051 224.694 593.218 217.694 596.5 211.016C605.256 191.942 616.756 174.775 631 159.516C648.744 144.88 669.078 137.047 692 136.016ZM931 137.016C954.374 135.303 975.374 141.803 994 156.516C1009.13 168.974 1021.3 183.808 1030.5 201.016C1035.55 210.442 1040.05 220.109 1044 230.016C1028.94 231.06 1014.6 228.227 1001 221.516C997.96 218.813 995.3 215.813 993 212.516C996.28 208.218 1000.45 207.052 1005.5 209.016C1006.45 208.611 1007.11 207.944 1007.5 207.016C1015.05 209.049 1022.71 210.716 1030.5 212.016C1031.76 211.666 1032.09 210.999 1031.5 210.016C1021.76 206.085 1011.59 203.918 1001 203.516C988.56 199.961 976.559 195.295 965 189.516C964.07 188.322 963.403 186.989 963 185.516C966.901 179.679 966.734 173.845 962.5 168.016C950.65 158.882 940.15 148.549 931 137.016ZM605 161.016C607.222 161.074 608.222 162.241 608 164.516C607.579 166.7 607.079 168.867 606.5 171.016C599.294 190.968 592.294 210.968 585.5 231.016C576.059 232.357 567.226 230.524 559 225.516C555.011 222.703 553.344 218.87 554 214.016C554.186 207.309 556.353 201.309 560.5 196.016C568.703 186.146 577.869 177.313 588 169.516C593.212 165.576 598.879 162.743 605 161.016ZM1024 164.016C1030.28 163.177 1035.95 164.677 1041 168.516C1051.09 175.934 1060.59 184.101 1069.5 193.016C1074 198.672 1078 204.672 1081.5 211.016C1082.87 215.953 1081.7 220.12 1078 223.516C1071.11 227.128 1063.78 229.295 1056 230.016C1053.59 230.11 1051.76 229.11 1050.5 227.016C1037.81 207.635 1028.98 186.635 1024 164.016ZM817.5 166.516C817.5 166.516 824.5 174.516 833 188.516C841.5 202.516 838.729 200.516 842.5 211.516C844.964 218.704 845.797 226.538 847 234.016C939.57 224.493 1017.07 254.493 1079.5 324.016C1101.59 349.75 1115.76 379.417 1122 413.016C1121.67 413.683 1121.33 414.349 1121 415.016C1115.35 415.009 1109.68 414.676 1104 414.016C1088.18 414.69 1072.35 415.357 1056.5 416.016C982.706 416.135 908.873 415.969 835 415.516C837.517 403.257 840.517 391.09 844 379.016C843.5 378.683 839.5 379.349 839 379.016C834.844 379.719 833.177 378.385 829 379.016C825.211 379.045 822.378 379.712 818.5 379.016C807.549 379.994 798.5 379.016 783.5 379.016C783.167 379.349 785.333 384.683 785 385.016C788.254 394.687 789.587 404.52 789 414.516C783.476 414.803 777.976 415.303 772.5 416.016C684.096 416.004 595.596 416.004 507 416.016C511.659 370.528 531.659 333.361 567 304.516C629.585 251.155 702.251 226.988 785 232.016C786.055 225.465 787.888 219.132 790.5 213.016C793.634 207.365 793.833 201.016 801 188.516C808.167 176.016 817.5 166.516 817.5 166.516ZM1103 179.016C1103.06 178.473 1103.39 178.14 1104 178.016C1121.96 187.328 1139.62 197.161 1157 207.516C1174.97 219.934 1185.47 237.101 1188.5 259.016C1189.83 270.398 1185.16 277.731 1174.5 281.016C1161.47 277.98 1151.13 270.98 1143.5 260.016C1139.1 253.95 1135.1 247.616 1131.5 241.016C1121.13 220.618 1111.63 199.951 1103 179.016ZM525 181.016C526.175 180.797 527.175 181.13 528 182.016C516.826 209.978 503.326 236.644 487.5 262.016C477.045 271.513 464.712 277.18 450.5 279.016C444.81 277.482 442.643 273.815 444 268.016C444.009 239.81 456.009 218.643 480 204.516C494.705 195.944 509.705 188.111 525 181.016ZM556 246.016C561.899 246.11 567.566 247.277 573 249.516C578.181 254.083 579.347 259.583 576.5 266.016C575.081 266.976 573.581 267.809 572 268.516C562.011 269.516 552.011 269.849 542 269.516C542.264 264.775 542.431 259.941 542.5 255.016C545.36 249.365 549.86 246.365 556 246.016ZM1074 246.016C1084.31 244.917 1091.81 248.917 1096.5 258.016C1097.31 262.576 1095.47 265.742 1091 267.516C1078.79 273.214 1067.63 271.714 1057.5 263.016C1056.04 256.776 1058.2 252.276 1064 249.516C1067.35 248.03 1070.68 246.863 1074 246.016ZM383 252.016C385.216 252.719 387.049 254.052 388.5 256.016C395.017 266.87 402.684 276.87 411.5 286.016C418.803 292.318 425.803 298.984 432.5 306.016C435.405 311.167 435.738 316.501 433.5 322.016C430.096 328.366 425.263 333.199 419 336.516C416.094 337.834 413.094 338.168 410 337.516C381.195 319.72 370.695 294.22 378.5 261.016C379.486 257.71 380.986 254.71 383 252.016ZM1241 252.016C1243.93 253.107 1246.09 255.107 1247.5 258.016C1259.84 285.674 1255 309.841 1233 330.516C1220.94 339.863 1210.11 338.697 1200.5 327.016C1196.16 317.421 1197.49 308.754 1204.5 301.016C1220.57 287.508 1232.74 271.175 1241 252.016ZM1119 255.016C1122.49 255.993 1125.32 257.993 1127.5 261.016C1137.4 275.585 1148.07 289.585 1159.5 303.016C1166.5 318.015 1168.83 333.681 1166.5 350.016C1162.34 354.091 1157.68 357.425 1152.5 360.016C1150.89 359.415 1149.56 358.415 1148.5 357.016C1145.5 352.349 1142.5 347.683 1139.5 343.016C1129.44 322.065 1119.27 301.231 1109 280.516C1109.58 274.72 1111.08 268.887 1113.5 263.016C1114.81 259.895 1116.64 257.229 1119 255.016ZM505 257.016C514.232 254.442 519.732 257.775 521.5 267.016C522.167 273.683 522.167 280.349 521.5 287.016C512.009 306.001 502.009 324.667 491.5 343.016C490.101 343.743 488.601 344.243 487 344.516C488.124 344.765 489.124 345.265 490 346.016C486.002 351.713 481.335 356.713 476 361.016C471.63 356.81 467.797 352.144 464.5 347.016C461.908 329.225 464.908 312.558 473.5 297.016C479.806 290.71 486.14 284.376 492.5 278.016C496.175 270.658 500.341 263.658 505 257.016ZM1310 303.016C1313.25 335.052 1302.92 362.219 1279 384.516C1270.37 389.11 1263.54 387.277 1258.5 379.016C1252.33 366.877 1252.66 354.877 1259.5 343.016C1271.96 324.05 1288.8 310.716 1310 303.016ZM324 305.016C333.906 307.8 343.239 311.967 352 317.516C359.543 324.391 366.376 331.891 372.5 340.016C378.408 349.558 380.741 359.892 379.5 371.016C374.43 379.727 366.763 384.394 356.5 385.016C351.445 384.489 347.445 382.155 344.5 378.016C336.206 364.094 329.539 349.427 324.5 334.016C321.862 325.86 320.862 317.527 321.5 309.016C322.162 307.532 322.996 306.199 324 305.016ZM1172 353.016C1185.8 350.655 1191.97 356.322 1190.5 370.016C1187.44 382.203 1183.77 394.203 1179.5 406.016C1167.98 416.052 1160.64 413.719 1157.5 399.016C1154.4 386.127 1155.74 373.794 1161.5 362.016C1164.6 358.402 1168.1 355.402 1172 353.016ZM449 354.016C456.78 352.269 462.947 354.603 467.5 361.016C472.71 368.147 475.21 376.147 475 385.016C474.5 392.016 474 399.016 473.5 406.016C473.455 408.85 472.621 411.35 471 413.516C465.996 413.326 460.996 412.659 456 411.516C453.119 410.265 451.286 408.099 450.5 405.016C446.203 393.296 443.037 381.296 441 369.016C440.812 362.386 443.479 357.386 449 354.016ZM1330 381.016C1331.84 381.72 1332.34 383.053 1331.5 385.016C1321.95 396.564 1311.12 406.731 1299 415.516C1295.84 416.929 1292.84 418.596 1290 420.516C1283 421.183 1276 421.183 1269 420.516C1271 405.161 1279.33 395.161 1294 390.516C1304.33 388.183 1314.67 385.849 1325 383.516C1326.99 383.142 1328.66 382.309 1330 381.016ZM300 384.016C300.949 383.364 302.115 383.03 303.5 383.016C320.062 386.282 336.562 389.782 353 393.516C354.987 394.835 356.154 396.668 356.5 399.016C356.833 403.349 357.167 407.683 357.5 412.016C359.71 413.265 361.876 413.098 364 411.516C381.106 393.072 401.772 387.738 426 395.516C432.48 403.226 431.146 408.893 422 412.516C416.168 414.793 410.168 416.46 404 417.516C390.049 419.179 376.049 420.179 362 420.516C358.084 420.974 354.25 421.808 350.5 423.016C330.613 413.961 313.78 400.961 300 384.016ZM1228 392.016C1244.38 393.122 1257.55 400.122 1267.5 413.016C1268 415.662 1268.16 418.329 1268 421.016C1253.65 420.543 1239.31 419.71 1225 418.516C1216.81 417.232 1209.15 414.565 1202 410.516C1196.99 406.076 1197.32 401.743 1203 397.516C1205 396.516 1207 395.516 1209 394.516C1215.47 393.587 1221.8 392.753 1228 392.016ZM225 453.016C337.234 453.949 449.401 454.949 561.5 456.016C707.781 456.005 853.781 456.005 999.5 456.016C1011.3 455.34 1023.14 454.673 1035 454.016C1112.08 454.77 1188.08 455.104 1263 455.016C1271.53 454.363 1280.03 453.696 1288.5 453.016C1385.98 454.086 1483.48 454.086 1581 453.016C1580.11 595.023 1580.11 739.023 1581 885.016C1280.78 885.528 981.117 885.862 682 886.016C655.667 885.349 629.333 884.683 603 884.016C576.133 884.84 549.133 884.84 522 884.016C518.466 884.647 514.966 885.314 511.5 886.016C357.498 885.873 203.331 885.873 49 886.016C49.3235 742.693 49.3235 598.86 49 454.516C107.835 454.349 166.501 453.849 225 453.016ZM1079 930.016C1080.81 931.131 1082.81 931.797 1085 932.016C1124.1 931.193 1163.6 931.193 1203.5 932.016C1206.67 931.849 1209.83 931.683 1213 931.516C1213.5 931.016 1214 930.516 1214.5 930.016C1217.24 930.798 1220.07 931.298 1223 931.516C1246.67 931.849 1270.33 932.183 1294 932.516C1297.47 932.394 1301 932.516 1304.5 932.516C1312 932.516 1308.88 936.867 1312 935.016C1312 935.016 1312.67 935.683 1313 936.016C1309.04 939.004 1305.04 942.004 1301 945.016C1300.21 944.585 1299.37 944.251 1298.5 944.016C1284.06 945.532 1269.56 946.199 1255 946.016C969.194 944.996 683.86 944.996 399 946.016C376.316 945.392 353.649 944.226 331 942.516C325.121 942.56 322.455 939.726 323 934.016C331.331 933.558 339.665 933.058 348 932.516C406.603 931.938 464.937 932.105 523 933.016C560.187 932.378 597.354 931.711 634.5 931.016C777.45 931.914 919.284 931.914 1060 931.016C1064.33 931.683 1068.67 932.349 1073 933.016C1075.55 932.745 1077.55 931.745 1079 930.016ZM1049 972.016C1066.36 971.33 1083.86 970.663 1101.5 970.016C1111.65 971.254 1121.81 971.254 1132 970.016C1134.21 969.928 1136.21 970.428 1138 971.516C1132.52 974.423 1126.85 977.09 1121 979.516C1101.24 992.277 1101.28 991.516 1079 1004.52C1069.02 1010.34 1049.19 1019.34 1038.5 1023.52C1024.49 1025.52 1001.99 1035.52 988 1037.52C982.749 1038.32 977.582 1038.15 972.5 1037.02C970.926 1038.36 969.093 1039.03 967 1039.02C964.73 1038.09 955.563 1041.26 953.5 1041.52C863.925 1045.73 781.425 1042.4 692 1038.52C690.229 1036.4 688.729 1036.57 687.5 1039.02C682.714 1037.4 677.881 1037.07 673 1038.02C660.626 1037.07 648.459 1036.07 636.5 1035.02C635.393 1035.1 634.393 1035.43 633.5 1036.02C621.779 1033.53 610 1035.02 555 1011.52C522.796 993.248 527 999.016 502 971.516C579.331 971.757 656.665 972.257 734 973.016C803.274 972.779 872.107 972.779 940.5 973.016C959.5 972.349 978.5 971.683 997.5 971.016C1009.34 972.171 1021.34 972.171 1033.5 971.016C1035.17 971.683 1036.83 972.349 1038.5 973.016C1041.73 970.677 1045.23 970.344 1049 972.016Z" fill="#FEFEFE"/>
<path d="M0 336.516H75L25 0.5L0 336.516Z" fill="#FEFEFE"/>
<path d="M1560 336.516H1631L1596.5 0.5L1560 336.516Z" fill="#FEFEFE"/>
<path fill-rule="evenodd" clip-rule="evenodd" d="M814 204.016C815.517 204.027 816.684 204.693 817.5 206.016C821.526 211.756 824.193 218.09 825.5 225.016C827.087 232.627 828.254 240.294 829 248.016C842.423 248.292 855.757 249.459 869 251.516C875.185 256.042 878.685 262.208 879.5 270.016C882.072 285.922 880.072 301.255 873.5 316.016C866.881 328.255 860.548 340.589 854.5 353.016C853.402 357.021 843.735 368.021 846.5 371.016C819.388 372.286 809.5 369.516 782 371.016C781.52 360.781 773.686 350.781 770.5 341.016C765.694 330.07 760.361 319.404 754.5 309.016C747.505 292.259 747.838 275.593 755.5 259.016C760.554 252.992 767.054 249.825 775 249.516C784.313 248.595 793.647 248.095 803 248.016C803.226 232.444 806.893 217.778 814 204.016Z" fill="#FEFFFE"/>
<path d="M189.783 780.271C189.783 782.143 189.946 783.934 190.271 785.643C190.678 787.27 191.411 788.694 192.469 789.915C193.608 791.136 195.114 792.112 196.985 792.845C198.938 793.577 201.461 793.943 204.554 793.943C209.03 793.943 213.139 792.682 216.883 790.159C220.626 787.555 223.841 784.259 226.526 780.271C229.212 776.202 231.287 771.686 232.752 766.722C234.217 761.676 234.949 756.671 234.949 751.707C234.949 744.301 233.932 737.791 231.897 732.176C229.944 726.479 227.177 721.678 223.597 717.771C220.016 713.865 215.784 710.854 210.901 708.738C206.019 706.541 200.729 705.28 195.032 704.954L197.474 698.729C201.054 698.891 204.472 698.403 207.728 697.264C210.983 696.124 213.831 694.131 216.272 691.282C218.795 688.434 220.789 684.609 222.254 679.808C223.719 674.925 224.451 668.821 224.451 661.497C224.451 656.533 223.841 652.057 222.62 648.069C221.399 644.082 219.772 640.745 217.737 638.06C215.784 635.293 213.465 633.177 210.779 631.712C208.175 630.247 205.49 629.515 202.723 629.515C201.014 629.515 199.345 629.718 197.718 630.125C196.172 630.532 194.788 631.224 193.567 632.2C192.428 633.177 191.492 634.479 190.76 636.106C190.109 637.653 189.783 639.606 189.783 641.966V780.271ZM192.225 619.505C215.825 619.505 233.159 623.208 244.227 630.613C255.376 637.938 260.95 648.639 260.95 662.718C260.95 666.217 260.543 669.432 259.729 672.361C258.997 675.291 258.021 677.977 256.8 680.418C255.579 682.778 254.196 684.894 252.649 686.766C251.103 688.637 249.516 690.265 247.889 691.648C244.064 694.985 239.751 697.589 234.949 699.461V701.292C242.518 702.187 249.313 704.466 255.335 708.128C257.858 709.674 260.34 711.627 262.781 713.987C265.223 716.266 267.379 719.074 269.251 722.41C271.204 725.665 272.75 729.49 273.89 733.885C275.11 738.198 275.721 743.162 275.721 748.777C275.721 757.322 274.174 765.013 271.082 771.849C267.99 778.685 263.392 784.503 257.288 789.305C251.185 794.025 243.576 797.646 234.461 800.169C225.346 802.692 214.767 803.953 202.723 803.953C191.574 803.953 182.5 803.261 175.501 801.878C168.502 800.494 163.05 798.501 159.144 795.896C155.237 793.211 152.552 789.996 151.087 786.253C149.703 782.509 149.012 778.278 149.012 773.558V640.013C149.012 635.537 145.919 633.299 139.734 633.299C135.258 633.299 130.701 633.991 126.062 635.374C121.505 636.676 117.355 638.507 113.611 640.867C109.949 643.146 106.938 645.913 104.578 649.168C102.218 652.342 101.038 655.8 101.038 659.544C101.038 662.148 101.364 664.223 102.015 665.77C102.747 667.316 103.561 668.496 104.456 669.31C105.351 670.042 106.246 670.53 107.142 670.774C108.118 670.937 108.81 671.019 109.217 671.019C111.251 671.019 112.92 670.693 114.222 670.042C115.524 669.31 116.704 668.577 117.762 667.845C118.82 667.031 119.796 666.299 120.691 665.647C121.668 664.915 122.767 664.549 123.987 664.549C124.964 664.549 125.981 664.793 127.039 665.281C128.178 665.688 129.196 666.38 130.091 667.356C131.067 668.333 131.881 669.635 132.532 671.263C133.183 672.809 133.509 674.721 133.509 677C133.509 680.255 132.858 683.063 131.556 685.423C130.335 687.783 128.707 689.777 126.673 691.404C124.72 692.951 122.441 694.131 119.837 694.944C117.314 695.677 114.791 696.043 112.269 696.043C108.362 696.043 104.822 695.392 101.648 694.09C98.556 692.706 95.9111 690.835 93.7139 688.475C91.5166 686.115 89.8483 683.348 88.709 680.174C87.5697 677 87 673.623 87 670.042C87 663.287 88.2614 657.347 90.7842 652.22C93.307 647.011 96.847 642.535 101.404 638.792C106.043 635.049 111.577 631.956 118.006 629.515C124.435 626.992 131.556 624.998 139.368 623.533C147.181 622.068 155.522 621.051 164.393 620.481C173.344 619.83 182.622 619.505 192.225 619.505ZM330.042 745.97C330.042 748.574 330.408 751.422 331.141 754.515C331.954 757.526 333.094 760.577 334.559 763.67C336.023 766.762 337.814 769.733 339.93 772.581C342.127 775.348 344.609 777.83 347.376 780.027C350.224 782.225 353.357 783.974 356.775 785.276C360.193 786.578 363.937 787.229 368.006 787.229C370.854 787.229 373.499 786.904 375.94 786.253C378.382 785.602 380.66 784.707 382.776 783.567C384.892 782.428 386.927 781.126 388.88 779.661C390.833 778.115 392.786 776.487 394.739 774.778L397.791 777.708C395.919 780.231 393.519 782.998 390.589 786.009C387.659 789.02 384.119 791.868 379.969 794.554C375.818 797.158 370.976 799.355 365.442 801.146C359.909 802.854 353.602 803.709 346.521 803.709C339.441 803.709 332.524 802.448 325.77 799.925C319.096 797.321 313.156 793.455 307.947 788.328C302.739 783.201 298.548 776.813 295.374 769.163C292.282 761.513 290.735 752.562 290.735 742.308C290.735 734.902 291.671 728.107 293.543 721.922C295.415 715.737 297.938 710.162 301.111 705.198C304.367 700.234 308.11 695.88 312.342 692.137C316.655 688.393 321.172 685.301 325.892 682.859C330.612 680.337 335.413 678.465 340.296 677.244C345.26 675.942 350.021 675.291 354.578 675.291C360.6 675.291 365.849 675.942 370.325 677.244C374.801 678.546 378.504 680.296 381.434 682.493C384.445 684.69 386.683 687.254 388.147 690.184C389.612 693.032 390.345 696.043 390.345 699.217C390.345 703.042 389.246 706.5 387.049 709.593C384.852 712.604 381.922 715.249 378.26 717.527L330.042 745.97ZM354.578 721.189C355.636 720.538 356.491 719.928 357.142 719.358C357.874 718.707 358.444 717.975 358.851 717.161C359.257 716.266 359.542 715.208 359.705 713.987C359.949 712.685 360.071 711.098 360.071 709.227C360.071 707.192 359.827 704.954 359.339 702.513C358.932 699.99 358.2 697.63 357.142 695.433C356.084 693.235 354.741 691.404 353.113 689.939C351.486 688.475 349.533 687.742 347.254 687.742C344.324 687.742 341.801 688.637 339.686 690.428C337.651 692.137 335.942 694.375 334.559 697.142C333.257 699.909 332.199 703.082 331.385 706.663C330.652 710.162 330.083 713.702 329.676 717.283C329.269 720.864 329.025 724.323 328.943 727.659C328.862 730.914 328.821 733.681 328.821 735.96L354.578 721.189ZM453.211 791.014C453.211 792.072 453.007 793.374 452.601 794.92C452.275 796.385 451.421 797.809 450.037 799.192C448.735 800.494 446.823 801.593 444.3 802.488C441.777 803.465 438.359 803.953 434.046 803.953C429.733 803.953 426.355 803.424 423.914 802.366C421.473 801.39 419.642 800.21 418.421 798.826C417.2 797.443 416.427 796.019 416.102 794.554C415.857 793.089 415.735 791.909 415.735 791.014V696.775C415.735 694.415 415.166 692.381 414.026 690.672C412.968 688.882 411.137 687.986 408.533 687.986C407.15 687.986 405.97 688.23 404.993 688.719C404.017 689.207 402.959 689.899 401.819 690.794L399.256 687.742C401.128 686.196 403.203 684.69 405.481 683.226C407.841 681.679 410.364 680.337 413.05 679.197C415.735 678.058 418.624 677.122 421.717 676.39C424.809 675.657 428.064 675.291 431.482 675.291C436.772 675.291 440.882 676.023 443.812 677.488C446.741 678.872 448.898 680.621 450.281 682.737C451.665 684.772 452.479 686.969 452.723 689.329C453.048 691.689 453.211 693.764 453.211 695.555V791.014ZM411.951 647.459C411.951 645.18 412.439 643.024 413.416 640.989C414.474 638.873 415.898 637.042 417.688 635.496C419.56 633.95 421.676 632.729 424.036 631.834C426.478 630.939 429.122 630.491 431.971 630.491C434.738 630.491 437.301 630.939 439.661 631.834C442.103 632.729 444.218 633.95 446.009 635.496C447.799 637.042 449.183 638.873 450.159 640.989C451.217 643.024 451.746 645.18 451.746 647.459C451.746 649.819 451.217 652.016 450.159 654.051C449.183 656.085 447.799 657.876 446.009 659.422C444.218 660.887 442.103 662.067 439.661 662.962C437.301 663.857 434.738 664.305 431.971 664.305C429.122 664.305 426.478 663.857 424.036 662.962C421.676 662.067 419.56 660.887 417.688 659.422C415.898 657.876 414.474 656.085 413.416 654.051C412.439 652.016 411.951 649.819 411.951 647.459ZM523.035 701.048C526.128 696.328 529.424 692.055 532.923 688.23C534.388 686.603 535.975 685.016 537.684 683.47C539.393 681.924 541.142 680.54 542.933 679.319C544.804 678.099 546.717 677.122 548.67 676.39C550.623 675.657 552.576 675.291 554.529 675.291C558.68 675.291 561.935 676.552 564.295 679.075C566.655 681.517 567.835 684.975 567.835 689.451C567.835 692.218 567.591 694.904 567.103 697.508C566.696 700.031 565.841 703.123 564.539 706.785H561.121C560.633 704.262 559.493 702.187 557.703 700.56C555.913 698.851 553.309 697.996 549.891 697.996C547.368 697.996 544.886 698.484 542.444 699.461C540.003 700.356 537.602 701.495 535.242 702.879C532.964 704.262 530.766 705.768 528.65 707.396C526.616 709.023 524.744 710.569 523.035 712.034V791.258C523.035 792.316 522.872 793.577 522.547 795.042C522.221 796.507 521.408 797.89 520.105 799.192C518.885 800.494 517.013 801.593 514.49 802.488C512.049 803.465 508.672 803.953 504.358 803.953C500.045 803.953 496.627 803.424 494.104 802.366C491.663 801.39 489.791 800.21 488.489 798.826C487.187 797.443 486.373 796.019 486.048 794.554C485.722 793.089 485.56 791.909 485.56 791.014V696.775C485.56 694.415 484.99 692.381 483.851 690.672C482.793 688.882 480.962 687.986 478.357 687.986C476.974 687.986 475.794 688.23 474.817 688.719C473.841 689.207 472.783 689.899 471.644 690.794L469.08 687.742C470.952 686.196 473.027 684.69 475.306 683.226C477.666 681.679 480.188 680.337 482.874 679.197C485.56 678.058 488.449 677.122 491.541 676.39C494.633 675.657 497.889 675.291 501.307 675.291C504.806 675.291 507.776 675.779 510.218 676.756C512.741 677.651 514.775 678.872 516.321 680.418C517.949 681.883 519.21 683.551 520.105 685.423C521.001 687.295 521.652 689.207 522.059 691.16C522.547 693.032 522.832 694.863 522.913 696.653C522.994 698.362 523.035 699.827 523.035 701.048ZM690.149 780.76C690.149 781.492 690.19 782.306 690.271 783.201C690.353 784.015 690.556 784.829 690.882 785.643C691.207 786.375 691.696 786.985 692.347 787.474C692.998 787.962 693.934 788.206 695.154 788.206C696.701 788.206 698.084 787.677 699.305 786.619C700.525 785.48 701.665 784.34 702.723 783.201L705.652 785.765C704.432 787.474 702.885 789.386 701.014 791.502C699.223 793.536 697.026 795.49 694.422 797.361C691.818 799.233 688.847 800.779 685.511 802C682.174 803.302 678.39 803.953 674.158 803.953C670.577 803.953 667.444 803.465 664.759 802.488C662.155 801.593 659.917 800.372 658.045 798.826C656.255 797.199 654.912 795.327 654.017 793.211C653.121 791.014 652.674 788.694 652.674 786.253V780.76C648.605 785.154 644.332 789.02 639.856 792.356C637.903 793.821 635.828 795.245 633.631 796.629C631.434 798.012 629.155 799.274 626.795 800.413C624.435 801.471 621.993 802.326 619.471 802.977C616.948 803.628 614.425 803.953 611.902 803.953C607.02 803.953 602.828 803.099 599.329 801.39C595.911 799.599 593.144 797.28 591.028 794.432C588.912 791.583 587.366 788.369 586.39 784.788C585.413 781.207 584.925 777.627 584.925 774.046V698.484C584.925 697.752 584.884 696.979 584.803 696.165C584.721 695.27 584.518 694.456 584.192 693.724C583.867 692.91 583.379 692.259 582.728 691.771C582.076 691.282 581.141 691.038 579.92 691.038C578.455 691.038 577.072 691.608 575.77 692.747C574.549 693.805 573.45 694.904 572.474 696.043L569.422 693.479C570.643 691.771 572.148 689.899 573.938 687.864C575.81 685.748 578.048 683.755 580.652 681.883C583.257 680.011 586.227 678.465 589.563 677.244C592.981 675.942 596.766 675.291 600.916 675.291C604.497 675.291 607.63 675.779 610.315 676.756C613.001 677.651 615.239 678.912 617.029 680.54C618.82 682.086 620.162 683.958 621.058 686.155C621.953 688.271 622.4 690.55 622.4 692.991V774.534C622.4 775.674 622.563 776.854 622.889 778.074C623.296 779.214 623.825 780.271 624.476 781.248C625.208 782.225 626.103 783.038 627.161 783.689C628.219 784.259 629.48 784.544 630.945 784.544C633.305 784.544 635.665 783.934 638.025 782.713C640.385 781.492 642.542 780.068 644.495 778.44C646.448 776.731 648.117 775.063 649.5 773.436C650.965 771.808 652.023 770.587 652.674 769.773V698.484C652.674 697.752 652.633 696.979 652.552 696.165C652.47 695.27 652.267 694.456 651.941 693.724C651.616 692.91 651.128 692.259 650.477 691.771C649.826 691.282 648.89 691.038 647.669 691.038C646.204 691.038 644.821 691.608 643.519 692.747C642.298 693.805 641.199 694.904 640.223 696.043L637.171 693.479C638.392 691.771 639.897 689.899 641.688 687.864C643.559 685.748 645.797 683.755 648.401 681.883C651.006 680.011 653.976 678.465 657.312 677.244C660.73 675.942 664.515 675.291 668.665 675.291C672.246 675.291 675.379 675.779 678.064 676.756C680.75 677.651 682.988 678.912 684.778 680.54C686.569 682.086 687.911 683.958 688.807 686.155C689.702 688.271 690.149 690.55 690.149 692.991V780.76ZM761.927 685.789V775.999C761.927 780.312 762.741 783.323 764.368 785.032C765.996 786.66 768.234 787.474 771.082 787.474C773.279 787.474 775.232 786.863 776.941 785.643C778.65 784.422 780.115 783.038 781.336 781.492C782.801 779.783 784.062 777.789 785.12 775.511L788.904 777.22C787.684 779.824 786.219 782.672 784.51 785.765C782.882 788.857 780.685 791.746 777.918 794.432C775.151 797.036 771.652 799.233 767.42 801.023C763.27 802.814 758.021 803.709 751.673 803.709C748.092 803.709 744.633 803.18 741.297 802.122C738.042 801.064 735.112 799.396 732.508 797.117C729.985 794.839 727.951 791.99 726.404 788.572C724.858 785.154 724.085 781.045 724.085 776.243V685.789H710.413V677C712.692 677 715.866 676.43 719.935 675.291C724.004 674.07 728.154 672.076 732.386 669.31C736.699 666.543 740.687 662.84 744.349 658.201C748.011 653.562 750.615 647.825 752.161 640.989H761.927V677H781.824C788.335 677 791.59 675.901 791.59 673.704C791.59 672.89 791.183 672.361 790.369 672.117C789.555 671.792 788.619 671.425 787.562 671.019C786.585 670.53 785.69 669.879 784.876 669.065C784.062 668.252 783.655 666.909 783.655 665.037C783.655 662.758 784.347 660.968 785.73 659.666C787.195 658.364 789.067 657.713 791.346 657.713C792.811 657.713 794.072 658.038 795.13 658.689C796.269 659.259 797.205 660.073 797.938 661.131C798.67 662.107 799.199 663.247 799.524 664.549C799.931 665.851 800.135 667.153 800.135 668.455C800.135 673.745 798.589 677.977 795.496 681.15C792.485 684.243 787.602 685.789 780.848 685.789H761.927ZM887.537 708.494H909.754V639.036C909.754 637.246 909.55 635.822 909.144 634.764C908.737 633.706 908.167 632.892 907.435 632.322C906.702 631.671 905.807 631.264 904.749 631.102C903.772 630.857 902.674 630.735 901.453 630.735C899.663 630.735 897.425 631.02 894.739 631.59C892.135 632.16 889.368 633.014 886.438 634.153C883.509 635.293 880.538 636.717 877.527 638.426C874.598 640.053 871.953 641.925 869.593 644.041C867.314 646.157 865.442 648.517 863.978 651.121C862.513 653.725 861.78 656.533 861.78 659.544C861.78 662.148 862.106 664.223 862.757 665.77C863.489 667.316 864.303 668.496 865.198 669.31C866.093 670.042 866.989 670.53 867.884 670.774C868.86 670.937 869.552 671.019 869.959 671.019C871.993 671.019 873.662 670.693 874.964 670.042C876.266 669.31 877.446 668.577 878.504 667.845C879.562 667.031 880.538 666.299 881.434 665.647C882.41 664.915 883.509 664.549 884.729 664.549C885.706 664.549 886.723 664.793 887.781 665.281C888.921 665.688 889.938 666.38 890.833 667.356C891.81 668.333 892.623 669.635 893.274 671.263C893.925 672.809 894.251 674.721 894.251 677C894.251 680.255 893.6 683.063 892.298 685.423C891.077 687.783 889.45 689.777 887.415 691.404C885.462 692.951 883.183 694.131 880.579 694.944C878.056 695.677 875.534 696.043 873.011 696.043C869.104 696.043 865.564 695.392 862.391 694.09C859.298 692.706 856.653 690.835 854.456 688.475C852.259 686.115 850.59 683.348 849.451 680.174C848.312 677 847.742 673.623 847.742 670.042C847.742 664.427 848.759 659.3 850.794 654.661C852.828 649.941 855.595 645.709 859.095 641.966C862.675 638.222 866.826 634.967 871.546 632.2C876.347 629.352 881.515 626.992 887.049 625.12C892.583 623.248 898.361 621.865 904.383 620.97C910.405 619.993 916.427 619.505 922.449 619.505C929.122 619.505 934.29 620.156 937.952 621.458C941.696 622.679 944.422 624.184 946.131 625.975C947.921 627.765 948.979 629.637 949.305 631.59C949.63 633.543 949.793 635.171 949.793 636.473V708.494H994.715V649.778C994.715 636.351 996.465 624.917 999.964 615.477C1003.46 606.036 1007.98 598.346 1013.51 592.405C1019.05 586.383 1025.23 582.029 1032.07 579.344C1038.9 576.577 1045.7 575.193 1052.45 575.193C1057.09 575.193 1061.49 575.56 1065.64 576.292C1069.87 576.943 1073.53 577.96 1076.62 579.344C1079.8 580.727 1082.32 582.477 1084.19 584.593C1086.06 586.627 1087 589.028 1087 591.795C1087 593.016 1086.8 594.196 1086.39 595.335C1086.06 596.393 1085.58 597.369 1084.92 598.265C1084.27 599.16 1083.5 599.892 1082.61 600.462C1081.79 600.95 1080.94 601.194 1080.04 601.194C1078.58 601.194 1077.28 600.747 1076.14 599.852C1075 598.956 1073.9 597.858 1072.84 596.556C1071.86 595.172 1070.89 593.707 1069.91 592.161C1068.93 590.534 1067.83 589.069 1066.61 587.767C1065.39 586.383 1064.01 585.244 1062.46 584.349C1060.92 583.453 1059.09 583.006 1056.97 583.006C1052.01 583.006 1048.06 584.389 1045.13 587.156C1042.2 589.842 1039.96 593.829 1038.42 599.119C1036.87 604.327 1035.85 610.838 1035.36 618.65C1034.96 626.463 1034.75 635.415 1034.75 645.506V708.494H1059.29V719.236H1034.75V793.455C1034.75 795.815 1035.24 797.728 1036.22 799.192C1037.28 800.576 1038.86 801.268 1040.98 801.268C1043.26 801.268 1045.37 800.861 1047.33 800.047C1049.28 799.233 1050.99 798.46 1052.45 797.728L1054.53 802.244C1052.74 803.465 1050.62 804.726 1048.18 806.028C1045.82 807.412 1043.18 808.673 1040.25 809.812C1037.4 811.033 1034.31 812.01 1030.97 812.742C1027.71 813.556 1024.3 813.963 1020.72 813.963C1015.18 813.963 1010.71 813.23 1007.29 811.766C1003.87 810.301 1001.23 808.348 999.354 805.906C997.482 803.546 996.22 800.861 995.569 797.85C995 794.839 994.715 791.787 994.715 788.694V719.236H949.793V780.027C949.793 791.095 947.758 800.739 943.689 808.958C939.702 817.177 934.209 824.013 927.21 829.466C920.211 835 911.951 839.109 902.43 841.795C892.99 844.562 882.858 845.945 872.034 845.945C867.884 845.945 863.896 845.579 860.071 844.847C856.246 844.196 852.869 843.26 849.939 842.039C847.01 840.818 844.69 839.354 842.981 837.645C841.191 836.017 840.296 834.227 840.296 832.273C840.296 830.809 840.499 829.303 840.906 827.757C841.313 826.292 841.924 824.949 842.737 823.729C843.551 822.508 844.568 821.491 845.789 820.677C846.928 819.863 848.23 819.456 849.695 819.456C850.59 819.456 851.364 819.904 852.015 820.799C852.747 821.694 853.479 822.793 854.212 824.095C854.944 825.478 855.758 826.943 856.653 828.489C857.63 830.035 858.851 831.46 860.315 832.762C861.862 834.145 863.693 835.285 865.809 836.18C867.924 837.075 870.569 837.522 873.743 837.522C880.009 837.522 885.381 836.383 889.856 834.104C894.414 831.826 898.157 828.611 901.087 824.461C904.017 820.311 906.173 815.346 907.557 809.568C909.021 803.872 909.754 797.605 909.754 790.77V719.236H887.537V708.494ZM1071.99 739.5C1071.99 728.839 1073.53 719.521 1076.62 711.546C1079.72 703.489 1083.83 696.775 1088.95 691.404C1094.16 686.033 1100.18 682.005 1107.02 679.319C1113.86 676.634 1121.02 675.291 1128.5 675.291C1135.99 675.291 1143.15 676.552 1149.99 679.075C1156.82 681.517 1162.81 685.301 1167.93 690.428C1173.14 695.555 1177.29 702.065 1180.38 709.959C1183.48 717.771 1185.02 727.049 1185.02 737.791C1185.02 748.452 1183.48 757.892 1180.38 766.111C1177.29 774.331 1173.14 781.248 1167.93 786.863C1162.81 792.479 1156.82 796.751 1149.99 799.681C1143.15 802.529 1135.99 803.953 1128.5 803.953C1121.02 803.953 1113.86 802.61 1107.02 799.925C1100.18 797.158 1094.16 793.089 1088.95 787.718C1083.83 782.347 1079.72 775.633 1076.62 767.576C1073.53 759.52 1071.99 750.161 1071.99 739.5ZM1147.06 738.279C1147.06 731.769 1146.81 725.503 1146.33 719.48C1145.92 713.377 1145.06 707.965 1143.76 703.245C1142.46 698.525 1140.59 694.782 1138.15 692.015C1135.71 689.166 1132.49 687.742 1128.5 687.742C1124.52 687.742 1121.3 689.248 1118.86 692.259C1116.42 695.188 1114.55 699.095 1113.25 703.978C1111.94 708.779 1111.09 714.272 1110.68 720.457C1110.27 726.642 1110.07 732.99 1110.07 739.5C1110.07 746.01 1110.27 752.399 1110.68 758.665C1111.09 764.85 1111.94 770.384 1113.25 775.267C1114.55 780.149 1116.42 784.096 1118.86 787.107C1121.3 790.037 1124.52 791.502 1128.5 791.502C1132.49 791.502 1135.71 789.956 1138.15 786.863C1140.59 783.771 1142.46 779.702 1143.76 774.656C1145.06 769.611 1145.92 763.914 1146.33 757.566C1146.81 751.219 1147.06 744.79 1147.06 738.279ZM1314.66 780.76C1314.66 781.492 1314.7 782.306 1314.78 783.201C1314.86 784.015 1315.07 784.829 1315.39 785.643C1315.72 786.375 1316.21 786.985 1316.86 787.474C1317.51 787.962 1318.45 788.206 1319.67 788.206C1321.21 788.206 1322.6 787.677 1323.82 786.619C1325.04 785.48 1326.18 784.34 1327.23 783.201L1330.16 785.765C1328.94 787.474 1327.4 789.386 1325.53 791.502C1323.74 793.536 1321.54 795.49 1318.93 797.361C1316.33 799.233 1313.36 800.779 1310.02 802C1306.69 803.302 1302.9 803.953 1298.67 803.953C1295.09 803.953 1291.96 803.465 1289.27 802.488C1286.67 801.593 1284.43 800.372 1282.56 798.826C1280.77 797.199 1279.42 795.327 1278.53 793.211C1277.63 791.014 1277.19 788.694 1277.19 786.253V780.76C1273.12 785.154 1268.84 789.02 1264.37 792.356C1262.42 793.821 1260.34 795.245 1258.14 796.629C1255.95 798.012 1253.67 799.274 1251.31 800.413C1248.95 801.471 1246.51 802.326 1243.98 802.977C1241.46 803.628 1238.94 803.953 1236.41 803.953C1231.53 803.953 1227.34 803.099 1223.84 801.39C1220.42 799.599 1217.66 797.28 1215.54 794.432C1213.42 791.583 1211.88 788.369 1210.9 784.788C1209.92 781.207 1209.44 777.627 1209.44 774.046V698.484C1209.44 697.752 1209.4 696.979 1209.31 696.165C1209.23 695.27 1209.03 694.456 1208.7 693.724C1208.38 692.91 1207.89 692.259 1207.24 691.771C1206.59 691.282 1205.65 691.038 1204.43 691.038C1202.97 691.038 1201.58 691.608 1200.28 692.747C1199.06 693.805 1197.96 694.904 1196.99 696.043L1193.93 693.479C1195.15 691.771 1196.66 689.899 1198.45 687.864C1200.32 685.748 1202.56 683.755 1205.16 681.883C1207.77 680.011 1210.74 678.465 1214.08 677.244C1217.49 675.942 1221.28 675.291 1225.43 675.291C1229.01 675.291 1232.14 675.779 1234.83 676.756C1237.51 677.651 1239.75 678.912 1241.54 680.54C1243.33 682.086 1244.67 683.958 1245.57 686.155C1246.46 688.271 1246.91 690.55 1246.91 692.991V774.534C1246.91 775.674 1247.07 776.854 1247.4 778.074C1247.81 779.214 1248.34 780.271 1248.99 781.248C1249.72 782.225 1250.61 783.038 1251.67 783.689C1252.73 784.259 1253.99 784.544 1255.46 784.544C1257.82 784.544 1260.18 783.934 1262.54 782.713C1264.9 781.492 1267.05 780.068 1269.01 778.44C1270.96 776.731 1272.63 775.063 1274.01 773.436C1275.48 771.808 1276.53 770.587 1277.19 769.773V698.484C1277.19 697.752 1277.14 696.979 1277.06 696.165C1276.98 695.27 1276.78 694.456 1276.45 693.724C1276.13 692.91 1275.64 692.259 1274.99 691.771C1274.34 691.282 1273.4 691.038 1272.18 691.038C1270.72 691.038 1269.33 691.608 1268.03 692.747C1266.81 693.805 1265.71 694.904 1264.73 696.043L1261.68 693.479C1262.9 691.771 1264.41 689.899 1266.2 687.864C1268.07 685.748 1270.31 683.755 1272.91 681.883C1275.52 680.011 1278.49 678.465 1281.82 677.244C1285.24 675.942 1289.03 675.291 1293.18 675.291C1296.76 675.291 1299.89 675.779 1302.58 676.756C1305.26 677.651 1307.5 678.912 1309.29 680.54C1311.08 682.086 1312.42 683.958 1313.32 686.155C1314.21 688.271 1314.66 690.55 1314.66 692.991V780.76ZM1386.07 685.057C1384.2 685.057 1382.41 685.301 1380.7 685.789C1379.07 686.277 1377.61 687.091 1376.31 688.23C1375 689.288 1373.99 690.672 1373.25 692.381C1372.52 694.008 1372.16 695.962 1372.16 698.24C1372.16 701.414 1373.3 704.588 1375.57 707.762C1377.93 710.854 1380.82 714.109 1384.24 717.527C1387.74 720.864 1391.48 724.363 1395.47 728.025C1399.54 731.606 1403.28 735.431 1406.7 739.5C1410.2 743.488 1413.09 747.76 1415.37 752.317C1417.73 756.875 1418.91 761.757 1418.91 766.966C1418.91 772.825 1417.89 778.034 1415.86 782.591C1413.9 787.148 1411.06 791.014 1407.31 794.188C1403.65 797.361 1399.17 799.803 1393.88 801.512C1388.68 803.139 1382.86 803.953 1376.43 803.953C1370.81 803.953 1365.73 803.18 1361.17 801.634C1356.61 800.006 1352.54 798.053 1348.96 795.774C1345.46 793.414 1342.45 790.932 1339.93 788.328C1337.41 785.724 1335.45 783.364 1334.07 781.248L1338.34 778.196C1339.4 779.417 1340.74 780.76 1342.37 782.225C1344 783.608 1345.79 784.91 1347.74 786.131C1349.78 787.352 1351.93 788.369 1354.21 789.183C1356.49 789.915 1358.81 790.281 1361.17 790.281C1367.03 790.281 1371.83 788.898 1375.57 786.131C1379.32 783.283 1381.19 779.091 1381.19 773.558C1381.19 770.465 1380.17 767.291 1378.14 764.036C1376.1 760.7 1373.54 757.282 1370.45 753.782C1367.35 750.283 1364.02 746.661 1360.44 742.918C1356.86 739.174 1353.52 735.309 1350.43 731.321C1347.34 727.334 1344.77 723.224 1342.74 718.992C1340.7 714.76 1339.69 710.366 1339.69 705.809C1339.69 700.682 1340.7 696.206 1342.74 692.381C1344.85 688.556 1347.62 685.382 1351.04 682.859C1354.54 680.337 1358.48 678.465 1362.88 677.244C1367.35 675.942 1371.95 675.291 1376.67 675.291C1382.13 675.291 1387.09 675.779 1391.57 676.756C1396.04 677.732 1399.87 679.238 1403.04 681.272C1406.3 683.226 1408.78 685.708 1410.49 688.719C1412.28 691.73 1413.17 695.229 1413.17 699.217C1413.17 702.309 1412.15 704.995 1410.12 707.273C1408.09 709.552 1405.24 710.691 1401.58 710.691C1398.08 710.691 1395.39 709.959 1393.52 708.494C1391.73 706.948 1390.83 704.873 1390.83 702.269C1390.83 700.56 1391.24 699.217 1392.05 698.24C1392.95 697.264 1393.93 696.491 1394.98 695.921C1396.04 695.27 1396.98 694.741 1397.79 694.334C1398.69 693.846 1399.13 693.235 1399.13 692.503C1399.13 690.224 1397.91 688.434 1395.47 687.132C1393.03 685.748 1389.9 685.057 1386.07 685.057ZM1473.11 745.97C1473.11 748.574 1473.47 751.422 1474.21 754.515C1475.02 757.526 1476.16 760.577 1477.62 763.67C1479.09 766.762 1480.88 769.733 1483 772.581C1485.19 775.348 1487.68 777.83 1490.44 780.027C1493.29 782.225 1496.42 783.974 1499.84 785.276C1503.26 786.578 1507 787.229 1511.07 787.229C1513.92 787.229 1516.57 786.904 1519.01 786.253C1521.45 785.602 1523.73 784.707 1525.84 783.567C1527.96 782.428 1529.99 781.126 1531.95 779.661C1533.9 778.115 1535.85 776.487 1537.81 774.778L1540.86 777.708C1538.99 780.231 1536.58 782.998 1533.66 786.009C1530.73 789.02 1527.19 791.868 1523.04 794.554C1518.88 797.158 1514.04 799.355 1508.51 801.146C1502.97 802.854 1496.67 803.709 1489.59 803.709C1482.51 803.709 1475.59 802.448 1468.84 799.925C1462.16 797.321 1456.22 793.455 1451.01 788.328C1445.81 783.201 1441.61 776.813 1438.44 769.163C1435.35 761.513 1433.8 752.562 1433.8 742.308C1433.8 734.902 1434.74 728.107 1436.61 721.922C1438.48 715.737 1441 710.162 1444.18 705.198C1447.43 700.234 1451.18 695.88 1455.41 692.137C1459.72 688.393 1464.24 685.301 1468.96 682.859C1473.68 680.337 1478.48 678.465 1483.36 677.244C1488.33 675.942 1493.09 675.291 1497.64 675.291C1503.67 675.291 1508.92 675.942 1513.39 677.244C1517.87 678.546 1521.57 680.296 1524.5 682.493C1527.51 684.69 1529.75 687.254 1531.21 690.184C1532.68 693.032 1533.41 696.043 1533.41 699.217C1533.41 703.042 1532.31 706.5 1530.12 709.593C1527.92 712.604 1524.99 715.249 1521.33 717.527L1473.11 745.97ZM1497.64 721.189C1498.7 720.538 1499.56 719.928 1500.21 719.358C1500.94 718.707 1501.51 717.975 1501.92 717.161C1502.32 716.266 1502.61 715.208 1502.77 713.987C1503.02 712.685 1503.14 711.098 1503.14 709.227C1503.14 707.192 1502.89 704.954 1502.41 702.513C1502 699.99 1501.27 697.63 1500.21 695.433C1499.15 693.235 1497.81 691.404 1496.18 689.939C1494.55 688.475 1492.6 687.742 1490.32 687.742C1487.39 687.742 1484.87 688.637 1482.75 690.428C1480.72 692.137 1479.01 694.375 1477.62 697.142C1476.32 699.909 1475.26 703.082 1474.45 706.663C1473.72 710.162 1473.15 713.702 1472.74 717.283C1472.34 720.864 1472.09 724.323 1472.01 727.659C1471.93 730.914 1471.89 733.681 1471.89 735.96L1497.64 721.189Z" fill="white"/>
<rect x="67.5" y="477.5" width="1489" height="388" stroke="white" stroke-width="5"/>
<path d="M227 517H1376.5L1388 547H214L227 517Z" fill="white"/>
<path d="M214 503.5L1391 503.5" stroke="white" stroke-width="5"/>
</svg>
