<?xml version="1.0" encoding="UTF-8"?>
<!DOCTYPE svg PUBLIC "-//W3C//DTD SVG 1.1//EN" "http://www.w3.org/Graphics/SVG/1.1/DTD/svg11.dtd">
<svg xmlns="http://www.w3.org/2000/svg" version="1.1" width="1668px" height="1023px" style="shape-rendering:geometricPrecision; text-rendering:geometricPrecision; image-rendering:optimizeQuality; fill-rule:evenodd; clip-rule:evenodd" xmlns:xlink="http://www.w3.org/1999/xlink">
<g><path style="opacity:0.004" fill="#1d201f" d="M 766.5,15.5 C 774.99,14.3431 783.657,14.1764 792.5,15C 789.895,16.0213 787.228,16.8546 784.5,17.5C 778.549,16.5344 772.549,15.8678 766.5,15.5 Z"/></g>
<g><path style="opacity:0.004" fill="#1d2020" d="M 882.5,15.5 C 891.324,14.3427 900.324,14.176 909.5,15C 903.136,15.5996 896.802,16.433 890.5,17.5C 887.822,16.8246 885.156,16.158 882.5,15.5 Z"/></g>
<g><path style="opacity:0.01" fill="#202322" d="M 699.5,21.5 C 721.67,20.1715 744.004,20.1715 766.5,21.5C 763.702,22.9689 760.702,23.8022 757.5,24C 741.5,24.6667 725.5,24.6667 709.5,24C 706.066,23.4424 702.733,22.609 699.5,21.5 Z"/></g>
<g><path style="opacity:0.004" fill="#1e2121" d="M 908.5,21.5 C 927.662,20.3377 946.996,20.171 966.5,21C 956.559,23.8794 946.392,25.046 936,24.5C 926.618,24.9424 917.451,23.9424 908.5,21.5 Z"/></g>
<g><path style="opacity:0.031" fill="#252a29" d="M 800.5,28.5 C 758.853,31.0411 717.52,35.3744 676.5,41.5C 676.5,40.5 676.5,39.5 676.5,38.5C 681.536,38.4122 686.536,37.9122 691.5,37C 694.715,36.7261 697.381,35.3927 699.5,33C 714.518,32.6984 729.518,32.0317 744.5,31C 751.621,30.3091 758.621,28.9758 765.5,27C 774.5,26.3333 783.5,26.3333 792.5,27C 795.365,27.1829 798.031,27.6829 800.5,28.5 Z"/></g>
<g><path style="opacity:0.012" fill="#212422" d="M 663.5,26.5 C 676.266,26.0391 688.933,26.5391 701.5,28C 701.043,28.414 700.709,28.914 700.5,29.5C 688.848,30.6659 677.181,30.8325 665.5,30C 664.167,29.3333 662.833,28.6667 661.5,28C 662.416,27.7216 663.082,27.2216 663.5,26.5 Z"/></g>
<g><path style="opacity:0.088" fill="#222626" d="M 998.5,38.5 C 998.5,39.5 998.5,40.5 998.5,41.5C 1001.4,41.1253 1004.06,41.6253 1006.5,43C 1004.87,43.4935 1003.2,43.6602 1001.5,43.5C 958.563,35.6924 915.23,31.0257 871.5,29.5C 874.338,27.4643 874.005,25.9643 870.5,25C 847.5,24.6667 824.5,24.3333 801.5,24C 798.5,23.6667 795.5,23.3333 792.5,23C 792.043,22.586 791.709,22.086 791.5,21.5C 822.159,20.5002 852.826,20.1668 883.5,20.5C 882.265,22.7729 882.598,24.6062 884.5,26C 900.068,25.6201 915.401,27.2868 930.5,31C 941.843,31.6117 953.176,31.9451 964.5,32C 965.727,30.4126 965.394,29.0793 963.5,28C 976.443,26.4112 989.443,26.0779 1002.5,27C 1003.17,27.3333 1003.83,27.6667 1004.5,28C 1002.91,28.8624 1001.25,29.5291 999.5,30C 988.675,30.023 978.008,30.6897 967.5,32C 970.125,34.9918 973.458,36.6585 977.5,37C 984.453,38.1633 991.453,38.6633 998.5,38.5 Z"/></g>
<g><path style="opacity:0.01" fill="#1c1c1a" d="M 628.5,34.5 C 639.326,33.341 650.326,33.1743 661.5,34C 660.455,35.526 658.955,36.3594 657,36.5C 647.254,38.2561 637.754,37.5894 628.5,34.5 Z"/></g>
<g><path style="opacity:1" fill="#fefefe" d="M 1175.5,101.5 C 1216.42,122.078 1256.42,144.245 1295.5,168C 1321.95,187.774 1346.62,209.774 1369.5,234C 1388.02,249.764 1406.35,265.764 1424.5,282C 1437.99,293.239 1451.99,303.739 1466.5,313.5C 1481.89,324.697 1498.56,333.53 1516.5,340C 1525.15,341.588 1532.82,339.588 1539.5,334C 1550.06,324.01 1559.56,313.177 1568,301.5C 1570.63,298.79 1573.46,296.456 1576.5,294.5C 1598.17,294.333 1619.84,294.5 1641.5,295C 1643.25,296.319 1645.25,296.819 1647.5,296.5C 1648.31,496.834 1648.31,697.168 1647.5,897.5C 1624.5,897.667 1601.5,897.5 1578.5,897C 1572.68,895.755 1567.34,893.422 1562.5,890C 1552.03,879.378 1542.03,868.378 1532.5,857C 1529.33,855.248 1526.33,853.248 1523.5,851C 1514.76,849.006 1506.09,849.339 1497.5,852C 1492.12,860.404 1485.79,868.07 1478.5,875C 1473.42,877.537 1468.08,879.537 1462.5,881C 1437.01,885.043 1411.67,889.71 1386.5,895C 1346.44,897.65 1306.44,899.15 1266.5,899.5C 1248.5,899.019 1230.5,899.852 1212.5,902C 1211.68,910.755 1211.18,919.589 1211,928.5C 1205.88,934.824 1199.38,939.324 1191.5,942C 1173.66,950.058 1155.32,956.725 1136.5,962C 1085.29,973.791 1033.63,982.791 981.5,989C 933.457,993.786 885.29,995.62 837,994.5C 771.104,996.413 705.604,992.246 640.5,982C 609.564,975.677 578.564,969.677 547.5,964C 518.349,957.425 490.683,946.925 464.5,932.5C 463.502,923.19 463.168,913.857 463.5,904.5C 463.67,903.178 463.337,902.011 462.5,901C 417.894,899.547 373.394,898.38 329,897.5C 288.411,893.447 247.911,888.28 207.5,882C 199.538,881.093 191.871,879.093 184.5,876C 179.474,870.783 175.308,864.95 172,858.5C 166.141,850.097 158.141,847.097 148,849.5C 142.393,849.38 136.893,849.88 131.5,851C 119.554,862.946 107.554,874.946 95.5,887C 91.8441,890.163 87.8441,892.829 83.5,895C 78.5465,895.995 73.5465,896.662 68.5,897C 51.1699,897.5 33.8365,897.667 16.5,897.5C 16.5,697.167 16.5,496.833 16.5,296.5C 41.4515,293.743 66.4515,293.243 91.5,295C 104.5,308.667 117.5,322.333 130.5,336C 136.636,340.6 143.303,341.6 150.5,339C 158.7,336.565 166.367,333.065 173.5,328.5C 185.612,321.272 197.612,313.772 209.5,306C 219.888,297.946 230.554,290.279 241.5,283C 275.065,254.438 307.065,224.105 337.5,192C 358.369,174.623 380.702,159.457 404.5,146.5C 442.556,125.138 481.556,105.971 521.5,89C 553.964,77.1746 586.63,66.8413 619.5,58C 627.248,57.0737 634.915,55.7403 642.5,54C 643.056,53.6174 643.389,53.1174 643.5,52.5C 732.539,34.3721 822.539,29.2054 913.5,37C 960.303,41.8279 1006.64,49.1613 1052.5,59C 1094.17,71.0564 1135.17,85.223 1175.5,101.5 Z M 708.5,64.5 C 710.527,64.3379 712.527,64.5045 714.5,65C 715.451,65.7175 715.617,66.5509 715,67.5C 710.559,70.9368 706.393,74.7702 702.5,79C 697.992,81.7533 693.659,84.7533 689.5,88C 684.532,94.3009 678.866,99.9676 672.5,105C 673.716,107.93 675.049,110.763 676.5,113.5C 675.166,117.344 672.832,120.511 669.5,123C 657.646,128.047 645.312,131.381 632.5,133C 629.554,133.806 626.888,135.139 624.5,137C 633.054,135.586 641.72,135.253 650.5,136C 656.684,139.083 657.017,142.75 651.5,147C 637.578,155.064 622.578,159.564 606.5,160.5C 607.551,153.178 609.718,146.178 613,139.5C 621.756,120.426 633.256,103.259 647.5,88C 665.244,73.3643 685.578,65.531 708.5,64.5 Z M 947.5,65.5 C 970.874,63.7878 991.874,70.2878 1010.5,85C 1025.63,97.4583 1037.8,112.292 1047,129.5C 1052.05,138.926 1056.55,148.593 1060.5,158.5C 1045.44,159.544 1031.1,156.711 1017.5,150C 1014.46,147.297 1011.8,144.297 1009.5,141C 1012.78,136.702 1016.95,135.536 1022,137.5C 1022.95,137.095 1023.61,136.428 1024,135.5C 1031.55,137.533 1039.21,139.2 1047,140.5C 1048.26,140.15 1048.59,139.483 1048,138.5C 1038.26,134.569 1028.09,132.402 1017.5,132C 1005.06,128.445 993.059,123.779 981.5,118C 980.57,116.806 979.903,115.473 979.5,114C 983.401,108.163 983.234,102.329 979,96.5C 967.15,87.3664 956.65,77.0331 947.5,65.5 Z M 621.5,89.5 C 623.722,89.5587 624.722,90.7253 624.5,93C 624.079,95.1846 623.579,97.3513 623,99.5C 615.794,119.452 608.794,139.452 602,159.5C 592.559,160.841 583.726,159.008 575.5,154C 571.511,151.187 569.844,147.354 570.5,142.5C 570.686,135.793 572.853,129.793 577,124.5C 585.203,114.63 594.369,105.797 604.5,98C 609.712,94.0607 615.379,91.2273 621.5,89.5 Z M 1040.5,92.5 C 1046.78,91.6615 1052.45,93.1615 1057.5,97C 1067.59,104.418 1077.09,112.585 1086,121.5C 1090.5,127.156 1094.5,133.156 1098,139.5C 1099.37,144.437 1098.2,148.604 1094.5,152C 1087.61,155.612 1080.28,157.779 1072.5,158.5C 1070.09,158.594 1068.26,157.594 1067,155.5C 1054.31,136.119 1045.48,115.119 1040.5,92.5 Z M 831.5,95.5 C 833.202,100.429 835.035,105.429 837,110.5C 843.611,120.777 850.611,130.777 858,140.5C 860.464,147.688 862.297,155.022 863.5,162.5C 956.07,152.977 1033.57,182.977 1096,252.5C 1118.09,278.234 1132.26,307.901 1138.5,341.5C 1138.17,342.167 1137.83,342.833 1137.5,343.5C 1131.85,343.493 1126.18,343.16 1120.5,342.5C 1104.68,343.174 1088.85,343.841 1073,344.5C 999.206,344.619 925.373,344.453 851.5,344C 854.017,331.741 857.017,319.574 860.5,307.5C 860,307.167 859.5,306.833 859,306.5C 854.844,307.203 850.677,307.869 846.5,308.5C 842.711,308.529 838.878,308.196 835,307.5C 824.049,308.478 813.215,310.144 802.5,312.5C 802.167,312.833 801.833,313.167 801.5,313.5C 804.754,323.171 806.087,333.004 805.5,343C 799.976,343.287 794.476,343.787 789,344.5C 700.596,344.488 612.096,344.488 523.5,344.5C 528.159,299.012 548.159,261.845 583.5,233C 646.085,179.639 718.751,155.472 801.5,160.5C 802.555,153.949 804.388,147.616 807,141.5C 815.449,126.267 823.615,110.934 831.5,95.5 Z M 1119.5,107.5 C 1119.56,106.957 1119.89,106.624 1120.5,106.5C 1138.46,115.812 1156.12,125.645 1173.5,136C 1191.47,148.418 1201.97,165.585 1205,187.5C 1206.33,198.882 1201.66,206.215 1191,209.5C 1177.97,206.464 1167.63,199.464 1160,188.5C 1155.6,182.434 1151.6,176.1 1148,169.5C 1137.63,149.102 1128.13,128.435 1119.5,107.5 Z M 541.5,109.5 C 542.675,109.281 543.675,109.614 544.5,110.5C 533.326,138.462 519.826,165.128 504,190.5C 493.545,199.997 481.212,205.664 467,207.5C 461.31,205.966 459.143,202.299 460.5,196.5C 460.509,168.294 472.509,147.127 496.5,133C 511.205,124.428 526.205,116.595 541.5,109.5 Z M 572.5,174.5 C 578.399,174.594 584.066,175.761 589.5,178C 594.681,182.567 595.847,188.067 593,194.5C 591.581,195.46 590.081,196.293 588.5,197C 578.511,198 568.511,198.333 558.5,198C 558.764,193.259 558.931,188.425 559,183.5C 561.86,177.849 566.36,174.849 572.5,174.5 Z M 1090.5,174.5 C 1100.81,173.401 1108.31,177.401 1113,186.5C 1113.81,191.06 1111.97,194.226 1107.5,196C 1095.29,201.698 1084.13,200.198 1074,191.5C 1072.54,185.26 1074.7,180.76 1080.5,178C 1083.85,176.514 1087.18,175.347 1090.5,174.5 Z M 399.5,180.5 C 401.716,181.203 403.549,182.536 405,184.5C 411.517,195.354 419.184,205.354 428,214.5C 435.303,220.802 442.303,227.468 449,234.5C 451.905,239.651 452.238,244.985 450,250.5C 446.596,256.85 441.763,261.683 435.5,265C 432.594,266.318 429.594,266.652 426.5,266C 397.695,248.204 387.195,222.704 395,189.5C 395.986,186.194 397.486,183.194 399.5,180.5 Z M 1257.5,180.5 C 1260.43,181.591 1262.59,183.591 1264,186.5C 1276.34,214.158 1271.5,238.325 1249.5,259C 1237.44,268.347 1226.61,267.181 1217,255.5C 1212.66,245.905 1213.99,237.238 1221,229.5C 1237.07,215.992 1249.24,199.659 1257.5,180.5 Z M 1135.5,183.5 C 1138.99,184.477 1141.82,186.477 1144,189.5C 1153.9,204.069 1164.57,218.069 1176,231.5C 1183,246.499 1185.33,262.165 1183,278.5C 1178.84,282.575 1174.18,285.909 1169,288.5C 1167.39,287.899 1166.06,286.899 1165,285.5C 1162,280.833 1159,276.167 1156,271.5C 1145.94,250.549 1135.77,229.715 1125.5,209C 1126.08,203.204 1127.58,197.371 1130,191.5C 1131.31,188.379 1133.14,185.713 1135.5,183.5 Z M 521.5,185.5 C 530.732,182.926 536.232,186.259 538,195.5C 538.667,202.167 538.667,208.833 538,215.5C 528.509,234.485 518.509,253.151 508,271.5C 506.601,272.227 505.101,272.727 503.5,273C 504.624,273.249 505.624,273.749 506.5,274.5C 502.502,280.197 497.835,285.197 492.5,289.5C 488.13,285.294 484.297,280.628 481,275.5C 478.408,257.709 481.408,241.042 490,225.5C 496.306,219.194 502.64,212.86 509,206.5C 512.675,199.142 516.841,192.142 521.5,185.5 Z M 1326.5,231.5 C 1329.75,263.536 1319.42,290.703 1295.5,313C 1286.87,317.594 1280.04,315.761 1275,307.5C 1268.83,295.361 1269.16,283.361 1276,271.5C 1288.46,252.534 1305.3,239.2 1326.5,231.5 Z M 340.5,233.5 C 350.406,236.284 359.739,240.451 368.5,246C 376.043,252.875 382.876,260.375 389,268.5C 394.908,278.042 397.241,288.376 396,299.5C 390.93,308.211 383.263,312.878 373,313.5C 367.945,312.973 363.945,310.639 361,306.5C 352.706,292.578 346.039,277.911 341,262.5C 338.362,254.344 337.362,246.011 338,237.5C 338.662,236.016 339.496,234.683 340.5,233.5 Z M 1188.5,281.5 C 1202.3,279.139 1208.47,284.806 1207,298.5C 1203.94,310.687 1200.27,322.687 1196,334.5C 1184.48,344.536 1177.14,342.203 1174,327.5C 1170.9,314.611 1172.24,302.278 1178,290.5C 1181.1,286.886 1184.6,283.886 1188.5,281.5 Z M 465.5,282.5 C 473.28,280.753 479.447,283.087 484,289.5C 489.21,296.631 491.71,304.631 491.5,313.5C 491,320.5 490.5,327.5 490,334.5C 489.955,337.334 489.121,339.834 487.5,342C 482.496,341.81 477.496,341.143 472.5,340C 469.619,338.749 467.786,336.583 467,333.5C 462.703,321.78 459.537,309.78 457.5,297.5C 457.312,290.87 459.979,285.87 465.5,282.5 Z M 116.5,308.5 C 119.709,309.297 120.209,310.963 118,313.5C 115.676,312.225 115.176,310.558 116.5,308.5 Z M 1346.5,309.5 C 1348.34,310.204 1348.84,311.537 1348,313.5C 1338.45,325.048 1327.62,335.215 1315.5,344C 1312.34,345.413 1309.34,347.08 1306.5,349C 1299.5,349.667 1292.5,349.667 1285.5,349C 1287.5,333.645 1295.83,323.645 1310.5,319C 1320.83,316.667 1331.17,314.333 1341.5,312C 1343.49,311.626 1345.16,310.793 1346.5,309.5 Z M 316.5,312.5 C 317.449,311.848 318.615,311.514 320,311.5C 336.562,314.766 353.062,318.266 369.5,322C 371.487,323.319 372.654,325.152 373,327.5C 373.333,331.833 373.667,336.167 374,340.5C 376.21,341.749 378.376,341.582 380.5,340C 397.606,321.556 418.272,316.222 442.5,324C 448.98,331.71 447.646,337.377 438.5,341C 432.668,343.277 426.668,344.944 420.5,346C 406.549,347.663 392.549,348.663 378.5,349C 374.584,349.458 370.75,350.292 367,351.5C 347.113,342.445 330.28,329.445 316.5,312.5 Z M 1244.5,320.5 C 1260.88,321.606 1274.05,328.606 1284,341.5C 1284.5,344.146 1284.66,346.813 1284.5,349.5C 1270.15,349.027 1255.81,348.194 1241.5,347C 1233.31,345.716 1225.65,343.049 1218.5,339C 1213.49,334.56 1213.82,330.227 1219.5,326C 1221.5,325 1223.5,324 1225.5,323C 1231.97,322.071 1238.3,321.237 1244.5,320.5 Z M 140.5,323.5 C 144.007,324.669 147.507,324.669 151,323.5C 155.452,325.26 155.619,327.426 151.5,330C 144.833,330.667 138.167,330.667 131.5,330C 130.167,328.667 130.167,327.333 131.5,326C 133.92,325.313 136.087,325.813 138,327.5C 138.662,326.016 139.496,324.683 140.5,323.5 Z M 1541.5,319.5 C 1541.5,320.167 1541.83,320.5 1542.5,320.5C 1541.76,325.805 1539.26,327.139 1535,324.5C 1534.53,323.423 1534.7,322.423 1535.5,321.5C 1536.17,321.5 1536.5,321.167 1536.5,320.5C 1538.04,319.699 1539.71,319.366 1541.5,319.5 Z M 241.5,381.5 C 353.734,382.433 465.901,383.433 578,384.5C 724.281,384.489 870.281,384.489 1016,384.5C 1027.8,383.824 1039.64,383.157 1051.5,382.5C 1128.58,383.254 1204.58,383.588 1279.5,383.5C 1288.03,382.847 1296.53,382.18 1305,381.5C 1402.48,382.57 1499.98,382.57 1597.5,381.5C 1596.61,523.507 1596.61,667.507 1597.5,813.5C 1297.28,814.012 997.617,814.346 698.5,814.5C 672.167,813.833 645.833,813.167 619.5,812.5C 592.633,813.324 565.633,813.324 538.5,812.5C 534.966,813.131 531.466,813.798 528,814.5C 373.998,814.357 219.831,814.357 65.5,814.5C 65.8235,671.177 65.8235,527.344 65.5,383C 124.335,382.833 183.001,382.333 241.5,381.5 Z M 341.5,444.5 C 597.752,444.542 853.752,444.542 1109.5,444.5C 1190.13,445.244 1270.8,445.911 1351.5,446.5C 1351.5,449.833 1351.5,453.167 1351.5,456.5C 1144.25,456.62 937.086,456.62 730,456.5C 582.824,457.148 435.657,457.815 288.5,458.5C 288.5,454.167 288.5,449.833 288.5,445.5C 306.341,445.83 324.008,445.497 341.5,444.5 Z M 219.5,567.5 C 231.759,567.579 239.592,573.579 243,585.5C 245.623,595.741 245.623,606.074 243,616.5C 239.835,629.328 231.668,635.828 218.5,636C 217.308,637.912 216.308,639.912 215.5,642C 242.05,646.229 255.383,661.895 255.5,689C 255.547,705.238 249.213,718.238 236.5,728C 229.148,732.65 221.815,732.65 214.5,728C 213.54,726.581 212.707,725.081 212,723.5C 211.333,673.833 211.333,624.167 212,574.5C 213.767,571.228 216.267,568.895 219.5,567.5 Z M 366.5,625.5 C 374.588,627.096 379.088,632.096 380,640.5C 381.223,646.379 380.389,651.879 377.5,657C 368.585,662.041 359.751,667.207 351,672.5C 349.438,658.088 351.771,644.422 358,631.5C 360.322,628.605 363.155,626.605 366.5,625.5 Z M 1146.5,625.5 C 1154.04,625.186 1159.21,628.519 1162,635.5C 1169.29,662.83 1169.29,690.163 1162,717.5C 1158.12,727.697 1151.28,730.531 1141.5,726C 1135.78,718.513 1132.61,710.013 1132,700.5C 1129.9,679.682 1130.9,659.015 1135,638.5C 1137.03,632.345 1140.87,628.011 1146.5,625.5 Z M 1508.5,625.5 C 1515.16,625.657 1519.33,628.99 1521,635.5C 1522.47,641.431 1522.8,647.431 1522,653.5C 1520.83,656 1519,657.833 1516.5,659C 1508.67,663.5 1500.83,668 1493,672.5C 1491.6,657.656 1494.27,643.656 1501,630.5C 1503.17,628.177 1505.67,626.51 1508.5,625.5 Z M 1095.5,858.5 C 1097.31,859.615 1099.31,860.281 1101.5,860.5C 1140.6,859.677 1180.1,859.677 1220,860.5C 1223.17,860.333 1226.33,860.167 1229.5,860C 1230,859.5 1230.5,859 1231,858.5C 1233.74,859.282 1236.57,859.782 1239.5,860C 1263.17,860.333 1286.83,860.667 1310.5,861C 1313.97,860.878 1316.63,862.211 1318.5,865C 1322.04,865.851 1325.38,865.351 1328.5,863.5C 1328.83,863.833 1329.17,864.167 1329.5,864.5C 1325.54,867.488 1321.54,870.488 1317.5,873.5C 1316.71,873.069 1315.87,872.735 1315,872.5C 1300.56,874.016 1286.06,874.683 1271.5,874.5C 985.694,873.48 700.36,873.48 415.5,874.5C 392.816,873.876 370.149,872.71 347.5,871C 341.621,871.044 338.955,868.21 339.5,862.5C 347.831,862.042 356.165,861.542 364.5,861C 423.103,860.422 481.437,860.589 539.5,861.5C 576.687,860.862 613.854,860.195 651,859.5C 793.95,860.398 935.784,860.398 1076.5,859.5C 1080.83,860.167 1085.17,860.833 1089.5,861.5C 1092.05,861.229 1094.05,860.229 1095.5,858.5 Z M 1514.5,858.5 C 1517.6,858.599 1520.27,859.599 1522.5,861.5C 1519.26,863.163 1515.92,864.829 1512.5,866.5C 1507.14,862.531 1507.8,859.865 1514.5,858.5 Z M 159.5,859.5 C 162.674,859.952 163.007,860.952 160.5,862.5C 158.481,861.867 158.147,860.867 159.5,859.5 Z M 1065.5,900.5 C 1082.86,899.814 1100.36,899.147 1118,898.5C 1128.15,899.738 1138.31,899.738 1148.5,898.5C 1150.71,898.412 1152.71,898.912 1154.5,900C 1149.02,902.907 1143.35,905.574 1137.5,908C 1117.74,920.761 1097.74,933.095 1077.5,945C 1067.52,950.822 1057.19,955.822 1046.5,960C 1032.49,962.002 1018.49,964.002 1004.5,966C 999.249,966.804 994.082,966.637 989,965.5C 987.426,966.848 985.593,967.514 983.5,967.5C 981.23,966.574 979.063,966.24 977,966.5C 887.425,970.717 797.925,970.884 708.5,967C 706.729,964.887 705.229,965.053 704,967.5C 699.214,965.885 694.381,965.551 689.5,966.5C 677.126,965.559 664.959,964.559 653,963.5C 651.893,963.585 650.893,963.919 650,964.5C 638.279,962.014 626.779,958.514 615.5,954C 583.296,935.732 550.963,917.732 518.5,900C 595.831,900.241 673.165,900.741 750.5,901.5C 819.774,901.263 888.607,901.263 957,901.5C 976,900.833 995,900.167 1014,899.5C 1025.84,900.655 1037.84,900.655 1050,899.5C 1051.67,900.167 1053.33,900.833 1055,901.5C 1058.23,899.161 1061.73,898.828 1065.5,900.5 Z"/></g>
<g><path style="opacity:0.237" fill="#111010" d="M 800.5,28.5 C 807.22,30.0321 814.053,31.0321 821,31.5C 837.823,30.7224 854.656,30.0557 871.5,29.5C 915.23,31.0257 958.563,35.6924 1001.5,43.5C 1019.43,48.3259 1037.76,52.4925 1056.5,56C 1075.45,61.4293 1094.29,67.2626 1113,73.5C 1115.18,70.5434 1116.35,70.8767 1116.5,74.5C 1122.36,76.1085 1128.03,78.2752 1133.5,81C 1135.83,81.3333 1138.17,81.6667 1140.5,82C 1144.69,85.1717 1149.35,87.1717 1154.5,88C 1160.2,91.1818 1166.2,93.8485 1172.5,96C 1173.83,96.6667 1175.17,96.6667 1176.5,96C 1174.5,95.0764 1174.17,93.9097 1175.5,92.5C 1176.17,92.5 1176.5,92.8333 1176.5,93.5C 1177.1,97.643 1179.43,100.31 1183.5,101.5C 1180.91,102.205 1178.24,102.205 1175.5,101.5C 1135.17,85.223 1094.17,71.0564 1052.5,59C 1006.64,49.1613 960.303,41.8279 913.5,37C 822.539,29.2054 732.539,34.3721 643.5,52.5C 641.669,51.9478 640.003,51.9478 638.5,52.5C 636.566,52.0995 635.066,51.0995 634,49.5C 633.282,50.4506 632.449,50.6172 631.5,50C 632.167,49 632.833,48 633.5,47C 636.02,46.9862 638.52,47.4862 641,48.5C 647.193,46.101 653.693,44.9343 660.5,45C 663.726,43.6284 667.059,42.4618 670.5,41.5C 671.425,40.6431 672.092,39.6431 672.5,38.5C 673.833,38.5 675.167,38.5 676.5,38.5C 676.5,39.5 676.5,40.5 676.5,41.5C 717.52,35.3744 758.853,31.0411 800.5,28.5 Z"/></g>
<g><path style="opacity:0.006" fill="#1a1d1a" d="M 605.5,40.5 C 612.982,39.508 620.648,39.1746 628.5,39.5C 628.67,40.8221 628.337,41.9887 627.5,43C 622.167,43.6667 616.833,43.6667 611.5,43C 609.189,42.7641 607.189,41.9307 605.5,40.5 Z"/></g>
<g><path style="opacity:0.008" fill="#1e1e1a" d="M 563.5,53.5 C 569.678,52.1826 576.012,52.1826 582.5,53.5C 576.28,57.4543 569.946,57.4543 563.5,53.5 Z"/></g>
<g><path style="opacity:0.092" fill="#1c1d1b" d="M 1175.5,92.5 C 1174.17,93.9097 1174.5,95.0764 1176.5,96C 1175.17,96.6667 1173.83,96.6667 1172.5,96C 1166.2,93.8485 1160.2,91.1818 1154.5,88C 1149.35,87.1717 1144.69,85.1717 1140.5,82C 1138.17,81.6667 1135.83,81.3333 1133.5,81C 1128.03,78.2752 1122.36,76.1085 1116.5,74.5C 1116.35,70.8767 1115.18,70.5434 1113,73.5C 1094.29,67.2626 1075.45,61.4293 1056.5,56C 1037.76,52.4925 1019.43,48.3259 1001.5,43.5C 1003.2,43.6602 1004.87,43.4935 1006.5,43C 1004.06,41.6253 1001.4,41.1253 998.5,41.5C 998.5,40.5 998.5,39.5 998.5,38.5C 1002.19,38.6757 1004.19,37.0091 1004.5,33.5C 1015.51,33.3335 1026.51,33.5002 1037.5,34C 1028.39,37.1232 1019.06,38.1232 1009.5,37C 1008.83,37.6667 1008.17,38.3333 1007.5,39C 1008.98,41.1485 1010.98,42.4818 1013.5,43C 1020.12,44.3776 1026.78,44.7109 1033.5,44C 1034.61,42.4301 1035.95,41.0968 1037.5,40C 1046.17,39.3333 1054.83,39.3333 1063.5,40C 1061.51,41.7506 1059.18,42.7506 1056.5,43C 1050.66,43.047 1044.99,43.7137 1039.5,45C 1040.83,46.3333 1042.17,47.6667 1043.5,49C 1049.53,50.8454 1055.53,51.1788 1061.5,50C 1062.34,48.9887 1062.67,47.8221 1062.5,46.5C 1066.2,46.579 1069.87,46.2457 1073.5,45.5C 1077.49,46.1095 1081.49,46.6095 1085.5,47C 1084.17,47.6667 1082.83,48.3333 1081.5,49C 1076.83,49.3333 1072.17,49.6667 1067.5,50C 1064.87,52.7892 1065.54,54.7892 1069.5,56C 1074.11,57.2905 1078.78,57.6238 1083.5,57C 1085.04,55.8904 1085.7,54.3904 1085.5,52.5C 1092.51,52.3337 1099.51,52.5004 1106.5,53C 1100.84,55.7685 1094.84,57.1018 1088.5,57C 1087.55,57.7175 1087.38,58.5509 1088,59.5C 1092.86,63.2841 1098.36,64.4507 1104.5,63C 1105.06,61.324 1106.06,59.9906 1107.5,59C 1113.28,58.0968 1118.95,58.4301 1124.5,60C 1123.17,60.6667 1121.83,61.3333 1120.5,62C 1116.17,62.3333 1111.83,62.6667 1107.5,63C 1106.72,64.073 1106.89,65.2396 1108,66.5C 1112.9,70.1799 1118.4,71.3466 1124.5,70C 1125.71,68.8869 1125.71,67.7202 1124.5,66.5C 1130.47,65.3364 1136.47,65.1697 1142.5,66C 1137.86,68.5234 1133.02,69.3568 1128,68.5C 1124.84,70.4162 1125.01,72.2495 1128.5,74C 1132.56,76.3403 1136.89,77.007 1141.5,76C 1142.05,74.6015 1142.38,73.2682 1142.5,72C 1147.83,71.3333 1153.17,71.3333 1158.5,72C 1154.92,75.5135 1150.76,76.3468 1146,74.5C 1144.57,74.9304 1143.4,75.7638 1142.5,77C 1146.84,82.2357 1152.01,83.7357 1158,81.5C 1158.48,80.552 1158.65,79.552 1158.5,78.5C 1163.51,78.3341 1168.51,78.5007 1173.5,79C 1168.88,80.7578 1164.21,82.4245 1159.5,84C 1161.16,87.168 1163.83,88.8347 1167.5,89C 1169.5,89.6667 1171.5,89.6667 1173.5,89C 1174.83,87.6667 1174.83,86.3333 1173.5,85C 1178.17,84.3333 1182.83,84.3333 1187.5,85C 1184.46,88.4594 1180.79,89.4594 1176.5,88C 1175.83,88.6667 1175.17,89.3333 1174.5,90C 1175.25,90.6708 1175.59,91.5041 1175.5,92.5 Z"/></g>
<g><path style="opacity:0.008" fill="#201e1a" d="M 527.5,66.5 C 532.68,65.1853 538.014,65.1853 543.5,66.5C 538.248,70.396 532.915,70.396 527.5,66.5 Z"/></g>
<g><path style="opacity:0.009" fill="#1f1c1a" d="M 1187.5,90.5 C 1191.7,90.0761 1195.7,90.5761 1199.5,92C 1196.23,94.6435 1192.56,95.1435 1188.5,93.5C 1187.87,92.5832 1187.54,91.5832 1187.5,90.5 Z"/></g>
<g><path style="opacity:0.01" fill="#1d1b16" d="M 480.5,94.5 C 477.482,94.6646 474.482,94.498 471.5,94C 470.833,93.3333 470.167,92.6667 469.5,92C 473.297,90.5761 477.297,90.0761 481.5,90.5C 481.567,91.9587 481.234,93.2921 480.5,94.5 Z"/></g>
<g><path style="opacity:0.085" fill="#201f1a" d="M 672.5,38.5 C 672.092,39.6431 671.425,40.6431 670.5,41.5C 667.059,42.4618 663.726,43.6284 660.5,45C 653.693,44.9343 647.193,46.101 641,48.5C 638.52,47.4862 636.02,46.9862 633.5,47C 632.833,48 632.167,49 631.5,50C 632.449,50.6172 633.282,50.4506 634,49.5C 635.066,51.0995 636.566,52.0995 638.5,52.5C 640.003,51.9478 641.669,51.9478 643.5,52.5C 643.389,53.1174 643.056,53.6174 642.5,54C 634.915,55.7403 627.248,57.0737 619.5,58C 586.63,66.8413 553.964,77.1746 521.5,89C 481.556,105.971 442.556,125.138 404.5,146.5C 401.017,146.691 397.684,147.357 394.5,148.5C 394.738,152.099 393.738,152.433 391.5,149.5C 394.879,146.449 398.212,143.449 401.5,140.5C 405.36,140.148 407.193,138.148 407,134.5C 403.526,133.68 400.359,132.18 397.5,130C 401.486,129.501 405.486,129.334 409.5,129.5C 409.077,132.243 410.244,133.576 413,133.5C 418.346,133.207 419.513,131.04 416.5,127C 414.5,126.333 412.5,125.667 410.5,125C 409.167,124.333 409.167,123.667 410.5,123C 413.5,122.333 416.5,122.333 419.5,123C 421.505,127.176 424.505,128.176 428.5,126C 430.211,124.867 430.711,123.367 430,121.5C 416.944,117.119 417.444,115.452 431.5,116.5C 431.286,118.144 431.62,119.644 432.5,121C 435.977,121.305 439.144,120.472 442,118.5C 442.667,117.167 442.667,115.833 442,114.5C 429.125,111.085 429.625,109.752 443.5,110.5C 443.297,112.39 443.963,113.89 445.5,115C 449.107,115.797 452.274,114.964 455,112.5C 455.667,111.167 455.667,109.833 455,108.5C 452.595,107.726 450.095,107.226 447.5,107C 446.09,106.632 445.09,105.799 444.5,104.5C 448.445,103.509 452.445,103.176 456.5,103.5C 456.504,108.989 459.171,110.822 464.5,109C 466.98,107.518 469.147,105.685 471,103.5C 473.995,102.724 476.828,101.557 479.5,100C 480.582,98.6703 481.249,97.1703 481.5,95.5C 485.507,96.142 489.507,95.642 493.5,94C 495.833,92.7574 496.5,91.0907 495.5,89C 492.167,88.6667 488.833,88.3333 485.5,88C 483.884,87.3848 482.551,86.3848 481.5,85C 486.489,84.5007 491.489,84.3341 496.5,84.5C 496.231,86.4286 496.731,88.0953 498,89.5C 500.74,88.7178 503.574,88.2178 506.5,88C 510.354,86.2273 510.854,84.0606 508,81.5C 507.667,81.8333 507.333,82.1667 507,82.5C 504.595,81.7256 502.095,81.2256 499.5,81C 498.328,80.5814 497.328,79.9147 496.5,79C 501.192,77.8139 505.859,77.6473 510.5,78.5C 510.418,81.5849 511.918,83.2515 515,83.5C 519.328,83.3909 522.828,81.7242 525.5,78.5C 525.023,77.5224 524.357,76.6891 523.5,76C 520.5,75.6667 517.5,75.3333 514.5,75C 512.884,74.3848 511.551,73.3848 510.5,72C 515.833,71.3333 521.167,71.3333 526.5,72C 526.918,75.5825 528.918,77.0825 532.5,76.5C 535.226,76.3184 537.893,75.8184 540.5,75C 541.878,73.2866 543.545,71.9533 545.5,71C 550.694,70.869 555.694,69.869 560.5,68C 563.474,66.4943 563.807,64.8276 561.5,63C 556.833,62.6667 552.167,62.3333 547.5,62C 545.321,61.5581 544.655,60.5581 545.5,59C 551.5,58.3333 557.5,58.3333 563.5,59C 563.982,60.0084 564.148,61.175 564,62.5C 564.804,63.8045 565.971,64.4712 567.5,64.5C 573.926,64.1932 579.593,62.0266 584.5,58C 589.897,57.7728 595.231,57.1062 600.5,56C 601.833,54.6667 603.167,53.3333 604.5,52C 603.833,51.3333 603.167,50.6667 602.5,50C 596.833,49.6667 591.167,49.3333 585.5,49C 584.328,48.5814 583.328,47.9147 582.5,47C 590.237,44.8904 597.904,45.0571 605.5,47.5C 604.289,48.7202 604.289,49.8869 605.5,51C 612.308,51.775 618.974,51.1084 625.5,49C 626.5,48 627.5,47 628.5,46C 638.336,45.7594 648.003,44.4261 657.5,42C 658.5,41 659.5,40 660.5,39C 664.486,38.5012 668.486,38.3345 672.5,38.5 Z"/></g>
<g><path style="opacity:0.004" fill="#22201a" d="M 480.5,94.5 C 481.167,94.5 481.5,94.8333 481.5,95.5C 481.167,95.1667 480.833,94.8333 480.5,94.5 Z"/></g>
<g><path style="opacity:0.016" fill="#1e1a15" d="M 457.5,98.5 C 460.962,97.5184 464.629,97.185 468.5,97.5C 468.5,98.8333 468.5,100.167 468.5,101.5C 465.813,101.664 463.146,101.497 460.5,101C 459.309,100.302 458.309,99.4687 457.5,98.5 Z"/></g>
<g><path style="opacity:0.008" fill="#1d1b17" d="M 1200.5,97.5 C 1204.51,97.3345 1208.51,97.5012 1212.5,98C 1209.3,101.571 1205.63,102.238 1201.5,100C 1200.75,99.3292 1200.41,98.4959 1200.5,97.5 Z"/></g>
<g><path style="opacity:0.005" fill="#1e1b17" d="M 1213.5,103.5 C 1216.9,103.18 1220.23,103.513 1223.5,104.5C 1221.11,107.239 1218.11,108.072 1214.5,107C 1213.66,105.989 1213.33,104.822 1213.5,103.5 Z"/></g>
<g><path style="opacity:1" fill="#fefffe" d="M 830.5,132.5 C 832.017,132.511 833.184,133.177 834,134.5C 838.026,140.24 840.693,146.574 842,153.5C 843.587,161.111 844.754,168.778 845.5,176.5C 858.923,176.776 872.257,177.943 885.5,180C 891.685,184.526 895.185,190.692 896,198.5C 898.572,214.406 896.572,229.739 890,244.5C 883.381,256.739 877.048,269.073 871,281.5C 869.902,285.505 870.735,289.005 873.5,292C 846.388,293.27 819.388,295.77 792.5,299.5C 792.02,289.265 790.186,279.265 787,269.5C 782.194,258.554 776.861,247.888 771,237.5C 764.005,220.743 764.338,204.077 772,187.5C 777.054,181.476 783.554,178.309 791.5,178C 800.813,177.079 810.147,176.579 819.5,176.5C 819.726,160.928 823.393,146.262 830.5,132.5 Z"/></g>
<g><path style="opacity:0.004" fill="#1d1713" d="M 1309.5,165.5 C 1309.5,164.167 1309.5,162.833 1309.5,161.5C 1311.86,161.337 1314.19,161.503 1316.5,162C 1315.81,163.067 1315.31,164.234 1315,165.5C 1313.17,164.248 1311.34,164.248 1309.5,165.5 Z"/></g>
<g><path style="opacity:0.007" fill="#1b1411" d="M 1176.5,93.5 C 1181.96,94.5921 1186.63,97.0921 1190.5,101C 1199.85,104.509 1208.85,108.842 1217.5,114C 1219.5,114.667 1221.5,114.667 1223.5,114C 1224.34,112.989 1224.67,111.822 1224.5,110.5C 1227.9,110.18 1231.23,110.513 1234.5,111.5C 1231.75,112.89 1228.92,114.223 1226,115.5C 1225.29,117.367 1225.79,118.867 1227.5,120C 1229.83,120.667 1232.17,120.667 1234.5,120C 1235.34,118.989 1235.67,117.822 1235.5,116.5C 1249.52,115.45 1250.02,117.116 1237,121.5C 1236.44,124.298 1237.61,126.131 1240.5,127C 1244.81,128.544 1246.98,127.044 1247,122.5C 1250.17,122.087 1253.33,122.587 1256.5,124C 1253.96,126.093 1250.96,127.093 1247.5,127C 1246.52,128.779 1246.85,130.445 1248.5,132C 1251.76,134.469 1254.93,134.635 1258,132.5C 1258.48,131.552 1258.65,130.552 1258.5,129.5C 1271.39,129.11 1271.56,130.444 1259,133.5C 1258.18,135.701 1258.68,137.534 1260.5,139C 1263.03,140.422 1265.7,140.755 1268.5,140C 1269.38,138.644 1269.71,137.144 1269.5,135.5C 1282.24,134.458 1282.74,136.125 1271,140.5C 1270.49,145.189 1272.66,147.023 1277.5,146C 1281.11,141.68 1285.44,140.68 1290.5,143C 1287.81,144.368 1285.15,145.701 1282.5,147C 1281.48,148.049 1281.32,149.216 1282,150.5C 1286.36,155.165 1289.19,154.499 1290.5,148.5C 1293.52,148.335 1296.52,148.502 1299.5,149C 1298.79,150.255 1297.96,151.421 1297,152.5C 1290.13,150.775 1288.97,152.608 1293.5,158C 1297.73,160.882 1300.39,159.882 1301.5,155C 1303.91,154.516 1306.25,154.85 1308.5,156C 1305.76,157.362 1303.43,159.196 1301.5,161.5C 1303.21,165.29 1305.88,166.623 1309.5,165.5C 1309.46,170.303 1311.62,172.303 1316,171.5C 1316.49,170.207 1316.66,168.873 1316.5,167.5C 1318.92,167.192 1321.26,167.526 1323.5,168.5C 1321.62,174.118 1323.45,175.784 1329,173.5C 1330.04,176.963 1329.2,179.796 1326.5,182C 1326.83,182.333 1327.17,182.667 1327.5,183C 1330.39,182.246 1333.39,181.413 1336.5,180.5C 1336.22,183.118 1335.55,185.618 1334.5,188C 1335.79,190.292 1337.46,192.292 1339.5,194C 1342.7,193.227 1346.03,192.727 1349.5,192.5C 1349.67,193.822 1349.34,194.989 1348.5,196C 1342.04,198.117 1341.87,200.951 1348,204.5C 1348.77,204.355 1349.44,204.022 1350,203.5C 1350.69,198.733 1352.86,197.733 1356.5,200.5C 1356,201.5 1355.5,202.5 1355,203.5C 1353.24,204.119 1352.08,205.286 1351.5,207C 1352.87,209.2 1354.87,210.7 1357.5,211.5C 1359.28,209.977 1359.95,207.977 1359.5,205.5C 1361.48,205.383 1363.15,206.05 1364.5,207.5C 1361.44,209.019 1359.94,211.352 1360,214.5C 1372.57,225.457 1384.4,236.957 1395.5,249C 1399.53,251.308 1401.03,250.142 1400,245.5C 1394.47,239.973 1388.97,234.473 1383.5,229C 1379.82,228.991 1377.66,227.157 1377,223.5C 1373.45,220.698 1370.11,217.698 1367,214.5C 1365.62,213.036 1365.62,212.036 1367,211.5C 1368.57,212.856 1370.4,213.523 1372.5,213.5C 1372.97,217.638 1375.31,219.638 1379.5,219.5C 1379.36,223.693 1381.36,226.027 1385.5,226.5C 1386.2,231.387 1388.87,233.221 1393.5,232C 1392.02,237.026 1394.02,239.193 1399.5,238.5C 1398.26,240.773 1398.6,242.606 1400.5,244C 1402.58,244.192 1404.58,244.692 1406.5,245.5C 1405.05,247.644 1405.38,249.477 1407.5,251C 1409.59,250.782 1411.59,250.949 1413.5,251.5C 1412.69,253.071 1412.36,254.738 1412.5,256.5C 1406.34,257.133 1406.01,258.8 1411.5,261.5C 1413.57,261.215 1414.9,260.048 1415.5,258C 1417.17,257.333 1418.83,257.333 1420.5,258C 1419.38,260.619 1417.71,262.785 1415.5,264.5C 1416.74,267.144 1418.74,267.977 1421.5,267C 1422.34,265.989 1422.67,264.822 1422.5,263.5C 1424.99,263.298 1427.32,263.798 1429.5,265C 1421.21,269.593 1421.55,273.093 1430.5,275.5C 1431.09,280.281 1433.59,281.947 1438,280.5C 1438.38,278.803 1438.22,277.137 1437.5,275.5C 1440.08,276.228 1442.75,276.728 1445.5,277C 1444.62,278.356 1444.29,279.856 1444.5,281.5C 1442.86,281.714 1441.36,281.38 1440,280.5C 1437.52,284.22 1438.52,286.554 1443,287.5C 1445.3,286.935 1446.13,285.768 1445.5,284C 1454.96,281.794 1455.79,283.628 1448,289.5C 1448.19,292.356 1449.85,294.023 1453,294.5C 1455.16,293.615 1455.99,291.948 1455.5,289.5C 1465.56,288.585 1466.06,290.252 1457,294.5C 1456.2,298.863 1458.03,300.696 1462.5,300C 1463.38,298.644 1463.71,297.144 1463.5,295.5C 1466.17,295.5 1468.83,295.5 1471.5,295.5C 1471.58,296.93 1471.25,298.264 1470.5,299.5C 1462.83,301.623 1462.66,303.957 1470,306.5C 1472.21,306.443 1473.71,305.443 1474.5,303.5C 1474.51,305.308 1474.01,306.975 1473,308.5C 1470.1,309.237 1467.93,310.903 1466.5,313.5C 1451.99,303.739 1437.99,293.239 1424.5,282C 1406.35,265.764 1388.02,249.764 1369.5,234C 1346.62,209.774 1321.95,187.774 1295.5,168C 1256.42,144.245 1216.42,122.078 1175.5,101.5C 1178.24,102.205 1180.91,102.205 1183.5,101.5C 1179.43,100.31 1177.1,97.643 1176.5,93.5 Z M 1318.5,173.5 C 1320.68,173.284 1322.35,174.117 1323.5,176C 1321.21,178.026 1319.21,177.692 1317.5,175C 1318.06,174.617 1318.39,174.117 1318.5,173.5 Z M 1401.5,249.5 C 1404.47,249.626 1406.47,251.126 1407.5,254C 1402.42,256.409 1400.42,254.909 1401.5,249.5 Z"/></g>
<g><path style="opacity:0.004" fill="#1e1814" d="M 1339.5,186.5 C 1340.68,186.281 1341.68,186.614 1342.5,187.5C 1340.95,188.798 1339.95,188.465 1339.5,186.5 Z"/></g>
<g><path style="opacity:0.004" fill="#140f08" d="M 1385.5,225.5 C 1386.83,226.167 1386.83,226.167 1385.5,225.5 Z"/></g>
<g><path style="opacity:0.005" fill="#1a120d" d="M 1436.5,274.5 C 1434.62,273.659 1432.62,273.325 1430.5,273.5C 1430.24,272.022 1430.57,270.689 1431.5,269.5C 1433.41,270.348 1435.41,270.682 1437.5,270.5C 1437.57,271.959 1437.23,273.292 1436.5,274.5 Z"/></g>
<g><path style="opacity:0.154" fill="#18120e" d="M 401.5,140.5 C 398.212,143.449 394.879,146.449 391.5,149.5C 393.738,152.433 394.738,152.099 394.5,148.5C 397.684,147.357 401.017,146.691 404.5,146.5C 380.702,159.457 358.369,174.623 337.5,192C 307.065,224.105 275.065,254.438 241.5,283C 230.554,290.279 219.888,297.946 209.5,306C 197.612,313.772 185.612,321.272 173.5,328.5C 173.67,327.178 173.337,326.011 172.5,325C 174.657,323.088 176.991,321.421 179.5,320C 178.944,319.617 178.611,319.117 178.5,318.5C 180.377,317.341 180.877,315.674 180,313.5C 177.518,312.002 175.018,310.502 172.5,309C 175.833,308.333 179.167,308.333 182.5,309C 185.419,312.434 188.085,312.268 190.5,308.5C 187.992,307.263 185.992,305.43 184.5,303C 186.902,302.186 189.235,302.353 191.5,303.5C 194.783,307.588 197.45,307.088 199.5,302C 199.241,300.739 198.574,299.739 197.5,299C 194.997,298.871 192.997,297.871 191.5,296C 194.5,295.333 197.5,295.333 200.5,296C 203.306,300.572 206.306,300.572 209.5,296C 208.377,294.956 207.044,294.29 205.5,294C 204.743,292.488 203.743,291.154 202.5,290C 205.5,289.333 208.5,289.333 211.5,290C 210.542,291.147 210.875,292.147 212.5,293C 215.683,293.342 217.683,291.842 218.5,288.5C 217.169,284.978 215.336,284.645 213,287.5C 211.813,285.956 211.48,284.289 212,282.5C 213.796,283.767 215.629,283.767 217.5,282.5C 218.052,287.401 220.385,288.568 224.5,286C 225.554,284.612 225.72,283.112 225,281.5C 223.189,279.457 221.022,277.957 218.5,277C 222.9,275.664 226.566,276.664 229.5,280C 231.906,280.779 233.573,279.946 234.5,277.5C 231.91,276.073 230.244,273.907 229.5,271C 230,270.5 230.5,270 231,269.5C 233.897,271.054 236.397,270.554 238.5,268C 235.27,264.03 235.937,262.863 240.5,264.5C 241.748,263.96 242.915,263.293 244,262.5C 244.219,267.563 246.219,268.563 250,265.5C 250.698,261.349 248.865,259.016 244.5,258.5C 246.48,258.697 248.48,258.03 250.5,256.5C 251.845,257.347 252.845,258.513 253.5,260C 255.59,260.268 256.924,259.268 257.5,257C 256.87,255.108 255.87,253.441 254.5,252C 255.263,251.056 256.263,250.556 257.5,250.5C 263.719,253.167 265.053,251.333 261.5,245C 262,244.5 262.5,244 263,243.5C 264.011,244.337 265.178,244.67 266.5,244.5C 267.54,249.394 269.54,249.727 272.5,245.5C 270.401,243.849 269.067,241.682 268.5,239C 268.833,238.5 269.167,238 269.5,237.5C 272.085,238.735 274.252,240.402 276,242.5C 280.812,240.149 280.645,238.482 275.5,237.5C 275.201,235.396 275.534,233.396 276.5,231.5C 277.736,232.246 279.07,232.579 280.5,232.5C 279.491,237.64 281.491,238.807 286.5,236C 294.709,229.025 302.375,221.358 309.5,213C 312.627,210.085 315.96,207.418 319.5,205C 324.764,199.577 329.431,193.744 333.5,187.5C 332.392,184.497 330.725,183.997 328.5,186C 327.228,187.307 326.228,188.807 325.5,190.5C 319.572,195.717 313.739,201.05 308,206.5C 307.167,210 305,212.167 301.5,213C 300.707,214.085 300.04,215.252 299.5,216.5C 295.888,220.021 292.054,223.354 288,226.5C 286.97,229.632 284.803,231.298 281.5,231.5C 282.815,229.865 282.815,228.199 281.5,226.5C 283.423,225.692 285.423,225.192 287.5,225C 288.113,222.853 288.779,220.686 289.5,218.5C 294.295,219.709 296.295,217.709 295.5,212.5C 300.5,213.5 302.5,211.5 301.5,206.5C 306.983,207.193 308.983,205.026 307.5,200C 312.607,201.084 314.94,198.918 314.5,193.5C 319.983,194.193 321.983,192.026 320.5,187C 325.744,188.263 328.077,186.097 327.5,180.5C 332.479,181.35 334.479,179.517 333.5,175C 335.556,174.689 337.556,174.189 339.5,173.5C 340.711,174.274 340.711,175.107 339.5,176C 341.125,178.82 343.125,179.153 345.5,177C 346.921,172.702 345.254,170.035 340.5,169C 344.283,166.401 347.283,167.067 349.5,171C 352.094,171.449 354.094,170.449 355.5,168C 353.281,166.237 351.281,164.237 349.5,162C 352.146,161.503 354.813,161.336 357.5,161.5C 357.085,163.948 358.085,165.281 360.5,165.5C 367.302,162.243 366.969,159.743 359.5,158C 358.663,156.989 358.33,155.822 358.5,154.5C 360.857,154.337 363.19,154.503 365.5,155C 367.963,160.826 370.963,160.993 374.5,155.5C 372.056,153.105 369.39,150.938 366.5,149C 369.817,148.502 373.15,148.335 376.5,148.5C 376.78,152.225 378.78,153.392 382.5,152C 385.73,150.276 386.064,148.276 383.5,146C 380.692,145.981 378.359,144.981 376.5,143C 379.5,142.333 382.5,142.333 385.5,143C 387.659,146.834 390.659,147.501 394.5,145C 396.007,144.163 396.507,142.996 396,141.5C 384.281,137.02 384.781,135.02 397.5,135.5C 397.369,138.367 398.703,140.033 401.5,140.5 Z M 240.5,267.5 C 244.423,270.088 244.09,272.422 239.5,274.5C 238.28,274.113 237.613,273.28 237.5,272C 238.315,270.357 239.315,268.857 240.5,267.5 Z M 280.5,232.5 C 281.167,232.5 281.5,232.167 281.5,231.5C 284.803,231.298 286.97,229.632 288,226.5C 292.054,223.354 295.888,220.021 299.5,216.5C 300.04,215.252 300.707,214.085 301.5,213C 305,212.167 307.167,210 308,206.5C 313.739,201.05 319.572,195.717 325.5,190.5C 326.228,188.807 327.228,187.307 328.5,186C 330.725,183.997 332.392,184.497 333.5,187.5C 329.431,193.744 324.764,199.577 319.5,205C 315.96,207.418 312.627,210.085 309.5,213C 302.375,221.358 294.709,229.025 286.5,236C 281.491,238.807 279.491,237.64 280.5,232.5 Z M 335.5,178.5 C 337.635,178.147 338.968,178.98 339.5,181C 338.708,182.96 337.375,184.46 335.5,185.5C 332.962,183.26 332.962,180.927 335.5,178.5 Z"/></g>
<g><path style="opacity:0.004" fill="#160d08" d="M 1436.5,274.5 C 1437.17,274.5 1437.5,274.833 1437.5,275.5C 1437.17,275.167 1436.83,274.833 1436.5,274.5 Z"/></g>
<g><path style="opacity:0.006" fill="#140402" d="M 19.5,277.5 C 43.6632,276.337 67.9965,276.17 92.5,277C 90.9739,278.887 88.9739,279.887 86.5,280C 81,280.167 75.5,280.333 70,280.5C 57.4885,279.617 44.9885,279.617 32.5,280.5C 27.7624,280.865 23.4291,279.865 19.5,277.5 Z"/></g>
<g><path style="opacity:0.01" fill="#170402" d="M 1574.5,277.5 C 1597.33,276.337 1620.33,276.17 1643.5,277C 1642.45,278.385 1641.12,279.385 1639.5,280C 1619.17,280.667 1598.83,280.667 1578.5,280C 1577.02,279.338 1575.68,278.504 1574.5,277.5 Z"/></g>
<g><path style="opacity:0.006" fill="#160805" d="M 92.5,287.5 C 92.5,285.833 92.5,284.167 92.5,282.5C 94.8333,282.5 97.1667,282.5 99.5,282.5C 99.67,283.822 99.3366,284.989 98.5,286C 96.4144,286.315 94.4144,286.815 92.5,287.5 Z"/></g>
<g><path style="opacity:0.005" fill="#170704" d="M 1566.5,282.5 C 1569.4,282.125 1572.06,282.625 1574.5,284C 1572.32,286.368 1569.65,287.035 1566.5,286C 1565.32,284.855 1565.32,283.688 1566.5,282.5 Z"/></g>
<g><path style="opacity:0.004" fill="#140200" d="M 13.5,283.5 C 15.5273,283.338 17.5273,283.505 19.5,284C 17.1209,286.142 15.1209,285.976 13.5,283.5 Z"/></g>
<g><path style="opacity:0.004" fill="#160301" d="M 1644.5,286.5 C 1644.2,285.85 1643.86,285.183 1643.5,284.5C 1645.83,283.167 1648.17,283.167 1650.5,284.5C 1648.98,286.283 1646.98,286.949 1644.5,286.5 Z"/></g>
<g><path style="opacity:0.144" fill="#150605" d="M 92.5,287.5 C 93.123,292.288 95.7897,294.121 100.5,293C 101.337,291.989 101.67,290.822 101.5,289.5C 103.527,289.338 105.527,289.505 107.5,290C 105.585,291.855 103.418,293.355 101,294.5C 100.688,299.775 103.188,301.942 108.5,301C 109.747,299.542 109.747,298.042 108.5,296.5C 110.167,295.167 111.833,295.167 113.5,296.5C 112.276,301.441 114.109,303.108 119,301.5C 119.195,303.207 119.195,304.874 119,306.5C 121.243,307.971 123.743,308.971 126.5,309.5C 125.754,310.736 125.421,312.07 125.5,313.5C 119.747,313.928 119.08,316.095 123.5,320C 125.167,320.667 126.833,320.667 128.5,320C 128.988,317.824 129.988,315.991 131.5,314.5C 130.949,316.755 131.615,318.922 133.5,321C 141.159,321.5 148.826,321.666 156.5,321.5C 156.222,323.346 156.889,324.68 158.5,325.5C 161.665,325.449 164.998,325.282 168.5,325C 170.833,323.757 171.5,322.091 170.5,320C 166.448,318.663 162.448,317.329 158.5,316C 161.311,315.371 164.144,314.871 167,314.5C 169.006,315.073 170.84,315.073 172.5,314.5C 173.362,318.089 175.362,319.422 178.5,318.5C 178.611,319.117 178.944,319.617 179.5,320C 176.991,321.421 174.657,323.088 172.5,325C 173.337,326.011 173.67,327.178 173.5,328.5C 166.367,333.065 158.7,336.565 150.5,339C 143.303,341.6 136.636,340.6 130.5,336C 117.5,322.333 104.5,308.667 91.5,295C 66.4515,293.243 41.4515,293.743 16.5,296.5C 16.5,496.833 16.5,697.167 16.5,897.5C 33.8365,897.667 51.1699,897.5 68.5,897C 73.5465,896.662 78.5465,895.995 83.5,895C 87.8441,892.829 91.8441,890.163 95.5,887C 107.554,874.946 119.554,862.946 131.5,851C 136.893,849.88 142.393,849.38 148,849.5C 158.141,847.097 166.141,850.097 172,858.5C 175.308,864.95 179.474,870.783 184.5,876C 191.871,879.093 199.538,881.093 207.5,882C 247.911,888.28 288.411,893.447 329,897.5C 373.394,898.38 417.894,899.547 462.5,901C 463.337,902.011 463.67,903.178 463.5,904.5C 462.563,911.004 461.73,917.671 461,924.5C 460.51,923.207 460.343,921.873 460.5,920.5C 458.486,920.392 456.82,921.058 455.5,922.5C 452.753,920.975 449.753,919.975 446.5,919.5C 444.326,921.781 442.326,921.781 440.5,919.5C 441.333,917.833 442.167,916.167 443,914.5C 445.938,916.869 449.104,917.036 452.5,915C 455.167,913 455.167,911 452.5,909C 446.416,909.27 440.749,907.937 435.5,905C 429.753,904.692 424.086,903.859 418.5,902.5C 414.151,903.865 409.818,905.198 405.5,906.5C 400.324,906.032 395.324,904.865 390.5,903C 356.168,903.283 321.835,902.616 287.5,901C 275.696,897.165 263.529,895.332 251,895.5C 247.833,895.667 244.667,895.833 241.5,896C 240.62,897.356 240.286,898.856 240.5,900.5C 225.15,901.976 209.817,901.81 194.5,900C 196.087,899.138 197.754,898.471 199.5,898C 210.5,897.667 221.5,897.333 232.5,897C 237.856,896.704 238.523,895.037 234.5,892C 223.246,890.263 211.913,889.263 200.5,889C 194.97,887.654 189.47,886.154 184,884.5C 181.839,885.454 179.672,886.454 177.5,887.5C 176.5,887.333 175.5,887.167 174.5,887C 180.292,885.738 181.125,882.905 177,878.5C 171.642,873.947 168.809,874.947 168.5,881.5C 167.654,877.455 167.654,873.622 168.5,870C 160.127,869.193 151.794,868.526 143.5,868C 145.646,866.267 147.98,866.1 150.5,867.5C 154.147,866.514 155.314,864.181 154,860.5C 153.044,859.106 151.711,858.439 150,858.5C 147.783,859.047 145.783,860.047 144,861.5C 141.192,859.985 139.359,860.818 138.5,864C 139.101,865.605 140.101,866.938 141.5,868C 140.833,868.333 140.167,868.667 139.5,869C 135.49,869.01 131.49,869.01 127.5,869C 126.707,870.085 126.04,871.252 125.5,872.5C 126.645,873.891 126.645,875.224 125.5,876.5C 123.298,875.22 121.132,875.22 119,876.5C 118.289,878.367 118.789,879.867 120.5,881C 119.707,882.085 119.04,883.252 118.5,884.5C 120.184,888.082 119.517,888.915 116.5,887C 117.946,884.507 117.279,882.673 114.5,881.5C 112.247,882.253 110.413,883.586 109,885.5C 105.657,889.345 102.49,893.345 99.5,897.5C 94.9426,896.227 91.2759,897.561 88.5,901.5C 91.9243,902.925 95.2576,904.592 98.5,906.5C 94.5546,907.491 90.5546,907.824 86.5,907.5C 86.7035,905.61 86.0368,904.11 84.5,903C 77.4998,902.666 70.4998,902.833 63.5,903.5C 46.5613,903.175 29.7279,902.175 13,900.5C 12.1679,891.184 11.6679,881.851 11.5,872.5C 12.1942,812.834 12.8609,753.168 13.5,693.5C 13.4691,601.154 13.4691,508.987 13.5,417C 12.8075,380.353 12.1408,343.686 11.5,307C 11.8127,302.811 12.3127,298.644 13,294.5C 15.8333,292.333 18.6667,290.167 21.5,288C 44.3684,285.099 67.2017,285.265 90,288.5C 90.9021,288.257 91.7354,287.923 92.5,287.5 Z M 116.5,308.5 C 115.176,310.558 115.676,312.225 118,313.5C 120.209,310.963 119.709,309.297 116.5,308.5 Z M 140.5,323.5 C 139.496,324.683 138.662,326.016 138,327.5C 136.087,325.813 133.92,325.313 131.5,326C 130.167,327.333 130.167,328.667 131.5,330C 138.167,330.667 144.833,330.667 151.5,330C 155.619,327.426 155.452,325.26 151,323.5C 147.507,324.669 144.007,324.669 140.5,323.5 Z M 159.5,859.5 C 158.147,860.867 158.481,861.867 160.5,862.5C 163.007,860.952 162.674,859.952 159.5,859.5 Z"/></g>
<g><path style="opacity:0.004" fill="#160401" d="M 1644.5,286.5 C 1643.83,287.167 1643.83,287.167 1644.5,286.5 Z"/></g>
<g><path style="opacity:0.004" fill="#170805" d="M 1558.5,290.5 C 1559.95,289.387 1561.61,289.22 1563.5,290C 1562.04,291.628 1560.37,291.795 1558.5,290.5 Z"/></g>
<g><path style="opacity:0.043" fill="#423c3a" d="M 477.5,292.5 C 478.773,293.077 478.773,293.743 477.5,294.5C 476.537,294.03 476.537,293.363 477.5,292.5 Z"/></g>
<g><path style="opacity:0.014" fill="#160200" d="M 1660.5,293.5 C 1661.47,295.792 1662.13,298.292 1662.5,301C 1663,470.488 1662.5,639.988 1661,809.5C 1660.58,808.328 1659.91,807.328 1659,806.5C 1658.17,776.506 1657.67,746.506 1657.5,716.5C 1657.71,590.756 1657.71,465.089 1657.5,339.5C 1657.73,328.83 1658.06,318.163 1658.5,307.5C 1658.56,302.583 1659.23,297.917 1660.5,293.5 Z"/></g>
<g><path style="opacity:0.014" fill="#150100" d="M 0.5,294.5 C 1.82207,294.33 2.98873,294.663 4,295.5C 4.5,497.166 4.66667,698.833 4.5,900.5C 3.16667,900.5 1.83333,900.5 0.5,900.5C 0.5,698.5 0.5,496.5 0.5,294.5 Z"/></g>
<g><path style="opacity:0.004" fill="#160804" d="M 1555.5,296.5 C 1555.9,295.475 1556.56,295.308 1557.5,296C 1556.91,296.464 1556.24,296.631 1555.5,296.5 Z"/></g>
<g><path style="opacity:0.157" fill="#4c4745" d="M 471.5,298.5 C 474.185,297.113 475.852,298.113 476.5,301.5C 476.167,301.833 475.833,302.167 475.5,302.5C 474.995,300.231 473.662,298.897 471.5,298.5 Z"/></g>
<g><path style="opacity:0.463" fill="#4f4245" d="M 480.5,299.5 C 481.776,300.386 481.776,301.386 480.5,302.5C 479.438,301.575 479.438,300.575 480.5,299.5 Z"/></g>
<g><path style="opacity:0.157" fill="#4c4445" d="M 481.5,307.5 C 484.125,308.466 484.125,309.466 481.5,310.5C 480.913,309.767 480.913,308.767 481.5,307.5 Z"/></g>
<g><path style="opacity:1" fill="#4d4745" d="M 480.5,313.5 C 482.603,315.018 482.77,316.685 481,318.5C 477.914,316.998 477.748,315.331 480.5,313.5 Z"/></g>
<g><path style="opacity:0.282" fill="#4c4647" d="M 480.5,320.5 C 482.337,320.639 482.67,321.306 481.5,322.5C 480.702,322.043 480.369,321.376 480.5,320.5 Z"/></g>
<g><path style="opacity:0.259" fill="#443e41" d="M 477.5,325.5 C 483.152,325.962 484.985,328.962 483,334.5C 483.502,329.006 481.002,326.506 475.5,327C 476.416,326.722 477.082,326.222 477.5,325.5 Z"/></g>
<g><path style="opacity:0.14" fill="#1d100d" d="M 1572.5,292.5 C 1573.75,292.523 1575.08,293.189 1576.5,294.5C 1573.46,296.456 1570.63,298.79 1568,301.5C 1559.56,313.177 1550.06,324.01 1539.5,334C 1532.82,339.588 1525.15,341.588 1516.5,340C 1498.56,333.53 1481.89,324.697 1466.5,313.5C 1467.93,310.903 1470.1,309.237 1473,308.5C 1474.01,306.975 1474.51,305.308 1474.5,303.5C 1475.17,302.733 1476.01,302.066 1477,301.5C 1479.07,302.264 1481.24,302.764 1483.5,303C 1480.79,304.128 1478.29,305.628 1476,307.5C 1476.69,313.717 1479.52,314.884 1484.5,311C 1484.04,310.586 1483.71,310.086 1483.5,309.5C 1487.12,308.341 1490.79,308.175 1494.5,309C 1491.92,311.207 1489.09,313.04 1486,314.5C 1485.49,315.996 1485.99,317.163 1487.5,318C 1492.1,320.869 1494.44,319.702 1494.5,314.5C 1498.38,314.085 1502.04,314.585 1505.5,316C 1504.83,316.667 1504.17,317.333 1503.5,318C 1500.91,318.226 1498.41,318.726 1496,319.5C 1495.44,322.298 1496.61,324.131 1499.5,325C 1502.58,326.09 1504.91,325.257 1506.5,322.5C 1512.83,321.167 1519.17,321.167 1525.5,322.5C 1524.2,324.367 1522.7,324.7 1521,323.5C 1517.5,324.932 1514,325.432 1510.5,325C 1507.87,327.789 1508.54,329.789 1512.5,331C 1518.54,330.419 1524.54,330.085 1530.5,330C 1530.96,329.586 1531.29,329.086 1531.5,328.5C 1530.56,326.228 1529.23,324.228 1527.5,322.5C 1528.33,321.585 1529.33,320.919 1530.5,320.5C 1532.07,321.309 1533.74,321.643 1535.5,321.5C 1534.7,322.423 1534.53,323.423 1535,324.5C 1539.26,327.139 1541.76,325.805 1542.5,320.5C 1547.1,319.783 1548.76,317.283 1547.5,313C 1546.21,312.51 1544.87,312.343 1543.5,312.5C 1542.95,310.669 1542.95,309.003 1543.5,307.5C 1545.7,308.78 1547.87,308.78 1550,307.5C 1549.79,305.249 1549.63,302.915 1549.5,300.5C 1552.61,301.413 1555.61,302.246 1558.5,303C 1560.66,301.355 1562,299.188 1562.5,296.5C 1565.77,294.967 1569.1,293.634 1572.5,292.5 Z M 1541.5,319.5 C 1541.5,320.167 1541.83,320.5 1542.5,320.5C 1541.76,325.805 1539.26,327.139 1535,324.5C 1534.53,323.423 1534.7,322.423 1535.5,321.5C 1536.17,321.5 1536.5,321.167 1536.5,320.5C 1538.04,319.699 1539.71,319.366 1541.5,319.5 Z"/></g>
<g><path style="opacity:0.008" fill="#1a0b08" d="M 1541.5,319.5 C 1539.71,319.366 1538.04,319.699 1536.5,320.5C 1536.5,318.5 1536.5,316.5 1536.5,314.5C 1538.6,314.201 1540.6,314.534 1542.5,315.5C 1541.75,316.736 1541.42,318.07 1541.5,319.5 Z"/></g>
<g><path style="opacity:0.024" fill="#423a3d" d="M 476.5,333.5 C 477.5,333.833 478.167,334.5 478.5,335.5C 477.167,335.5 476.5,334.833 476.5,333.5 Z"/></g>
<g><path style="opacity:1" fill="#98a09d" d="M 240.5,400.5 C 240.5,400.833 240.5,401.167 240.5,401.5C 188.167,401.5 135.833,401.5 83.5,401.5C 83.5,403.167 83.5,404.833 83.5,406.5C 83.8323,460.003 83.4989,513.336 82.5,566.5C 82.5,511.167 82.5,455.833 82.5,400.5C 135.088,400.241 187.755,400.241 240.5,400.5 Z"/></g>
<g><path style="opacity:1" fill="#b8bab9" d="M 346.5,400.5 C 357.014,400.172 367.347,400.506 377.5,401.5C 331.833,401.5 286.167,401.5 240.5,401.5C 240.5,401.167 240.5,400.833 240.5,400.5C 275.874,399.806 311.207,399.806 346.5,400.5 Z"/></g>
<g><path style="opacity:1" fill="#7e8690" d="M 346.5,400.5 C 504.178,400.425 662.178,400.425 820.5,400.5C 673.001,401.5 525.334,401.833 377.5,401.5C 367.347,400.506 357.014,400.172 346.5,400.5 Z"/></g>
<g><path style="opacity:1" fill="#e7e9e8" d="M 1263.5,401.5 C 1317.33,402.333 1371.33,402.833 1425.5,403C 1385.66,403.123 1345.99,403.957 1306.5,405.5C 981.831,405.808 657.164,405.474 332.5,404.5C 251.335,403.501 170.002,403.167 88.5,403.5C 87.1667,403.5 85.8333,403.5 84.5,403.5C 84.7373,404.791 84.404,405.791 83.5,406.5C 83.5,404.833 83.5,403.167 83.5,401.5C 135.833,401.5 188.167,401.5 240.5,401.5C 286.167,401.5 331.833,401.5 377.5,401.5C 525.334,401.833 673.001,401.5 820.5,400.5C 882.002,400.561 943.502,400.228 1005,399.5C 1047.02,399.681 1089.02,400.348 1131,401.5C 1174.79,401.248 1218.96,401.248 1263.5,401.5 Z"/></g>
<g><path style="opacity:1" fill="#a2a9aa" d="M 88.5,403.5 C 170.002,403.167 251.335,403.501 332.5,404.5C 251.556,404.514 170.723,404.514 90,404.5C 88.5421,410.988 88.0421,417.655 88.5,424.5C 87.1901,417.599 87.1901,410.599 88.5,403.5 Z"/></g>
<g><path style="opacity:0.068" fill="#343539" d="M 1153.5,430.5 C 1155.34,430.639 1155.67,431.306 1154.5,432.5C 1153.7,432.043 1153.37,431.376 1153.5,430.5 Z"/></g>
<g><path style="opacity:0.61" fill="#373d3d" d="M 840.5,430.5 C 844.3,430.819 844.466,431.819 841,433.5C 839.272,432.648 839.105,431.648 840.5,430.5 Z"/></g>
<g><path style="opacity:1" fill="#fdfdfd" d="M 492.5,438.5 C 650.224,439.683 808.724,439.683 968,438.5C 1062.9,439.323 1157.57,440.323 1252,441.5C 1280.34,440.953 1308.51,440.953 1336.5,441.5C 1338.37,441.61 1339.87,440.944 1341,439.5C 1344.2,440.673 1347.53,441.339 1351,441.5C 1364.48,440.584 1377.98,440.251 1391.5,440.5C 1391.5,441.833 1391.5,443.167 1391.5,444.5C 1380.51,445.153 1369.51,445.653 1358.5,446C 1360.76,447.715 1362.93,449.548 1365,451.5C 1375.23,465.457 1384.06,480.29 1391.5,496C 1385.67,494.173 1379.67,492.506 1373.5,491C 1336.01,490.073 1298.51,489.573 1261,489.5C 931.305,490.268 601.471,490.768 271.5,491C 264.142,491.863 256.809,492.529 249.5,493C 256.386,484.448 262.886,475.614 269,466.5C 271.246,462.509 273.079,458.343 274.5,454C 274.22,452.605 273.553,451.438 272.5,450.5C 269.508,449.387 266.675,448.054 264,446.5C 263.506,444.866 263.34,443.199 263.5,441.5C 339.993,440.428 416.327,439.428 492.5,438.5 Z M 341.5,444.5 C 324.008,445.497 306.341,445.83 288.5,445.5C 288.5,449.833 288.5,454.167 288.5,458.5C 435.657,457.815 582.824,457.148 730,456.5C 937.086,456.62 1144.25,456.62 1351.5,456.5C 1351.5,453.167 1351.5,449.833 1351.5,446.5C 1270.8,445.911 1190.13,445.244 1109.5,444.5C 853.752,444.542 597.752,444.542 341.5,444.5 Z"/></g>
<g><path style="opacity:1" fill="#e4e7e8" d="M 88.5,403.5 C 87.1901,410.599 87.1901,417.599 88.5,424.5C 88.5,472.5 88.5,520.5 88.5,568.5C 87.6672,619.665 87.1672,670.998 87,722.5C 86.6667,680.833 86.3333,639.167 86,597.5C 84.8023,644.823 84.1357,692.156 84,739.5C 83.8255,734.649 83.3255,729.982 82.5,725.5C 82.2756,672.518 82.2756,619.518 82.5,566.5C 83.4989,513.336 83.8323,460.003 83.5,406.5C 84.404,405.791 84.7373,404.791 84.5,403.5C 85.8333,403.5 87.1667,403.5 88.5,403.5 Z"/></g>
<g><path style="opacity:1" fill="#b5b7b3" d="M 1580.5,795.5 C 1580.5,748.5 1580.5,701.5 1580.5,654.5C 1580.56,601.828 1580.06,549.162 1579,496.5C 1578.67,512.167 1578.33,527.833 1578,543.5C 1577.62,542.944 1577.12,542.611 1576.5,542.5C 1576.83,496.997 1576.5,451.664 1575.5,406.5C 1486,405.501 1396.33,405.167 1306.5,405.5C 1345.99,403.957 1385.66,403.123 1425.5,403C 1371.33,402.833 1317.33,402.333 1263.5,401.5C 1368.5,401.114 1473.5,400.614 1578.5,400C 1579,400.5 1579.5,401 1580,401.5C 1581.16,467.419 1581.66,533.419 1581.5,599.5C 1581.5,665.001 1581.17,730.334 1580.5,795.5 Z"/></g>
<g><path style="opacity:1" fill="#fefffe" d="M 1064.5,512.5 C 1075.39,511.8 1086.06,512.967 1096.5,516C 1106.78,519.744 1109.78,526.577 1105.5,536.5C 1102.84,539.512 1099.84,540.012 1096.5,538C 1092.45,533.62 1088.79,528.954 1085.5,524C 1073.45,518.092 1064.95,521.592 1060,534.5C 1057.36,543.644 1056.03,552.977 1056,562.5C 1055.5,590.165 1055.33,617.831 1055.5,645.5C 1063.83,645.5 1072.17,645.5 1080.5,645.5C 1080.5,649.5 1080.5,653.5 1080.5,657.5C 1072.17,657.5 1063.83,657.5 1055.5,657.5C 1055.33,682.836 1055.5,708.169 1056,733.5C 1056.58,736.797 1058.58,738.464 1062,738.5C 1065.9,737.756 1069.57,736.423 1073,734.5C 1073.83,736.167 1074.67,737.833 1075.5,739.5C 1059.29,752.363 1041.62,754.863 1022.5,747C 1019.19,744.222 1017.03,740.722 1016,736.5C 1014.56,710.204 1014.06,683.871 1014.5,657.5C 999.833,657.5 985.167,657.5 970.5,657.5C 970.667,680.836 970.5,704.169 970,727.5C 966.527,751.303 953.694,767.803 931.5,777C 913.606,783.449 895.272,785.116 876.5,782C 870.072,780.711 864.905,777.544 861,772.5C 859.888,766.837 861.388,762.004 865.5,758C 867.365,756.699 869.365,756.365 871.5,757C 880.729,774.964 894.396,779.297 912.5,770C 922.279,762.283 927.779,752.116 929,739.5C 929.5,712.169 929.667,684.835 929.5,657.5C 922.167,657.5 914.833,657.5 907.5,657.5C 907.5,653.5 907.5,649.5 907.5,645.5C 914.833,645.5 922.167,645.5 929.5,645.5C 929.667,621.164 929.5,596.831 929,572.5C 927.361,569.771 924.861,568.438 921.5,568.5C 906.434,570.112 894.268,576.778 885,588.5C 881.294,595.069 881.794,601.236 886.5,607C 887.872,607.402 889.205,607.902 890.5,608.5C 895.688,606.79 900.521,604.456 905,601.5C 911.628,602.869 915.128,607.036 915.5,614C 913.972,627.027 906.639,633.527 893.5,633.5C 876.786,632.45 868.119,623.45 867.5,606.5C 868.555,593.223 874.221,582.39 884.5,574C 908.498,558.112 934.498,553.445 962.5,560C 966.085,561.916 968.585,564.749 970,568.5C 970.5,594.165 970.667,619.831 970.5,645.5C 985.167,645.5 999.833,645.5 1014.5,645.5C 1014.33,624.164 1014.5,602.831 1015,581.5C 1014.99,558.178 1023.49,538.678 1040.5,523C 1047.97,518.095 1055.97,514.595 1064.5,512.5 Z"/></g>
<g><path style="opacity:1" fill="#fefffe" d="M 196.5,556.5 C 216.913,555.174 236.913,557.341 256.5,563C 279.798,574.104 287.298,591.938 279,616.5C 273.909,626.091 266.409,633.091 256.5,637.5C 282.576,643.082 296.243,659.249 297.5,686C 296.905,710.553 285.238,727.22 262.5,736C 243.845,741.208 224.845,742.874 205.5,741C 197.904,740.481 190.571,738.814 183.5,736C 175.173,732.189 170.673,725.689 170,716.5C 169.667,669.167 169.333,621.833 169,574.5C 168.5,574 168,573.5 167.5,573C 154.395,570.274 142.395,572.941 131.5,581C 124.649,586.199 121.815,593.032 123,601.5C 124.039,605.371 126.539,607.705 130.5,608.5C 135.55,606.558 140.383,604.225 145,601.5C 154.074,604.692 157.074,611.026 154,620.5C 151.762,627.07 147.262,631.237 140.5,633C 120.382,635.88 109.382,627.213 107.5,607C 108.52,586.971 118.52,573.637 137.5,567C 156.8,560.674 176.467,557.174 196.5,556.5 Z M 219.5,567.5 C 216.267,568.895 213.767,571.228 212,574.5C 211.333,624.167 211.333,673.833 212,723.5C 212.707,725.081 213.54,726.581 214.5,728C 221.815,732.65 229.148,732.65 236.5,728C 249.213,718.238 255.547,705.238 255.5,689C 255.383,661.895 242.05,646.229 215.5,642C 216.308,639.912 217.308,637.912 218.5,636C 231.668,635.828 239.835,629.328 243,616.5C 245.623,606.074 245.623,595.741 243,585.5C 239.592,573.579 231.759,567.579 219.5,567.5 Z"/></g>
<g><path style="opacity:0.973" fill="#cfd7d5" d="M 448.5,567.5 C 462.124,565.966 470.457,571.799 473.5,585C 471.321,596.173 464.487,602.007 453,602.5C 438.94,601.639 432.273,594.305 433,580.5C 436.141,573.689 441.307,569.356 448.5,567.5 Z"/></g>
<g><path style="opacity:1" fill="#fefffe" d="M 772.5,578.5 C 776.167,578.5 779.833,578.5 783.5,578.5C 783.5,590.5 783.5,602.5 783.5,614.5C 792.541,614.717 801.541,614.217 810.5,613C 811.451,612.282 811.617,611.449 811,610.5C 804.153,608.152 802.32,603.818 805.5,597.5C 814.617,592.618 819.951,595.451 821.5,606C 821.47,615.095 817.137,620.762 808.5,623C 800.173,623.5 791.84,623.666 783.5,623.5C 783.333,655.502 783.5,687.502 784,719.5C 787.92,724.949 792.753,725.782 798.5,722C 801,718.833 803.5,715.667 806,712.5C 807.011,713.337 808.178,713.67 809.5,713.5C 803.14,734.701 788.807,743.867 766.5,741C 754.904,739.405 747.738,732.905 745,721.5C 744.5,688.835 744.333,656.168 744.5,623.5C 739.833,623.5 735.167,623.5 730.5,623.5C 730.216,620.223 730.549,617.057 731.5,614C 752.756,610.91 766.423,599.076 772.5,578.5 Z"/></g>
<g><path style="opacity:1" fill="#d5e3e2" d="M 1580.5,654.5 C 1579.67,662.323 1579.17,670.323 1579,678.5C 1578.67,679.833 1578.33,681.167 1578,682.5C 1577.82,678.312 1577.32,674.312 1576.5,670.5C 1576.5,627.833 1576.5,585.167 1576.5,542.5C 1577.12,542.611 1577.62,542.944 1578,543.5C 1578.33,527.833 1578.67,512.167 1579,496.5C 1580.06,549.162 1580.56,601.828 1580.5,654.5 Z"/></g>
<g><path style="opacity:1" fill="#fefffe" d="M 367.5,612.5 C 379.033,611.322 390.033,613.156 400.5,618C 410.406,624.384 413.573,633.217 410,644.5C 408.533,647.266 406.7,649.766 404.5,652C 387.249,662.877 369.749,673.377 352,683.5C 353.317,705.15 364.483,718.65 385.5,724C 397.511,724.413 407.678,720.247 416,711.5C 417.167,712.667 418.333,713.833 419.5,715C 400.479,739.116 376.146,746.783 346.5,738C 322.349,726.388 310.682,707.054 311.5,680C 313.282,643.392 331.949,620.892 367.5,612.5 Z M 366.5,625.5 C 363.155,626.605 360.322,628.605 358,631.5C 351.771,644.422 349.438,658.088 351,672.5C 359.751,667.207 368.585,662.041 377.5,657C 380.389,651.879 381.223,646.379 380,640.5C 379.088,632.096 374.588,627.096 366.5,625.5 Z"/></g>
<g><path style="opacity:1" fill="#fefffe" d="M 445.5,612.5 C 451.593,612.139 457.593,612.639 463.5,614C 469.171,616.338 472.671,620.505 474,626.5C 474.667,661.833 474.667,697.167 474,732.5C 472.219,737.324 468.719,740.158 463.5,741C 456.766,741.829 450.099,741.496 443.5,740C 440.667,738.5 438.5,736.333 437,733.5C 436.667,699.833 436.333,666.167 436,632.5C 433.522,625.342 429.189,624.008 423,628.5C 421.726,627.465 420.56,626.298 419.5,625C 427.338,618.913 436.005,614.746 445.5,612.5 Z"/></g>
<g><path style="opacity:1" fill="#fefffe" d="M 514.5,612.5 C 533.056,609.893 543.222,617.893 545,636.5C 550.966,625.865 559.466,618.032 570.5,613C 582.099,610.625 588.432,615.292 589.5,627C 588.976,632.883 587.642,638.55 585.5,644C 584.056,644.781 582.723,644.614 581.5,643.5C 579.593,638.791 576.093,636.125 571,635.5C 560.927,637.576 552.261,642.243 545,649.5C 544.667,676.833 544.333,704.167 544,731.5C 542.735,737.062 539.235,740.228 533.5,741C 526.766,741.829 520.099,741.496 513.5,740C 510.667,738.5 508.5,736.333 507,733.5C 506.667,700.5 506.333,667.5 506,634.5C 504.381,625.771 499.881,623.771 492.5,628.5C 491.167,627.833 490.167,626.833 489.5,625.5C 496.623,618.772 504.956,614.439 514.5,612.5 Z"/></g>
<g><path style="opacity:1" fill="#fefffe" d="M 614.5,612.5 C 622.681,611.549 630.347,613.049 637.5,617C 639.359,618.558 640.859,620.391 642,622.5C 643.303,653.452 643.97,684.452 644,715.5C 645.567,719.078 648.233,721.078 652,721.5C 661.068,719.46 668.068,714.46 673,706.5C 673.667,682.833 673.667,659.167 673,635.5C 672.882,630.457 670.382,628.623 665.5,630C 663.446,633.7 660.946,634.2 658,631.5C 667.366,615.803 681.199,609.97 699.5,614C 706.219,616.052 710.052,620.552 711,627.5C 711.333,659.167 711.667,690.833 712,722.5C 712.775,724.223 714.108,725.223 716,725.5C 718.898,724.437 721.398,722.77 723.5,720.5C 724.833,721.167 725.833,722.167 726.5,723.5C 715.448,740.022 700.448,745.189 681.5,739C 674.82,734.328 671.987,727.828 673,719.5C 664.525,728.312 654.691,735.145 643.5,740C 623.98,745.497 611.48,738.664 606,719.5C 605.667,690.833 605.333,662.167 605,633.5C 604.773,630.94 603.44,629.274 601,628.5C 598.078,629.755 595.411,631.422 593,633.5C 591.566,633.07 590.399,632.236 589.5,631C 595.759,621.886 604.092,615.72 614.5,612.5 Z"/></g>
<g><path style="opacity:1" fill="#fefffe" d="M 1140.5,612.5 C 1176.79,610.304 1198.29,626.971 1205,662.5C 1208.45,684.514 1203.78,704.514 1191,722.5C 1173.22,741.126 1152.06,746.292 1127.5,738C 1107.36,728.581 1095.86,712.748 1093,690.5C 1089.54,668.471 1094.2,648.471 1107,630.5C 1116.18,620.662 1127.35,614.662 1140.5,612.5 Z M 1146.5,625.5 C 1140.87,628.011 1137.03,632.345 1135,638.5C 1130.9,659.015 1129.9,679.682 1132,700.5C 1132.61,710.013 1135.78,718.513 1141.5,726C 1151.28,730.531 1158.12,727.697 1162,717.5C 1169.29,690.163 1169.29,662.83 1162,635.5C 1159.21,628.519 1154.04,625.186 1146.5,625.5 Z"/></g>
<g><path style="opacity:1" fill="#fefffe" d="M 1239.5,612.5 C 1246.03,611.988 1252.36,612.822 1258.5,615C 1261.67,616.833 1264.17,619.333 1266,622.5C 1267.31,653.106 1267.98,683.772 1268,714.5C 1269.14,718.649 1271.81,720.982 1276,721.5C 1280.31,721.176 1284.14,719.676 1287.5,717C 1290.67,713.833 1293.83,710.667 1297,707.5C 1297.67,682.833 1297.67,658.167 1297,633.5C 1296.9,630.565 1295.4,629.231 1292.5,629.5C 1289.67,630.156 1287.17,631.49 1285,633.5C 1283.57,633.07 1282.4,632.236 1281.5,631C 1291.71,615.891 1305.71,610.224 1323.5,614C 1329.77,615.934 1333.6,620.1 1335,626.5C 1335.33,658.5 1335.67,690.5 1336,722.5C 1336.78,724.223 1338.11,725.223 1340,725.5C 1342.9,724.437 1345.4,722.77 1347.5,720.5C 1348.83,721.167 1349.83,722.167 1350.5,723.5C 1338.02,741.661 1321.86,745.994 1302,736.5C 1298.19,731.512 1296.53,725.846 1297,719.5C 1287.91,729.925 1276.75,737.091 1263.5,741C 1245.05,744.203 1233.88,736.703 1230,718.5C 1229.67,689.833 1229.33,661.167 1229,632.5C 1228.33,630.5 1227,629.167 1225,628.5C 1222.08,629.755 1219.41,631.422 1217,633.5C 1215.57,633.07 1214.4,632.236 1213.5,631C 1219.99,621.605 1228.66,615.438 1239.5,612.5 Z"/></g>
<g><path style="opacity:1" fill="#fefffe" d="M 1389.5,612.5 C 1403.22,610.949 1415.88,613.783 1427.5,621C 1432.97,626.803 1434.81,633.636 1433,641.5C 1429.34,648.07 1423.84,650.237 1416.5,648C 1412.02,645.881 1410.18,642.381 1411,637.5C 1413.03,634.302 1415.53,631.635 1418.5,629.5C 1418.12,627.617 1417.12,626.117 1415.5,625C 1407.9,621.386 1401.07,622.552 1395,628.5C 1391.95,635.332 1392.95,641.665 1398,647.5C 1409.75,658.916 1421.08,670.582 1432,682.5C 1441.6,696.978 1441.94,711.644 1433,726.5C 1426.51,734.828 1418.01,739.661 1407.5,741C 1391.18,743.586 1376.51,739.919 1363.5,730C 1359.73,726.903 1356.73,723.236 1354.5,719C 1355.17,717.153 1356.5,715.986 1358.5,715.5C 1364.63,722.4 1372.3,726.4 1381.5,727.5C 1398.69,726.153 1404.19,717.487 1398,701.5C 1387.33,688.833 1376.67,676.167 1366,663.5C 1352.81,636.56 1360.64,619.56 1389.5,612.5 Z"/></g>
<g><path style="opacity:1" fill="#fefffe" d="M 1510.5,612.5 C 1522.54,611.141 1533.87,613.308 1544.5,619C 1556.73,630.231 1557.06,641.565 1545.5,653C 1528.5,663.167 1511.5,673.333 1494.5,683.5C 1495.35,702.542 1504.69,715.709 1522.5,723C 1536.5,725.921 1548.33,722.088 1558,711.5C 1559.35,712.685 1560.52,714.019 1561.5,715.5C 1541.67,740.11 1516.67,747.276 1486.5,737C 1464.66,725.18 1453.66,706.68 1453.5,681.5C 1454.85,643.742 1473.85,620.742 1510.5,612.5 Z M 1508.5,625.5 C 1505.67,626.51 1503.17,628.177 1501,630.5C 1494.27,643.656 1491.6,657.656 1493,672.5C 1500.83,668 1508.67,663.5 1516.5,659C 1519,657.833 1520.83,656 1522,653.5C 1522.8,647.431 1522.47,641.431 1521,635.5C 1519.33,628.99 1515.16,625.657 1508.5,625.5 Z"/></g>
<g><path style="opacity:1" fill="#b1bbb8" d="M 1575.5,406.5 C 1576.5,451.664 1576.83,496.997 1576.5,542.5C 1576.5,585.167 1576.5,627.833 1576.5,670.5C 1576.5,711.5 1576.5,752.5 1576.5,793.5C 1576.5,794.833 1576.5,796.167 1576.5,797.5C 1537.83,797.333 1499.17,797.5 1460.5,798C 1457.17,798.333 1453.83,798.667 1450.5,799C 1451.06,799.383 1451.39,799.883 1451.5,800.5C 1445.79,800.829 1440.13,800.495 1434.5,799.5C 1437.31,798.832 1439.97,798.166 1442.5,797.5C 1486.82,796.566 1531.16,796.233 1575.5,796.5C 1575.5,666.5 1575.5,536.5 1575.5,406.5 Z"/></g>
<g><path style="opacity:1" fill="#edf0f0" d="M 1580.5,654.5 C 1580.5,701.5 1580.5,748.5 1580.5,795.5C 1580.5,796.167 1580.5,796.833 1580.5,797.5C 1579.7,796.048 1579.2,794.382 1579,792.5C 1578.67,792.167 1578.33,791.833 1578,791.5C 1577.72,792.416 1577.22,793.082 1576.5,793.5C 1576.5,752.5 1576.5,711.5 1576.5,670.5C 1577.32,674.312 1577.82,678.312 1578,682.5C 1578.33,681.167 1578.67,679.833 1579,678.5C 1579.17,670.323 1579.67,662.323 1580.5,654.5 Z"/></g>
<g><path style="opacity:1" fill="#bec1c3" d="M 88.5,568.5 C 88.316,644.21 88.316,719.876 88.5,795.5C 141.332,796.167 193.998,796.833 246.5,797.5C 212.498,797.333 178.498,797.5 144.5,798C 133.001,798.705 121.668,799.538 110.5,800.5C 101.167,800.5 91.8333,800.5 82.5,800.5C 82.5,775.5 82.5,750.5 82.5,725.5C 83.3255,729.982 83.8255,734.649 84,739.5C 84.1357,692.156 84.8023,644.823 86,597.5C 86.3333,639.167 86.6667,680.833 87,722.5C 87.1672,670.998 87.6672,619.665 88.5,568.5 Z"/></g>
<g><path style="opacity:1" fill="#d4d1ca" d="M 246.5,797.5 C 245.391,798.29 244.058,798.79 242.5,799C 198.496,799.322 154.496,799.822 110.5,800.5C 121.668,799.538 133.001,798.705 144.5,798C 178.498,797.5 212.498,797.333 246.5,797.5 Z"/></g>
<g><path style="opacity:1" fill="#d1d7d5" d="M 1580.5,797.5 C 1580.66,799.199 1580.49,800.866 1580,802.5C 1579.62,801.944 1579.12,801.611 1578.5,801.5C 1536.34,800.501 1494,800.168 1451.5,800.5C 1451.39,799.883 1451.06,799.383 1450.5,799C 1453.83,798.667 1457.17,798.333 1460.5,798C 1499.17,797.5 1537.83,797.333 1576.5,797.5C 1576.5,796.167 1576.5,794.833 1576.5,793.5C 1577.22,793.082 1577.72,792.416 1578,791.5C 1578.33,791.833 1578.67,792.167 1579,792.5C 1579.2,794.382 1579.7,796.048 1580.5,797.5 Z"/></g>
<g><path style="opacity:1" fill="#9e8e82" d="M 246.5,797.5 C 287.84,797.303 329.173,797.636 370.5,798.5C 329.5,799.167 288.5,799.833 247.5,800.5C 192.705,801.259 137.705,801.259 82.5,800.5C 91.8333,800.5 101.167,800.5 110.5,800.5C 154.496,799.822 198.496,799.322 242.5,799C 244.058,798.79 245.391,798.29 246.5,797.5 Z"/></g>
<g><path style="opacity:1" fill="#8d6e61" d="M 370.5,798.5 C 379.167,798.5 387.833,798.5 396.5,798.5C 404.323,799.329 412.323,799.829 420.5,800C 394.502,800.5 368.502,800.667 342.5,800.5C 310.833,800.5 279.167,800.5 247.5,800.5C 288.5,799.833 329.5,799.167 370.5,798.5 Z"/></g>
<g><path style="opacity:1" fill="#503635" d="M 495.5,798.5 C 520.728,798.598 545.895,798.598 571,798.5C 577.991,799.653 584.991,800.653 592,801.5C 593.626,800.982 595.293,800.648 597,800.5C 604.397,801.057 611.731,801.724 619,802.5C 630.875,802.377 642.541,802.044 654,801.5C 662.755,802.319 671.589,802.819 680.5,803C 610.994,803.731 541.661,803.231 472.5,801.5C 487.834,801.095 503.167,800.595 518.5,800C 510.656,799.829 502.989,799.329 495.5,798.5 Z"/></g>
<g><path style="opacity:0.302" fill="#4c3f39" d="M 870.5,801.5 C 866.018,802.326 861.351,802.826 856.5,803C 862.157,803.499 867.824,803.666 873.5,803.5C 820.131,803.769 766.798,804.103 713.5,804.5C 709.445,804.425 705.445,803.925 701.5,803C 723.857,802.813 746.191,802.313 768.5,801.5C 788.537,803.023 808.537,802.356 828.5,799.5C 842.572,800.764 856.572,801.431 870.5,801.5 Z"/></g>
<g><path style="opacity:0.978" fill="#704e48" d="M 396.5,798.5 C 429.5,798.5 462.5,798.5 495.5,798.5C 502.989,799.329 510.656,799.829 518.5,800C 503.167,800.595 487.834,801.095 472.5,801.5C 429.005,802.304 385.671,801.971 342.5,800.5C 368.502,800.667 394.502,800.5 420.5,800C 412.323,799.829 404.323,799.329 396.5,798.5 Z"/></g>
<g><path style="opacity:0.168" fill="#5d4b4e" d="M 994.5,801.5 C 988.167,801.5 981.833,801.5 975.5,801.5C 964.495,801.333 953.495,801.5 942.5,802C 940.942,802.21 939.609,802.71 938.5,803.5C 916.833,803.5 895.167,803.5 873.5,803.5C 867.824,803.666 862.157,803.499 856.5,803C 861.351,802.826 866.018,802.326 870.5,801.5C 911.833,800.167 953.167,800.167 994.5,801.5 Z"/></g>
<g><path style="opacity:1" fill="#9c9096" d="M 1442.5,797.5 C 1439.97,798.166 1437.31,798.832 1434.5,799.5C 1440.13,800.495 1445.79,800.829 1451.5,800.5C 1494,800.168 1536.34,800.501 1578.5,801.5C 1413.17,802.222 1247.83,802.555 1082.5,802.5C 1046.66,802.832 1011,802.498 975.5,801.5C 981.833,801.5 988.167,801.5 994.5,801.5C 1109.17,801.643 1223.84,801.143 1338.5,800C 1373.18,799.678 1407.85,798.844 1442.5,797.5 Z"/></g>
<g><path style="opacity:1" fill="#857c7c" d="M 975.5,801.5 C 1011,802.498 1046.66,802.832 1082.5,802.5C 1034.67,803.499 986.67,803.832 938.5,803.5C 939.609,802.71 940.942,802.21 942.5,802C 953.495,801.5 964.495,801.333 975.5,801.5 Z"/></g>
<g><path style="opacity:0.004" fill="#150200" d="M 1667.5,809.5 C 1667.5,812.833 1667.5,816.167 1667.5,819.5C 1666.17,816.167 1666.17,812.833 1667.5,809.5 Z"/></g>
<g><path style="opacity:0.011" fill="#150200" d="M 1660.5,819.5 C 1661.29,820.609 1661.79,821.942 1662,823.5C 1662.67,839.5 1662.67,855.5 1662,871.5C 1661.8,873.256 1661.3,874.922 1660.5,876.5C 1659.91,876.291 1659.41,875.957 1659,875.5C 1658.33,857.5 1658.33,839.5 1659,821.5C 1659.72,820.956 1660.22,820.289 1660.5,819.5 Z"/></g>
<g><path style="opacity:0.196" fill="#190e0d" d="M 1643.5,287.5 C 1644.78,290.617 1646.95,292.95 1650,294.5C 1651.01,298.877 1652.18,303.21 1653.5,307.5C 1652.38,310.07 1651.55,312.737 1651,315.5C 1649.57,335.718 1649.74,355.885 1651.5,376C 1650.32,387.972 1649.66,399.972 1649.5,412C 1650.5,458.643 1650.5,505.31 1649.5,552C 1650.07,629.166 1650.57,706.333 1651,783.5C 1651.33,789.5 1651.67,795.5 1652,801.5C 1656.63,809.232 1656.63,816.898 1652,824.5C 1649.22,844.298 1650.72,863.631 1656.5,882.5C 1655.75,885.777 1655.25,889.11 1655,892.5C 1652.97,895.221 1651.47,898.221 1650.5,901.5C 1646.38,903.04 1642.38,904.874 1638.5,907C 1633.06,908.174 1628.06,907.174 1623.5,904C 1614.69,903.543 1606.02,904.377 1597.5,906.5C 1587.27,904.372 1576.94,902.872 1566.5,902C 1564.5,901.333 1563.17,900 1562.5,898C 1558.62,895.37 1556.29,896.203 1555.5,900.5C 1553.47,900.662 1551.47,900.495 1549.5,900C 1550.07,898.795 1550.74,897.628 1551.5,896.5C 1553.32,897.429 1554.66,896.762 1555.5,894.5C 1551.69,891.186 1548.36,887.353 1545.5,883C 1541.08,881.913 1539.75,883.413 1541.5,887.5C 1540.07,887.421 1538.74,887.754 1537.5,888.5C 1537.68,886.204 1537.34,883.871 1536.5,881.5C 1540.7,882.155 1541.87,880.821 1540,877.5C 1538.87,875.789 1537.37,875.289 1535.5,876C 1534.35,878.119 1532.85,879.953 1531,881.5C 1530.71,879.109 1530.21,876.776 1529.5,874.5C 1531.97,872.902 1531.97,871.402 1529.5,870C 1521.42,869.33 1513.25,868.83 1505,868.5C 1503.78,868.862 1502.61,869.362 1501.5,870C 1499.71,872.795 1497.54,875.295 1495,877.5C 1494.32,878.784 1494.48,879.951 1495.5,881C 1492.5,881.333 1489.5,881.667 1486.5,882C 1483.72,884.784 1484.38,886.451 1488.5,887C 1486.74,887.798 1485.07,887.631 1483.5,886.5C 1482.79,884.954 1481.62,883.954 1480,883.5C 1476.77,883.799 1474.1,885.132 1472,887.5C 1471.38,888.449 1471.55,889.282 1472.5,890C 1476.72,889.972 1480.39,891.305 1483.5,894C 1478.85,894.499 1474.18,894.666 1469.5,894.5C 1469.36,890.695 1467.36,889.029 1463.5,889.5C 1456.85,889.758 1450.51,891.258 1444.5,894C 1442.88,894.853 1442.54,895.853 1443.5,897C 1450.83,897.333 1458.17,897.667 1465.5,898C 1466.83,898.667 1468.17,899.333 1469.5,900C 1459.81,901.898 1450.15,901.732 1440.5,899.5C 1441.67,898.094 1441.33,896.928 1439.5,896C 1427.96,894.87 1416.63,895.87 1405.5,899C 1404.83,899.667 1404.17,900.333 1403.5,901C 1382.11,901.748 1360.78,903.248 1339.5,905.5C 1329.51,903.024 1319.34,902.024 1309,902.5C 1297.81,903.074 1286.64,903.074 1275.5,902.5C 1268.08,902.671 1260.91,904.005 1254,906.5C 1250.52,904.408 1247.02,904.242 1243.5,906C 1242.55,906.718 1242.38,907.551 1243,908.5C 1246.32,909.906 1249.82,910.572 1253.5,910.5C 1293.67,909.811 1333.83,909.478 1374,909.5C 1383.74,909.123 1393.24,910.289 1402.5,913C 1348.83,913.833 1295.16,913.667 1241.5,912.5C 1242.33,911.549 1242.49,910.549 1242,909.5C 1240.56,908.282 1238.9,907.615 1237,907.5C 1232.52,908.18 1228.02,908.68 1223.5,909C 1220.6,910.926 1219.94,913.593 1221.5,917C 1221,921.5 1220.5,926 1220,930.5C 1218.26,932.063 1216.76,933.73 1215.5,935.5C 1217.05,926.59 1217.88,917.59 1218,908.5C 1223.66,904.648 1229.82,903.648 1236.5,905.5C 1237.5,905.167 1238.17,904.5 1238.5,903.5C 1248.1,902.995 1257.43,901.662 1266.5,899.5C 1306.44,899.15 1346.44,897.65 1386.5,895C 1411.67,889.71 1437.01,885.043 1462.5,881C 1468.08,879.537 1473.42,877.537 1478.5,875C 1485.79,868.07 1492.12,860.404 1497.5,852C 1506.09,849.339 1514.76,849.006 1523.5,851C 1526.33,853.248 1529.33,855.248 1532.5,857C 1542.03,868.378 1552.03,879.378 1562.5,890C 1567.34,893.422 1572.68,895.755 1578.5,897C 1601.5,897.5 1624.5,897.667 1647.5,897.5C 1648.31,697.168 1648.31,496.834 1647.5,296.5C 1645.25,296.819 1643.25,296.319 1641.5,295C 1619.84,294.5 1598.17,294.333 1576.5,294.5C 1575.08,293.189 1573.75,292.523 1572.5,292.5C 1573.14,291.518 1573.81,290.518 1574.5,289.5C 1579.8,288.613 1585.14,287.947 1590.5,287.5C 1608.1,288.433 1625.77,288.433 1643.5,287.5 Z M 1514.5,858.5 C 1507.8,859.865 1507.14,862.531 1512.5,866.5C 1515.92,864.829 1519.26,863.163 1522.5,861.5C 1520.27,859.599 1517.6,858.599 1514.5,858.5 Z"/></g>
<g><path style="opacity:0.006" fill="#140100" d="M 1667.5,876.5 C 1667.5,881.833 1667.5,887.167 1667.5,892.5C 1663.63,887.188 1663.63,881.855 1667.5,876.5 Z"/></g>
<g><path style="opacity:0.004" fill="#120200" d="M 125.5,880.5 C 126.833,881.167 126.833,881.167 125.5,880.5 Z"/></g>
<g><path style="opacity:0.004" fill="#120200" d="M 112.5,887.5 C 113.833,888.167 113.833,888.167 112.5,887.5 Z"/></g>
<g><path style="opacity:0.004" fill="#140200" d="M 1541.5,887.5 C 1542.17,887.5 1542.5,887.833 1542.5,888.5C 1542.17,888.167 1541.83,887.833 1541.5,887.5 Z"/></g>
<g><path style="opacity:0.004" fill="#140200" d="M 1542.5,888.5 C 1543.17,888.5 1543.5,888.833 1543.5,889.5C 1543.17,889.167 1542.83,888.833 1542.5,888.5 Z"/></g>
<g><path style="opacity:0.005" fill="#140200" d="M 1543.5,889.5 C 1550.74,892.903 1550.74,894.57 1543.5,894.5C 1543.5,892.833 1543.5,891.167 1543.5,889.5 Z"/></g>
<g><path style="opacity:0.005" fill="#130200" d="M 182.5,891.5 C 186.182,891.335 189.848,891.501 193.5,892C 193.957,892.414 194.291,892.914 194.5,893.5C 189.869,894.662 185.202,894.828 180.5,894C 181.381,893.292 182.047,892.458 182.5,891.5 Z"/></g>
<g><path style="opacity:0.004" fill="#130100" d="M 111.5,892.5 C 112.773,893.077 112.773,893.743 111.5,894.5C 110.537,894.03 110.537,893.363 111.5,892.5 Z"/></g>
<g><path style="opacity:0.006" fill="#140100" d="M 1660.5,892.5 C 1661.48,895.287 1661.81,898.287 1661.5,901.5C 1660.5,901.5 1659.5,901.5 1658.5,901.5C 1658.09,898.145 1658.76,895.145 1660.5,892.5 Z"/></g>
<g><path style="opacity:0.004" fill="#130200" d="M 106.5,894.5 C 106.897,893.475 107.563,893.308 108.5,894C 107.906,894.464 107.239,894.631 106.5,894.5 Z"/></g>
<g><path style="opacity:0.004" fill="#130200" d="M 99.5,897.5 C 100.882,898.801 102.548,899.634 104.5,900C 102.866,900.494 101.199,900.66 99.5,900.5C 99.5,899.5 99.5,898.5 99.5,897.5 Z"/></g>
<g><path style="opacity:0.004" fill="#140200" d="M 8.5,903.5 C 10.332,904.14 10.6653,905.14 9.5,906.5C 7.4807,905.867 7.14737,904.867 8.5,903.5 Z"/></g>
<g><path style="opacity:0.008" fill="#150200" d="M 247.5,903.5 C 259.171,903.333 270.838,903.5 282.5,904C 283.833,904.667 285.167,905.333 286.5,906C 270.986,907.649 255.319,907.982 239.5,907C 242.122,905.525 244.788,904.359 247.5,903.5 Z"/></g>
<g><path style="opacity:0.009" fill="#180301" d="M 1402.5,903.5 C 1412.84,903.334 1423.17,903.5 1433.5,904C 1436.42,904.417 1439.09,905.417 1441.5,907C 1428.17,907.667 1414.83,907.667 1401.5,907C 1401.17,906.667 1400.83,906.333 1400.5,906C 1401.38,905.292 1402.05,904.458 1402.5,903.5 Z"/></g>
<g><path style="opacity:0.005" fill="#140200" d="M 1559.5,903.5 C 1562.02,903.128 1564.02,903.961 1565.5,906C 1562.65,907.727 1559.65,907.894 1556.5,906.5C 1557.34,905.265 1558.34,904.265 1559.5,903.5 Z"/></g>
<g><path style="opacity:0.011" fill="#140200" d="M 15.5,909.5 C 36.1694,909.333 56.836,909.5 77.5,910C 81.0979,910.154 84.4313,911.154 87.5,913C 62.8356,913.5 38.1689,913.667 13.5,913.5C 13.5271,911.801 14.1938,910.467 15.5,909.5 Z"/></g>
<g><path style="opacity:0.011" fill="#190502" d="M 300.5,909.5 C 332.168,909.333 363.835,909.5 395.5,910C 399.039,910.282 402.539,910.782 406,911.5C 415.394,909.497 424.894,908.997 434.5,910C 435.973,910.71 436.64,911.876 436.5,913.5C 385.832,913.667 335.166,913.5 284.5,913C 289.841,911.248 295.174,910.081 300.5,909.5 Z"/></g>
<g><path style="opacity:0.008" fill="#140100" d="M 1575.5,909.5 C 1583.05,909.656 1590.55,910.323 1598,911.5C 1606.74,909.601 1615.58,909.101 1624.5,910C 1626.97,910.113 1628.97,911.113 1630.5,913C 1608.83,913.667 1587.17,913.667 1565.5,913C 1566.17,912.333 1566.83,911.667 1567.5,911C 1570.36,910.817 1573.03,910.317 1575.5,909.5 Z"/></g>
<g><path style="opacity:0.006" fill="#140200" d="M 1639.5,910.5 C 1643.63,909.89 1647.3,910.723 1650.5,913C 1646.17,913.667 1641.83,913.667 1637.5,913C 1638.38,912.292 1639.05,911.458 1639.5,910.5 Z"/></g>
<g><path style="opacity:0.01" fill="#1c0906" d="M 1231.5,914.5 C 1235.74,916.261 1236.24,918.594 1233,921.5C 1232.67,924.167 1232.33,926.833 1232,929.5C 1231.07,925.468 1229.57,921.635 1227.5,918C 1228.35,916.229 1229.68,915.063 1231.5,914.5 Z"/></g>
<g><path style="opacity:0.004" fill="#1e0a07" d="M 1238.5,919.5 C 1239.25,918.427 1240.25,918.26 1241.5,919C 1240.55,919.483 1239.55,919.649 1238.5,919.5 Z"/></g>
<g><path style="opacity:0.004" fill="#130200" d="M 1630.5,919.5 C 1632.63,918.371 1634.96,918.204 1637.5,919C 1635.19,919.497 1632.86,919.663 1630.5,919.5 Z"/></g>
<g><path style="opacity:0.004" fill="#1b0805" d="M 1225.5,930.5 C 1226.63,932.966 1226.8,935.633 1226,938.5C 1222.87,935.987 1222.7,933.32 1225.5,930.5 Z"/></g>
<g><path style="opacity:0.005" fill="#150402" d="M 448.5,926.5 C 449.5,926.5 450.5,926.5 451.5,926.5C 453.276,930.833 452.776,934.833 450,938.5C 448.576,934.703 448.076,930.703 448.5,926.5 Z"/></g>
<g><path style="opacity:0.004" fill="#170602" d="M 1214.5,943.5 C 1215.83,944.167 1215.83,944.167 1214.5,943.5 Z"/></g>
<g><path style="opacity:0.004" fill="#1b0805" d="M 1218.5,942.5 C 1219.04,942.56 1219.38,942.893 1219.5,943.5C 1218.64,944.583 1217.64,944.749 1216.5,944C 1217.42,943.722 1218.08,943.222 1218.5,942.5 Z"/></g>
<g><path style="opacity:0.004" fill="#1b0805" d="M 1206.5,949.5 C 1213.52,950.106 1213.85,951.106 1207.5,952.5C 1206.61,951.675 1206.28,950.675 1206.5,949.5 Z"/></g>
<g><path style="opacity:0.221" fill="#120c0b" d="M 1266.5,899.5 C 1257.43,901.662 1248.1,902.995 1238.5,903.5C 1238.17,904.5 1237.5,905.167 1236.5,905.5C 1229.82,903.648 1223.66,904.648 1218,908.5C 1217.88,917.59 1217.05,926.59 1215.5,935.5C 1211.77,943.363 1205.44,947.529 1196.5,948C 1194.54,948.953 1192.88,950.287 1191.5,952C 1195.01,954.55 1199.01,955.884 1203.5,956C 1204.17,956.667 1204.83,957.333 1205.5,958C 1200.18,958.499 1194.84,958.666 1189.5,958.5C 1189.7,956.61 1189.04,955.11 1187.5,954C 1183.13,953.347 1179.29,954.513 1176,957.5C 1175.38,958.449 1175.55,959.282 1176.5,960C 1179.79,960.882 1183.12,961.548 1186.5,962C 1187.67,962.419 1188.67,963.085 1189.5,964C 1184.49,965.345 1179.49,965.512 1174.5,964.5C 1174.7,962.61 1174.04,961.11 1172.5,960C 1165.47,959.129 1159.31,960.963 1154,965.5C 1149.11,966.043 1144.27,966.877 1139.5,968C 1137.88,968.615 1136.55,969.615 1135.5,971C 1127.2,972.018 1118.86,972.685 1110.5,973C 1106.08,973.134 1102.42,974.801 1099.5,978C 1100.33,978.915 1101.33,979.581 1102.5,980C 1112.5,980.333 1122.5,980.667 1132.5,981C 1133.33,981.915 1134.33,982.581 1135.5,983C 1135.17,983.333 1134.83,983.667 1134.5,984C 1122.83,984.667 1111.17,984.667 1099.5,984C 1099.51,982.417 1099.17,980.751 1098.5,979C 1090.02,977.989 1081.68,978.656 1073.5,981C 1071.83,982 1070.17,983 1068.5,984C 1059.84,984.761 1051.17,985.428 1042.5,986C 1036.17,986.746 1030.17,988.413 1024.5,991C 1011.48,991.374 998.484,992.041 985.5,993C 980.053,993.928 974.72,995.261 969.5,997C 954.657,997.281 939.824,997.781 925,998.5C 853.174,997.687 781.341,997.187 709.5,997C 703.206,995.51 696.873,994.177 690.5,993C 677.175,992.16 663.842,991.493 650.5,991C 647.193,989.716 643.859,988.383 640.5,987C 630.217,985.52 619.883,984.52 609.5,984C 607.623,981.894 605.29,980.561 602.5,980C 594.876,978.904 587.209,978.238 579.5,978C 577.545,977.047 575.878,975.713 574.5,974C 566.221,972.503 557.888,972.169 549.5,973C 548.167,974.333 548.167,975.667 549.5,977C 540.167,977.667 530.833,977.667 521.5,977C 523.808,975.133 526.475,974.133 529.5,974C 535.167,973.667 540.833,973.333 546.5,973C 547.5,970.909 546.833,969.243 544.5,968C 537.582,966.449 530.582,966.116 523.5,967C 521.606,968.101 520.939,969.434 521.5,971C 515.5,971.667 509.5,971.667 503.5,971C 504.551,969.615 505.884,968.615 507.5,968C 511.5,967.667 515.5,967.333 519.5,967C 520.5,964.909 519.833,963.243 517.5,962C 513.961,960.496 510.295,960.163 506.5,961C 503.98,964.112 500.646,965.612 496.5,965.5C 493.5,965 490.5,964.5 487.5,964C 488.328,963.085 489.328,962.419 490.5,962C 494.287,961.84 497.954,961.174 501.5,960C 502.5,957.909 501.833,956.243 499.5,955C 496.964,954.661 494.464,954.161 492,953.5C 488.879,953.792 487.379,955.459 487.5,958.5C 482.489,958.666 477.489,958.499 472.5,958C 476.314,955.506 480.481,954.006 485,953.5C 485.684,952.216 485.517,951.049 484.5,950C 482.341,949.088 480.175,948.255 478,947.5C 474.398,951.719 469.898,953.219 464.5,952C 463.692,951.692 463.025,951.192 462.5,950.5C 464.369,949.376 466.369,948.543 468.5,948C 471.064,945.724 470.73,943.724 467.5,942C 465.238,941.358 463.071,940.525 461,939.5C 458.654,933.963 456.821,928.297 455.5,922.5C 456.82,921.058 458.486,920.392 460.5,920.5C 460.343,921.873 460.51,923.207 461,924.5C 461.73,917.671 462.563,911.004 463.5,904.5C 463.168,913.857 463.502,923.19 464.5,932.5C 490.683,946.925 518.349,957.425 547.5,964C 578.564,969.677 609.564,975.677 640.5,982C 705.604,992.246 771.104,996.413 837,994.5C 885.29,995.62 933.457,993.786 981.5,989C 1033.63,982.791 1085.29,973.791 1136.5,962C 1155.32,956.725 1173.66,950.058 1191.5,942C 1199.38,939.324 1205.88,934.824 1211,928.5C 1211.18,919.589 1211.68,910.755 1212.5,902C 1230.5,899.852 1248.5,899.019 1266.5,899.5 Z"/></g>
<g><path style="opacity:0.007" fill="#1a0805" d="M 1158.5,967.5 C 1162.51,967.334 1166.51,967.501 1170.5,968C 1172.12,968.615 1173.45,969.615 1174.5,971C 1168.51,971.499 1162.51,971.666 1156.5,971.5C 1156.53,969.801 1157.19,968.467 1158.5,967.5 Z"/></g>
<g><path style="opacity:0.008" fill="#1a0805" d="M 1138.5,973.5 C 1142.18,973.335 1145.85,973.501 1149.5,974C 1152.18,974.249 1154.51,975.249 1156.5,977C 1149.48,977.831 1142.48,977.664 1135.5,976.5C 1136.34,975.265 1137.34,974.265 1138.5,973.5 Z"/></g>
<g><path style="opacity:0.016" fill="#180803" d="M 552.5,980.5 C 560.84,980.334 569.173,980.5 577.5,981C 578.833,982 578.833,983 577.5,984C 568.5,984.667 559.5,984.667 550.5,984C 550.167,983.667 549.833,983.333 549.5,983C 550.571,982.148 551.571,981.315 552.5,980.5 Z"/></g>
<g><path style="opacity:0.012" fill="#1a0a06" d="M 1071.5,986.5 C 1078.84,986.334 1086.17,986.5 1093.5,987C 1095.78,987.473 1097.78,988.473 1099.5,990C 1089.48,990.832 1079.48,990.666 1069.5,989.5C 1070.19,988.482 1070.86,987.482 1071.5,986.5 Z"/></g>
<g><path style="opacity:0.004" fill="#180a05" d="M 583.5,986.5 C 591.84,986.334 600.173,986.5 608.5,987C 609.167,988 609.833,989 610.5,990C 599.5,990.667 588.5,990.667 577.5,990C 579.432,988.541 581.432,987.375 583.5,986.5 Z"/></g>
<g><path style="opacity:0.014" fill="#1a0904" d="M 613.5,993.5 C 624.505,993.333 635.505,993.5 646.5,994C 647.167,994.667 647.833,995.333 648.5,996C 635.5,998 622.5,998 609.5,996C 611.066,995.392 612.4,994.558 613.5,993.5 Z"/></g>
<g><path style="opacity:0.005" fill="#1a0a05" d="M 1029.5,993.5 C 1041.5,993.333 1053.5,993.5 1065.5,994C 1066.83,994.667 1068.17,995.333 1069.5,996C 1055.78,998.144 1042.11,997.978 1028.5,995.5C 1028.86,994.817 1029.2,994.15 1029.5,993.5 Z"/></g>
<g><path style="opacity:0.009" fill="#190a05" d="M 656.5,999.5 C 671.504,999.333 686.504,999.5 701.5,1000C 703.608,1000.36 705.608,1001.03 707.5,1002C 687.256,1003.64 666.923,1003.98 646.5,1003C 649.85,1001.51 653.184,1000.35 656.5,999.5 Z"/></g>
<g><path style="opacity:0.004" fill="#1a0b06" d="M 975.5,999.5 C 990.837,999.333 1006.17,999.5 1021.5,1000C 1024.38,1000.44 1027.04,1001.44 1029.5,1003C 1010.5,1003.67 991.5,1003.67 972.5,1003C 972.167,1002.67 971.833,1002.33 971.5,1002C 972.858,1001.07 974.192,1000.23 975.5,999.5 Z"/></g>
<g><path style="opacity:0.02" fill="#1b0c07" d="M 727.5,1005.5 C 799.501,1005.33 871.501,1005.5 943.5,1006C 951.5,1006.33 959.5,1006.67 967.5,1007C 969.5,1007.67 971.5,1008.33 973.5,1009C 883.833,1009.67 794.167,1009.67 704.5,1009C 712.205,1007.2 719.872,1006.03 727.5,1005.5 Z"/></g>
</svg>
